<?xml version="1.0" standalone="no"?>
<!DOCTYPE svg PUBLIC "-//W3C//DTD SVG 20010904//EN"
 "http://www.w3.org/TR/2001/REC-SVG-20010904/DTD/svg10.dtd">
<svg version="1.0" xmlns="http://www.w3.org/2000/svg"
 width="368.000000pt" height="248.000000pt" viewBox="0 0 368.000000 248.000000"
 preserveAspectRatio="xMidYMid meet">
<metadata>
Created by potrace 1.16, written by Peter Selinger 2001-2019
</metadata>
<g transform="translate(0.000000,248.000000) scale(0.100000,-0.100000)"
fill="#000000" stroke="none">
<path d="M0 1240 l0 -1240 1840 0 1840 0 0 1240 0 1240 -1840 0 -1840 0 0
-1240z m1460 1095 c36 -9 119 -21 185 -26 136 -10 162 -18 167 -51 2 -18 11
-24 42 -29 55 -9 193 8 227 28 23 14 33 15 54 5 22 -10 34 -9 71 7 29 13 65
20 104 19 55 -1 66 -5 111 -40 51 -41 66 -71 55 -113 -4 -17 0 -31 13 -44 11
-11 25 -38 32 -60 10 -34 9 -44 -5 -66 -20 -30 -15 -67 17 -132 19 -41 23 -43
64 -43 110 0 154 -77 99 -173 -16 -29 -21 -50 -17 -67 4 -14 4 -49 0 -79 -7
-52 -7 -55 26 -86 19 -17 43 -53 55 -79 20 -47 20 -47 62 -44 38 3 45 7 60 40
10 20 23 40 30 44 7 4 43 7 80 6 48 -2 74 2 92 13 35 23 126 55 156 55 16 0
38 -12 55 -30 23 -24 37 -30 72 -30 56 0 109 -22 118 -49 7 -24 -11 -88 -32
-112 -8 -10 -38 -20 -68 -24 -57 -7 -105 -35 -105 -63 0 -8 5 -30 12 -48 10
-29 9 -36 -7 -54 -10 -11 -28 -20 -40 -20 -13 0 -29 -7 -36 -17 -8 -9 -26 -24
-42 -33 -24 -15 -26 -19 -12 -30 24 -20 18 -53 -19 -94 -32 -34 -38 -37 -73
-30 -21 3 -49 17 -63 30 -51 47 -137 40 -178 -15 -15 -21 -33 -31 -64 -36 -60
-10 -177 -74 -194 -107 -14 -27 -39 -47 -180 -142 -75 -50 -124 -99 -124 -124
0 -21 -75 -82 -101 -82 -26 0 -57 27 -79 68 -9 20 -16 22 -38 16 -67 -18 -94
5 -90 76 l3 45 -108 5 c-93 4 -111 8 -123 24 -16 23 -18 48 -5 92 10 35 -7 79
-54 143 -14 19 -28 46 -31 60 -2 14 -9 40 -14 57 -6 17 -10 60 -10 96 0 61 -2
68 -29 90 -78 61 -75 60 -207 60 l-125 0 -21 29 c-12 16 -30 29 -40 29 -9 0
-41 9 -70 19 -29 10 -73 19 -98 19 -25 0 -71 9 -102 20 -50 17 -60 17 -77 5
-16 -11 -46 -12 -153 -5 -84 5 -143 4 -160 -2 -49 -18 -84 35 -58 85 6 10 62
53 124 94 85 56 116 82 121 102 3 14 22 44 41 66 21 25 34 51 34 68 0 20 10
35 35 55 30 23 35 32 35 69 0 32 7 51 31 81 17 22 37 43 45 47 8 5 14 24 14
47 0 29 8 48 35 81 20 23 41 51 47 63 14 28 49 56 70 56 10 0 30 19 45 43 32
51 45 62 103 89 25 11 56 30 70 40 26 21 28 21 140 -7z"/>
<path d="M1350 2313 c-8 -4 -21 -14 -28 -25 -7 -10 -20 -18 -29 -18 -46 0
-138 -87 -104 -98 6 -2 11 -8 11 -13 0 -4 -6 -6 -13 -3 -8 3 -20 -2 -27 -11
-7 -8 -22 -15 -34 -15 -27 0 -35 -6 -70 -55 -16 -22 -38 -48 -48 -58 -13 -12
-18 -33 -18 -68 0 -44 -3 -51 -25 -59 -14 -5 -25 -16 -25 -24 0 -9 -9 -20 -20
-26 -15 -8 -18 -17 -13 -41 7 -36 -23 -99 -49 -99 -25 0 -33 -20 -15 -37 16
-16 18 -13 -62 -98 -11 -12 -23 -33 -26 -48 -8 -29 -36 -56 -110 -102 -27 -16
-66 -41 -88 -55 -43 -27 -66 -55 -54 -66 4 -4 16 1 27 11 17 16 25 17 40 8 25
-16 49 9 31 31 -10 11 -9 14 1 12 7 -1 18 -5 25 -9 7 -4 16 0 22 10 9 16 10
14 11 -10 0 -25 -2 -27 -20 -17 -18 10 -31 -2 -12 -13 4 -2 1 -2 -5 -1 -7 2
-13 -1 -13 -6 0 -14 34 -12 48 2 10 10 15 10 20 1 4 -7 30 -13 57 -14 28 -1
52 -6 55 -10 12 -18 32 11 32 45 0 29 3 36 15 32 11 -5 13 -2 9 10 -3 8 -6 20
-6 25 0 4 -7 6 -15 3 -8 -4 -15 -10 -15 -16 0 -5 6 -6 13 -3 6 4 4 0 -6 -8
-10 -8 -16 -19 -15 -23 2 -5 -2 -11 -7 -14 -6 -3 -12 6 -13 19 -2 15 0 21 7
17 11 -7 15 10 11 51 -1 13 2 28 7 35 4 7 8 20 8 28 0 8 4 21 9 28 11 18 15
62 5 62 -4 0 2 11 14 25 12 13 24 19 26 13 2 -6 -3 -14 -10 -19 -12 -7 -12 -9
0 -9 11 0 11 -4 -2 -18 -16 -17 -16 -19 0 -19 10 0 23 4 30 9 7 5 14 5 18 -2
4 -7 12 -7 24 0 26 14 34 0 15 -28 -15 -23 -15 -24 5 -17 12 4 21 2 21 -4 0
-16 -33 -13 -56 4 -18 14 -18 14 5 15 13 0 21 3 17 7 -9 10 -36 13 -36 4 0 -4
-12 -7 -27 -6 -23 0 -28 -4 -26 -22 2 -13 -4 -24 -15 -27 -13 -4 -12 -4 3 -3
12 1 21 11 23 25 2 13 9 21 15 19 12 -5 13 -8 2 -42 -4 -15 -3 -15 6 3 14 26
33 24 37 -4 3 -16 1 -16 -7 -4 -9 13 -11 13 -11 -2 0 -10 -7 -18 -15 -18 -8 0
-15 -4 -15 -10 0 -5 -5 -10 -11 -10 -6 0 -9 7 -5 15 3 10 -1 15 -14 15 -28 0
-33 -17 -7 -25 l22 -8 -22 -4 c-13 -2 -23 -9 -23 -14 0 -6 9 -7 20 -4 11 3 20
3 21 -2 0 -4 2 -17 4 -28 2 -10 -1 -25 -7 -32 -6 -8 -9 -14 -7 -16 40 -22 74
-37 89 -37 10 0 22 -5 25 -10 4 -6 11 -8 16 -4 14 8 0 24 -22 24 -11 0 -17 5
-14 10 4 6 11 7 17 4 7 -4 8 -2 4 4 -4 7 -1 12 8 12 10 0 13 -6 9 -17 -6 -16
-5 -17 11 -3 18 14 17 15 -10 27 -16 7 -24 13 -19 14 6 1 15 2 20 3 11 1 15 9
15 29 0 9 -3 9 -9 -1 -6 -10 -11 -5 -20 19 -12 36 -9 44 14 36 17 -7 21 -27 5
-27 -5 0 -10 -4 -10 -9 0 -5 8 -8 18 -7 13 1 17 -7 17 -33 0 -19 5 -36 11 -38
6 -2 10 8 9 26 -1 17 2 28 7 25 4 -3 8 0 8 5 0 6 -4 11 -10 11 -5 0 -10 4 -10
9 0 19 41 6 66 -20 17 -18 23 -32 18 -41 -6 -9 -10 -6 -14 11 -6 26 -40 39
-40 15 0 -8 -5 -14 -12 -14 -9 0 -9 -3 1 -13 10 -10 15 -8 28 8 l15 20 -4 -20
c-2 -11 -12 -21 -25 -23 -15 -2 -19 -8 -16 -23 3 -11 0 -19 -7 -19 -7 0 -10 6
-7 13 3 8 -1 14 -9 14 -18 0 -28 -29 -13 -38 7 -4 22 -4 33 1 27 10 62 4 89
-15 18 -13 110 -32 128 -27 4 0 6 -4 6 -11 -1 -36 5 -47 23 -47 11 0 20 5 20
11 0 6 7 9 15 6 19 -8 31 11 16 26 -9 9 -14 8 -20 -2 -5 -8 -14 -10 -22 -6 -9
6 -11 3 -6 -8 3 -10 2 -17 -3 -17 -6 0 -10 12 -10 26 0 18 5 25 18 23 29 -3
38 1 23 10 -7 5 -10 14 -7 20 9 14 36 14 36 0 0 -5 -4 -7 -10 -4 -6 3 -7 -1
-4 -9 3 -9 9 -16 13 -16 4 0 7 -10 8 -22 3 -33 43 -53 43 -20 0 15 -2 15 -11
2 -9 -13 -10 -13 -6 1 3 9 0 22 -6 29 -10 10 -8 12 6 7 15 -6 17 -3 12 16 -4
13 -3 17 2 10 10 -14 53 -13 53 0 0 5 -9 7 -20 4 -11 -3 -18 -2 -15 3 3 4 13
10 24 13 15 4 18 0 16 -20 -1 -14 2 -22 9 -20 6 3 10 10 9 16 -2 6 5 11 15 12
15 0 14 2 -3 10 -19 9 -19 9 1 6 12 -3 29 0 38 5 11 6 22 6 30 -1 18 -15 15
-93 -3 -99 -9 -3 -11 0 -5 9 12 20 13 52 2 69 -6 11 -7 8 -2 -9 4 -17 3 -21
-6 -16 -9 5 -10 1 -6 -16 6 -21 5 -20 -9 4 -14 25 -19 27 -33 15 -9 -7 -20
-17 -24 -23 -5 -7 -8 -7 -8 0 0 6 -4 3 -10 -5 -5 -8 -13 -11 -17 -6 -4 5 -2
11 5 13 6 3 10 9 6 14 -3 5 -13 5 -24 -1 -17 -9 -18 -14 -8 -35 6 -14 15 -25
20 -25 5 0 6 6 2 13 -6 9 -4 9 7 -1 16 -15 39 -16 39 -1 0 5 -5 7 -12 3 -7 -4
-8 -3 -4 5 6 9 11 9 22 0 7 -6 20 -9 27 -6 13 5 58 -26 58 -40 0 -4 9 -11 21
-16 15 -5 19 -4 15 7 -4 10 0 12 14 9 10 -3 19 -13 19 -22 0 -14 -2 -14 -10
-1 -8 13 -10 13 -10 -1 0 -9 7 -20 16 -23 22 -8 22 -8 19 12 -1 9 0 12 2 7 2
-6 13 -16 24 -24 12 -7 18 -8 14 -2 -3 6 -2 11 3 11 8 0 22 -22 22 -33 0 -1
-13 -2 -29 -2 -22 0 -27 3 -19 13 7 8 7 12 0 12 -16 0 -22 -14 -16 -37 5 -16
12 -20 34 -17 18 3 29 0 33 -10 4 -9 13 -13 20 -10 11 4 14 -5 11 -43 -2 -31
0 -43 5 -34 5 8 7 21 3 30 -3 9 -2 13 3 9 4 -4 8 -18 9 -30 0 -13 7 -24 14
-24 32 -4 35 -7 12 -13 -16 -4 -30 -2 -38 6 -8 7 -17 11 -21 8 -8 -5 -5 49 4
73 3 7 1 11 -4 8 -5 -3 -14 1 -21 9 -22 26 -52 12 -57 -25 -3 -32 -2 -33 11
-15 8 11 12 24 8 29 -3 5 2 6 12 3 10 -4 22 -7 27 -7 5 0 9 -6 9 -14 0 -10 -8
-13 -25 -10 -17 3 -25 0 -25 -10 0 -9 7 -12 18 -9 12 3 18 -2 19 -16 1 -12 -2
-21 -8 -21 -5 0 -9 4 -9 9 0 5 -9 11 -20 14 -21 5 -29 -16 -10 -28 6 -3 10 -1
10 6 0 7 2 10 4 8 3 -3 1 -22 -4 -44 -7 -30 -6 -43 6 -56 7 -8 14 -20 14 -26
0 -5 11 -20 25 -33 14 -13 25 -29 25 -35 0 -7 9 -24 20 -37 19 -24 19 -28 4
-72 -9 -25 -14 -51 -12 -58 3 -9 36 -13 117 -14 61 0 106 3 99 8 -7 4 -10 8
-5 9 4 1 12 3 17 4 6 1 17 3 26 4 8 0 12 6 9 11 -3 6 3 10 15 10 12 0 18 5 15
10 -10 16 1 12 15 -6 8 -8 9 -14 4 -13 -22 4 -34 -2 -34 -17 0 -10 -6 -14 -14
-11 -18 7 -28 -3 -17 -17 5 -6 5 -34 0 -66 -10 -61 2 -88 25 -57 15 19 41 23
51 7 5 -8 11 -8 20 0 10 8 15 4 21 -17 4 -16 8 -32 8 -36 1 -5 9 -14 18 -21
10 -7 14 -17 10 -22 -4 -4 10 5 30 21 20 17 37 38 37 47 1 28 60 87 136 136
87 56 116 82 108 95 -3 6 -1 7 5 3 17 -10 52 12 52 32 0 17 66 66 133 98 20
10 33 22 30 27 -4 6 1 8 11 4 26 -10 38 2 21 20 -21 21 -12 28 14 11 12 -7 19
-19 16 -27 -4 -9 0 -11 11 -7 8 3 19 6 22 6 4 0 13 13 19 28 22 50 111 66 205
37 53 -16 64 -9 46 29 -10 23 -9 28 7 40 11 8 24 12 30 10 5 -2 21 5 34 15
l24 19 -21 11 c-12 6 -22 16 -22 22 0 6 5 7 10 4 6 -3 10 -2 10 4 0 5 -9 9
-19 8 -11 0 -17 -6 -13 -12 3 -5 -2 -4 -11 4 -9 7 -14 17 -11 23 3 5 2 15 -3
21 -4 7 -1 5 8 -5 16 -16 83 -31 94 -20 2 3 -1 12 -8 21 -11 14 -10 14 6 2 11
-9 17 -10 17 -2 0 6 9 11 21 11 15 0 19 5 15 15 -3 8 -1 14 5 12 6 -1 16 13
22 32 12 36 62 71 101 74 12 0 32 9 45 19 20 15 21 19 7 24 -9 3 -16 12 -16
19 0 7 -6 16 -12 19 -7 3 -4 4 6 3 10 -1 21 4 24 12 4 11 -2 12 -24 6 -42 -11
-66 -8 -76 10 -5 8 -18 15 -29 15 -11 0 -18 -4 -15 -9 3 -5 0 -11 -7 -14 -8
-3 -14 1 -14 9 0 8 5 14 11 14 6 0 4 4 -4 10 -8 5 -11 12 -7 17 5 4 12 1 17
-7 5 -8 12 -11 16 -7 4 4 2 13 -4 19 -9 9 -22 8 -54 -1 -54 -16 -113 -46 -112
-57 1 -5 -2 -19 -7 -31 -5 -14 -5 -23 1 -23 5 0 7 -7 3 -15 -3 -9 -8 -13 -11
-10 -11 10 -11 38 -1 57 6 11 6 18 0 18 -5 0 -12 -14 -16 -31 -5 -22 -10 -28
-18 -20 -7 7 -7 14 2 24 16 20 -13 31 -40 17 -13 -8 -19 -7 -19 0 0 6 -5 8
-11 4 -6 -3 -15 -1 -19 6 -4 7 -13 9 -19 6 -6 -4 -9 -11 -6 -16 3 -4 -2 -10
-10 -14 -19 -7 -19 -26 0 -26 8 0 15 4 15 9 0 5 9 11 20 14 16 4 18 2 10 -13
-6 -10 -19 -22 -30 -25 -11 -3 -20 -10 -20 -14 0 -4 -10 -7 -22 -6 -27 2 -49
-5 -44 -14 2 -3 -11 -6 -29 -7 -19 0 -32 3 -29 7 2 4 -12 5 -32 2 -34 -6 -37
-5 -31 16 4 17 -1 25 -24 36 -16 9 -29 21 -28 28 0 9 2 9 6 0 6 -16 33 -17 33
-2 0 5 -4 8 -8 5 -5 -3 -8 5 -8 17 1 16 -5 22 -19 22 -13 0 -19 6 -17 18 3 18
-6 21 -32 11 -9 -3 -14 -10 -11 -14 3 -5 0 -12 -7 -16 -7 -4 -10 -4 -6 0 3 4
0 26 -7 47 -8 22 -10 37 -5 34 6 -4 14 5 19 18 6 14 15 28 22 33 9 5 8 10 -5
19 -15 12 -15 14 -1 29 14 14 13 19 -5 18 -7 -1 -4 57 3 65 4 3 7 15 7 25 0
12 4 16 12 12 6 -4 8 -3 5 3 -4 6 0 13 8 17 24 9 20 67 -5 73 -11 3 -20 9 -20
14 0 5 -5 9 -11 9 -5 0 -7 -5 -4 -11 4 -6 -2 -5 -14 3 -18 11 -26 10 -53 -5
-17 -10 -32 -16 -33 -15 -1 2 -7 22 -14 46 -6 23 -16 42 -21 42 -5 0 -12 20
-15 45 -4 24 -14 50 -23 57 -13 11 -14 10 -4 -7 10 -19 7 -21 -29 -22 -23 -1
-37 2 -34 8 4 5 15 9 25 9 13 0 17 5 14 15 -4 9 0 15 10 15 9 0 16 7 16 15 0
8 10 24 22 35 18 16 20 23 10 29 -8 5 -13 11 -13 15 3 24 -2 34 -25 45 -21 9
-25 16 -20 36 3 14 9 36 12 50 5 20 0 28 -30 46 -20 11 -33 25 -30 30 9 15
-23 21 -46 9 -16 -9 -25 -9 -36 0 -18 16 -64 4 -64 -15 0 -8 5 -15 10 -15 6 0
10 -4 10 -10 0 -12 -32 0 -45 17 -8 11 -13 9 -23 -8 -13 -20 -12 -21 7 -16 12
3 24 1 27 -4 3 -5 10 -7 15 -4 5 4 9 0 9 -7 0 -9 3 -9 10 2 6 9 10 11 10 3 0
-7 7 -10 16 -6 14 5 15 3 4 -17 -10 -18 -9 -21 2 -18 7 3 12 15 12 26 -2 25 0
26 26 12 11 -6 21 -6 24 -1 3 5 -1 11 -9 15 -17 6 -21 36 -5 36 6 0 10 -8 10
-17 0 -16 2 -16 11 -3 9 12 10 12 5 -4 -5 -15 -2 -18 19 -14 15 3 22 1 18 -5
-4 -6 0 -8 11 -4 14 6 15 3 6 -13 -9 -16 -8 -20 5 -20 9 0 13 -5 10 -10 -8
-13 -36 6 -32 22 3 17 -40 19 -53 3 -10 -12 -10 -15 0 -15 14 0 3 -81 -12 -91
-6 -4 0 -13 12 -22 22 -15 13 -31 -12 -22 -14 6 -21 75 -7 75 5 0 6 6 3 13 -8
22 -49 14 -48 -10 1 -11 -5 -20 -12 -20 -7 0 -12 9 -11 19 1 10 4 18 7 18 4 0
5 13 2 29 -2 18 -9 28 -18 27 -8 -1 -14 -5 -14 -9 0 -4 0 -12 0 -18 0 -5 4 -8
9 -4 6 3 8 -6 5 -22 -6 -32 -15 -43 -21 -27 -2 7 -12 11 -21 9 -11 -1 -12 0
-2 3 10 3 5 9 -15 18 -17 8 -22 12 -13 10 23 -7 41 17 25 33 -9 10 -8 11 6 6
10 -5 17 -2 17 6 0 7 -3 10 -6 6 -3 -3 -22 0 -42 7 -37 12 -108 13 -211 3 -29
-3 -55 -8 -57 -10 -2 -2 -6 -19 -9 -38 -3 -19 -3 -28 1 -21 3 6 10 9 15 6 6
-3 19 2 29 11 10 9 24 14 29 10 14 -8 14 -45 0 -45 -5 0 -8 4 -4 9 3 5 1 12
-5 16 -5 3 -10 1 -10 -4 0 -6 -7 -11 -15 -11 -8 0 -15 -4 -15 -9 0 -5 8 -7 18
-5 9 2 22 1 29 -3 13 -10 21 -38 11 -41 -5 -1 -7 -1 -5 1 1 2 -6 12 -16 21
-22 22 -36 13 -16 -10 11 -13 11 -15 -2 -14 -27 4 -49 0 -49 -9 0 -5 16 -7 35
-4 21 3 35 0 35 -6 0 -6 -11 -12 -25 -12 -14 -1 -31 -2 -37 -3 -7 -1 -16 5
-21 14 -5 10 -6 8 -3 -8 2 -12 0 -20 -5 -16 -5 3 -9 0 -9 -5 0 -6 5 -11 10
-11 6 0 9 -3 9 -7 -3 -19 2 -23 19 -14 11 6 24 6 32 1 9 -6 17 -5 22 3 5 8 8
6 8 -6 0 -14 -5 -17 -20 -12 -11 3 -20 2 -20 -3 0 -6 20 -9 45 -9 34 2 45 -2
45 -13 1 -12 3 -11 11 3 6 9 16 15 22 11 7 -3 3 2 -7 10 -11 9 -21 26 -23 38
-2 20 -1 20 13 -5 8 -15 20 -25 26 -21 7 4 6 9 -2 14 -8 5 -7 9 5 13 9 4 13 3
10 -3 -3 -6 -1 -10 4 -10 6 0 11 7 11 15 0 8 6 15 14 15 19 0 30 -17 14 -22
-6 -2 -13 -13 -14 -24 -2 -10 -4 -26 -6 -34 -2 -8 1 -17 6 -20 5 -3 10 3 12
13 3 23 12 33 21 23 4 -4 1 -11 -7 -16 -13 -8 -12 -10 2 -10 11 0 15 -5 12
-15 -9 -23 -40 -18 -61 10 -17 24 -20 24 -40 10 -12 -8 -20 -23 -18 -32 2 -10
4 -20 4 -22 1 -3 7 3 14 14 14 18 37 14 37 -8 0 -8 -3 -8 -11 0 -8 8 -16 6
-31 -9 -16 -16 -17 -22 -6 -36 8 -9 8 -13 1 -9 -6 4 -14 2 -16 -3 -3 -6 -4 -5
-3 2 2 7 -1 21 -6 31 -6 11 -5 17 2 17 7 0 8 5 3 13 -4 6 -6 20 -4 30 2 15 -1
17 -15 9 -11 -6 -25 -5 -42 4 -18 9 -30 10 -38 3 -8 -7 -14 -6 -19 1 -4 7 -18
10 -31 7 -14 -2 -31 3 -44 15 -12 11 -24 17 -28 13 -4 -4 7 -18 23 -31 17 -13
26 -24 21 -24 -5 0 -3 -7 4 -15 9 -11 9 -15 1 -15 -7 0 -9 -5 -6 -10 4 -6 1
-9 -5 -8 -7 2 -13 -11 -15 -29 -1 -18 1 -30 5 -28 12 7 23 -13 27 -47 3 -29
-15 -45 -39 -35 -26 9 -33 7 -34 -12 -1 -17 2 -19 18 -10 40 21 63 -8 32 -42
-16 -17 -44 -16 -44 3 0 5 5 6 10 3 6 -4 10 -3 9 2 -3 19 2 25 14 14 10 -8 14
-7 14 3 0 16 -19 15 -39 -2 -22 -18 -39 4 -27 37 l9 26 -20 -25 c-11 -14 -20
-32 -20 -40 0 -12 2 -12 9 -1 7 11 10 11 17 0 4 -7 3 -14 -4 -17 -7 -2 -12 -8
-12 -14 0 -6 7 -7 15 -4 9 3 18 -1 22 -10 5 -13 7 -13 14 -2 6 9 9 6 9 -10 0
-13 -4 -21 -9 -17 -12 7 -18 -19 -17 -70 1 -35 4 -40 23 -37 26 4 37 -12 24
-35 -8 -15 -11 -15 -12 -3 -1 8 -1 20 1 25 1 6 -3 5 -10 -1 -6 -7 -8 -22 -4
-39 5 -20 9 -23 15 -13 5 7 9 9 10 3 0 -5 5 1 9 15 7 22 8 23 9 4 1 -25 -23
-49 -39 -39 -5 3 -13 -1 -16 -9 -5 -12 -9 -13 -19 -3 -7 6 -11 17 -8 23 2 7 0
15 -6 19 -7 4 -11 -3 -11 -17 0 -17 -3 -20 -9 -9 -6 9 -5 23 2 38 11 25 22 29
33 11 4 -7 3 -8 -4 -4 -8 5 -10 2 -6 -8 3 -9 10 -13 15 -10 15 9 10 41 -7 48
-8 3 -12 10 -9 16 3 5 8 18 10 29 3 14 -1 18 -16 14 -13 -4 -19 0 -19 11 0 9
7 16 16 16 11 0 14 6 9 21 -5 15 -4 19 4 15 6 -4 11 -1 11 8 0 9 -6 13 -13 10
-17 -6 -51 31 -42 46 4 6 2 17 -4 24 -8 9 -3 17 19 30 29 17 29 18 13 43 -16
24 -16 26 0 38 15 11 15 14 3 18 -8 3 -17 1 -20 -6 -2 -7 -3 3 -2 21 2 17 -1
32 -7 32 -5 0 -3 8 6 18 10 10 14 21 11 25 -3 3 1 4 10 3 9 -1 22 -8 28 -14 9
-9 8 -16 -7 -30 -14 -12 -16 -13 -7 -1 13 18 7 30 -12 23 -8 -3 -11 -15 -8
-29 3 -20 8 -23 22 -15 13 7 20 6 24 -3 3 -6 3 -1 -1 13 -5 23 -5 24 12 10 15
-12 17 -12 10 -1 -6 11 -4 13 8 8 20 -8 21 2 3 25 -7 10 -17 14 -21 10 -5 -4
-4 -1 0 7 6 11 4 13 -7 8 -23 -8 -30 3 -12 20 8 8 12 19 9 24 -12 18 15 9 37
-13 l21 -21 -5 21 c-4 12 -2 22 4 22 6 0 8 -12 5 -26 -2 -14 -1 -22 4 -17 16
16 18 73 2 73 -8 0 -11 -4 -8 -10 3 -5 2 -10 -2 -10 -5 0 -9 16 -9 35 0 40 12
46 26 13 7 -19 9 -19 9 -5 1 10 6 15 11 12 6 -3 10 -3 10 2 0 12 -50 32 -66
26 -10 -4 -11 -10 -3 -24 6 -13 6 -19 0 -19 -6 0 -13 11 -17 25 -3 14 -10 25
-14 25 -12 0 -19 39 -8 42 7 3 7 11 -1 25 -14 28 -14 66 1 81 13 13 8 15 -38
12 -18 -1 -35 3 -39 9 -4 7 -40 11 -91 10 -53 -1 -89 2 -96 9 -7 7 -30 12 -52
12 -23 0 -50 7 -60 15 -21 16 -23 16 -46 8z m45 -18 c6 0 11 -12 13 -27 2 -16
-1 -28 -7 -28 -6 0 -7 8 -4 17 6 14 3 14 -20 -3 -15 -10 -29 -26 -32 -36 -7
-19 -32 -31 -32 -15 0 7 -2 17 -3 22 -5 20 0 45 10 45 5 0 6 -8 3 -17 -6 -16
-5 -16 10 -4 13 10 14 17 7 26 -8 9 -8 15 0 20 5 3 10 -2 10 -12 0 -15 2 -15
9 -3 6 8 7 18 4 24 -4 5 -1 6 8 0 8 -5 19 -9 24 -9z m65 -40 c0 -14 5 -23 13
-21 6 1 9 1 5 -1 -5 -3 -8 -11 -8 -19 0 -8 -5 -14 -11 -14 -8 0 -8 -5 1 -15
13 -15 35 -11 25 5 -3 5 1 20 10 33 16 25 12 39 -11 30 -8 -3 -14 1 -14 11 0
19 26 22 32 4 3 -7 15 -13 29 -13 17 0 24 -6 24 -20 0 -11 -8 -21 -17 -23 -12
-2 -15 2 -12 20 5 22 5 22 -7 3 -7 -11 -14 -27 -15 -35 -2 -8 -5 -24 -8 -35
-2 -11 -5 -24 -6 -30 0 -5 -5 -2 -11 7 -6 10 -16 15 -26 11 -13 -5 -15 -2 -11
15 5 18 2 22 -17 22 -13 0 -26 -7 -29 -16 -5 -12 -1 -14 17 -9 15 4 18 3 8 -3
-11 -8 -11 -11 0 -16 8 -3 4 -4 -8 -2 -13 2 -23 0 -23 -5 0 -13 -34 -11 -48 3
-6 6 -15 8 -19 4 -5 -4 1 -15 12 -23 16 -13 16 -14 3 -10 -14 5 -17 2 -14 -16
2 -12 -1 -28 -6 -34 -7 -9 -7 -13 1 -13 6 0 11 -8 12 -17 0 -16 1 -16 8 1 7
18 8 18 14 2 5 -12 13 -15 27 -11 12 4 20 2 20 -5 0 -7 -16 -11 -45 -9 -25 2
-45 0 -45 -4 0 -4 2 -6 3 -4 2 1 11 -4 20 -12 11 -9 17 -10 17 -2 0 6 9 11 20
11 23 0 24 -6 8 -43 -13 -27 -28 -36 -28 -16 0 5 -4 7 -10 4 -5 -3 -10 -1 -10
5 0 7 7 10 15 6 9 -3 19 3 25 14 7 14 7 20 0 20 -5 0 -10 -4 -10 -10 0 -16
-36 -12 -51 6 -12 15 -15 14 -31 -6 -14 -17 -18 -19 -18 -6 0 9 5 16 11 16 5
0 7 5 3 12 -4 7 -3 8 4 4 6 -3 16 2 21 13 15 27 14 31 -6 32 -16 0 -16 1 1 8
24 9 29 38 9 45 -11 4 -13 2 -9 -9 8 -22 -2 -18 -15 6 -10 20 -9 21 10 16 11
-3 24 0 28 5 3 6 2 8 -3 5 -17 -10 -34 7 -24 23 8 12 10 12 10 1 0 -11 3 -11
15 -1 8 6 19 9 24 6 5 -4 15 2 21 11 10 16 11 16 6 1 -3 -10 -1 -20 4 -23 10
-6 11 -2 14 47 2 31 11 44 21 29 3 -6 1 -11 -4 -11 -6 0 -11 -4 -11 -9 0 -4
11 -6 25 -3 14 2 25 9 25 14 0 5 5 6 10 3 6 -3 10 -1 10 4 0 6 -5 11 -11 11
-5 0 -7 5 -4 10 3 6 1 10 -4 10 -6 0 -11 -10 -12 -22 0 -13 -3 -17 -6 -10 -3
7 -2 24 1 37 8 33 36 33 36 0z m-189 -14 c-10 -7 -9 -10 8 -16 21 -6 29 -25
11 -25 -5 0 -10 5 -10 11 0 5 -4 8 -9 5 -14 -9 -21 20 -8 33 6 6 13 8 16 5 3
-3 -1 -9 -8 -13z m367 -14 c14 -39 15 -47 5 -46 -20 3 -33 -2 -33 -14 0 -8 7
-14 15 -14 8 0 15 4 15 9 0 5 9 6 20 3 15 -5 20 -2 20 12 0 15 -2 16 -11 3 -8
-12 -9 -11 -6 5 2 11 8 19 14 18 6 -1 9 6 6 16 -3 10 0 22 6 25 6 4 9 1 5 -7
-3 -10 4 -16 23 -20 26 -5 26 -4 8 9 -18 14 -18 14 3 14 19 0 21 -5 18 -32 -2
-18 1 -39 7 -46 7 -9 5 -18 -8 -30 -13 -13 -19 -14 -22 -4 -3 6 -9 10 -14 6
-5 -3 -9 0 -9 7 0 7 10 9 25 7 13 -3 22 -1 19 3 -3 5 -12 9 -20 9 -8 0 -14 6
-15 13 0 6 -5 2 -11 -10 -8 -16 -18 -21 -42 -19 -40 4 -50 -2 -35 -20 6 -8 8
-14 4 -14 -4 0 5 -17 21 -37 15 -21 24 -35 19 -31 -4 4 -14 3 -20 -2 -9 -8
-14 -6 -19 5 -3 9 -11 13 -17 9 -8 -4 -7 -9 2 -15 18 -11 8 -19 -17 -13 -27 7
-49 43 -35 57 8 8 11 8 12 -1 3 -25 4 -30 9 -35 3 -3 11 1 18 9 11 12 10 14
-3 14 -17 0 -20 16 -5 25 6 3 10 1 10 -5 0 -6 5 -8 11 -4 7 4 7 10 1 16 -6 6
-16 7 -24 2 -19 -12 -38 -14 -38 -3 0 6 -4 8 -9 4 -5 -3 -13 0 -17 6 -4 8 -3
9 4 5 8 -5 10 3 7 26 l-5 33 11 -30 c15 -39 14 -38 40 -30 17 6 19 9 8 16 -11
7 -10 9 4 9 10 0 15 5 12 10 -4 6 -9 23 -11 38 -4 22 -3 25 7 15 17 -17 29
-16 29 2 0 8 -6 12 -12 10 -18 -6 -52 21 -43 34 3 6 16 11 29 11 16 0 25 -9
34 -33z m26 17 c9 -23 7 -36 -3 -30 -12 8 -21 46 -11 46 4 0 11 -7 14 -16z
m-418 -30 c-3 -8 -2 -13 2 -12 15 4 52 -14 52 -25 0 -8 -3 -8 -12 1 -16 16
-45 15 -51 0 -3 -7 -6 4 -6 25 -1 25 3 36 10 32 6 -4 8 -13 5 -21z m1062 -4
l14 -25 -19 24 c-13 15 -26 22 -37 18 -9 -4 -16 -2 -16 4 0 20 43 4 58 -21z
m-1097 -17 c-12 -20 -14 -14 -5 12 4 9 9 14 11 11 3 -2 0 -13 -6 -23z m370 15
c0 -7 2 -22 3 -34 2 -14 -4 -20 -18 -22 -16 -1 -17 1 -6 8 11 7 8 10 -13 15
-15 4 -27 11 -27 16 0 14 38 11 44 -3 3 -7 3 -3 0 10 -3 12 -1 22 5 22 6 0 11
-6 12 -12z m709 -3 c0 -8 -7 -15 -15 -15 -9 0 -12 6 -9 15 4 8 10 15 15 15 5
0 9 -7 9 -15z m-224 -34 c-8 -7 -19 -10 -25 -7 -18 12 -12 21 14 21 20 0 22
-2 11 -14z m-799 -13 c-3 -8 -6 -5 -6 6 -1 11 2 17 5 13 3 -3 4 -12 1 -19z
m684 9 c-1 -12 -15 -9 -19 4 -3 6 1 10 8 8 6 -3 11 -8 11 -12z m69 -2 c11 -13
10 -14 -2 -10 -9 4 -15 0 -15 -10 0 -9 6 -14 12 -11 9 3 12 -6 10 -27 -2 -20
4 -36 17 -46 18 -15 18 -16 -7 -28 -24 -11 -25 -10 -25 25 0 29 -3 34 -11 22
-8 -11 -9 -8 -4 13 3 17 1 35 -6 43 -6 8 -8 14 -3 14 5 0 2 5 -6 11 -13 9 -12
10 3 5 9 -3 17 -1 17 4 0 14 6 12 20 -5z m164 -6 c12 -10 8 -14 -21 -23 -19
-6 -23 -3 -23 13 0 11 -8 22 -17 24 -10 2 -2 2 17 0 19 -3 39 -9 44 -14z
m-964 -34 c-13 -16 -3 -20 18 -7 8 5 10 16 5 28 -7 18 -6 18 12 1 15 -16 16
-20 4 -28 -8 -5 -18 -9 -22 -9 -5 0 -5 -5 -1 -11 4 -8 0 -8 -15 0 -22 12 -25
20 -15 46 5 11 10 13 17 6 7 -7 6 -15 -3 -26z m297 13 c-3 -8 -6 -5 -6 6 -1
11 2 17 5 13 3 -3 4 -12 1 -19z m413 14 c0 -13 -12 -22 -22 -16 -10 6 -1 24
13 24 5 0 9 -4 9 -8z m200 -9 c0 -7 10 -18 22 -24 22 -12 22 -12 3 -20 -11 -4
-14 -8 -7 -8 6 -1 12 -5 12 -11 0 -5 -7 -7 -16 -3 -9 3 -14 13 -11 24 3 11 1
22 -4 25 -9 5 -13 -9 -10 -35 2 -7 -3 -10 -9 -6 -6 4 -9 14 -6 22 4 9 1 12 -7
8 -6 -4 -4 0 5 8 22 17 12 30 -13 17 -9 -6 -25 -7 -35 -3 -16 6 -16 7 2 14 29
11 74 7 74 -8z m-938 -18 c4 -20 3 -23 -8 -14 -8 6 -14 7 -14 2 0 -17 -46 -33
-59 -20 -17 17 -13 27 12 27 13 0 32 7 43 15 10 8 20 15 20 15 1 0 4 -11 6
-25z m481 -2 c-7 -3 -9 -11 -6 -20 4 -10 2 -14 -7 -11 -7 2 -14 12 -16 21 -1
9 2 15 7 11 5 -3 9 0 9 6 0 6 5 8 12 4 9 -6 9 -9 1 -11z m721 -6 c-1 -9 2 -14
7 -11 5 3 9 1 9 -5 0 -5 -8 -11 -17 -14 -14 -3 -11 -6 10 -11 29 -9 37 -23 12
-23 -8 0 -15 4 -15 8 0 4 -12 12 -27 17 -18 7 -22 11 -10 11 20 1 24 36 5 45
-7 3 -4 4 7 3 12 -2 19 -10 19 -20z m-990 -2 c-6 -16 -24 -21 -24 -7 0 11 11
22 21 22 5 0 6 -7 3 -15z m31 -11 c-23 -17 -32 -10 -15 11 7 8 17 12 23 8 6
-4 3 -11 -8 -19z m278 12 c7 3 3 -2 -7 -10 -11 -9 -14 -16 -8 -16 7 0 12 -5
12 -11 0 -6 -7 -9 -15 -5 -8 3 -15 1 -15 -5 0 -6 -5 -7 -12 -3 -9 6 -9 9 0 12
7 2 12 12 12 21 0 21 13 37 18 22 2 -6 9 -9 15 -5z m367 -6 c16 -16 18 -25 10
-40 -8 -16 -8 -20 4 -20 10 0 13 -6 10 -15 -4 -8 -17 -15 -30 -15 -13 0 -24
-4 -24 -10 0 -5 -4 -10 -10 -10 -5 0 -10 7 -10 15 0 8 3 14 8 14 4 -1 16 -1
26 0 18 1 18 2 3 19 -22 24 -21 38 1 52 15 10 15 11 0 6 -9 -3 -19 -2 -21 2
-2 4 -2 1 -1 -5 2 -7 -1 -13 -6 -13 -11 0 -13 23 -3 33 11 11 22 8 43 -13z
m-690 -25 c5 3 10 1 10 -5 0 -7 -7 -9 -16 -6 -9 3 -18 6 -20 6 -2 0 -4 10 -3
23 l0 22 10 -23 c5 -13 13 -20 19 -17z m109 10 c-8 -7 -27 -17 -44 -21 -28 -6
-29 -5 -14 10 9 9 25 18 37 19 12 1 22 6 22 11 0 5 3 6 7 2 4 -3 0 -13 -8 -21z
m261 10 c0 -8 0 -18 1 -22 0 -4 -5 -9 -12 -12 -6 -2 -9 1 -5 7 3 6 1 12 -6 14
-6 2 -8 10 -4 16 10 17 26 15 26 -3z m610 5 c0 -5 -5 -10 -11 -10 -5 0 -7 5
-4 10 3 6 8 10 11 10 2 0 4 -4 4 -10z m-1109 -27 c-8 -15 -10 -15 -11 -2 0 17
10 32 18 25 2 -3 -1 -13 -7 -23z m-51 7 c5 0 14 -10 21 -21 8 -17 8 -20 -1
-14 -9 5 -10 1 -5 -15 7 -21 5 -22 -29 -18 -20 2 -37 -1 -39 -7 -3 -5 -8 -6
-13 -2 -5 4 -4 11 1 15 15 11 16 30 1 35 -7 3 -13 0 -13 -6 1 -33 -4 -47 -18
-47 -8 0 -15 6 -15 13 0 21 31 59 45 53 7 -2 16 2 19 11 4 9 13 13 22 9 9 -3
20 -6 24 -6z m137 -12 c-3 -8 -6 -5 -6 6 -1 11 2 17 5 13 3 -3 4 -12 1 -19z
m-237 -2 c0 -8 -12 -21 -27 -28 -14 -7 -28 -19 -29 -26 -2 -8 0 -8 3 -1 4 8 8
7 15 -2 8 -11 9 -10 4 4 -3 9 -1 17 4 17 24 0 7 -31 -25 -46 -34 -16 -50 -32
-20 -20 17 6 19 -2 5 -24 -11 -18 -16 -13 -25 23 -6 21 -4 27 9 27 9 0 15 4
14 9 -4 15 35 70 52 75 8 2 16 4 18 5 1 0 2 -6 2 -13z m320 -23 c0 -11 -6 -14
-22 -10 -12 4 -28 1 -35 -5 -10 -8 -13 -5 -13 13 0 13 4 20 8 14 11 -16 42
-14 42 2 0 8 5 11 10 8 6 -3 10 -13 10 -22z m80 2 c-7 -8 -10 -15 -6 -15 3 0
9 0 14 0 4 0 8 5 8 10 4 31 6 33 13 15 6 -13 4 -23 -5 -28 -10 -6 -11 -15 -4
-35 9 -24 9 -25 -4 -9 -13 16 -14 16 -20 -5 -5 -15 -9 -19 -13 -10 -3 8 0 19
6 25 14 14 14 27 1 27 -5 0 -10 -7 -10 -15 0 -8 -4 -15 -9 -15 -5 0 -8 -8 -7
-17 0 -10 -7 -18 -19 -20 -12 -1 -14 0 -4 3 12 4 15 15 13 40 -3 49 -14 56
-14 11 0 -20 -4 -37 -8 -37 -5 0 -8 10 -6 23 1 12 3 30 3 39 1 10 9 16 20 15
13 -1 17 -7 14 -22 -4 -19 -4 -20 11 -1 8 10 13 22 11 27 -3 4 1 9 7 12 19 6
22 -1 8 -18z m252 10 c10 0 18 -4 18 -10 0 -5 -6 -10 -12 -10 -7 0 -16 -4 -19
-9 -9 -11 -31 3 -24 15 3 5 -1 6 -9 3 -9 -3 -13 -10 -11 -15 3 -5 -1 -21 -9
-37 -8 -16 -12 -33 -8 -37 4 -5 2 -5 -5 -1 -6 3 -14 2 -17 -3 -6 -8 21 -26 35
-23 4 1 5 -8 2 -18 -9 -33 -30 -21 -24 13 1 9 -13 9 -22 0 -4 -3 -2 -12 4 -20
9 -10 6 -13 -12 -13 -13 0 -30 4 -38 9 -8 5 -24 6 -37 1 -15 -6 -24 -5 -27 3
-2 7 -8 8 -13 4 -5 -4 -2 -12 5 -16 7 -5 10 -14 7 -20 -11 -18 -21 -5 -24 29
-2 19 1 29 8 25 5 -3 10 -1 10 4 0 11 -13 15 -39 12 -11 -2 -11 0 0 12 13 13
49 12 47 -2 -3 -30 4 -37 37 -33 21 3 35 0 35 -7 0 -6 7 -11 17 -11 15 0 15 2
-1 19 -12 13 -26 18 -47 14 -29 -4 -39 9 -17 23 6 4 8 3 4 -4 -4 -7 1 -10 14
-9 11 1 20 8 20 17 0 13 1 13 10 0 8 -13 10 -12 10 3 0 11 -9 21 -20 24 -11 3
-20 9 -20 14 0 5 12 4 26 -1 33 -13 34 -13 34 5 0 8 4 15 8 15 5 0 22 11 37
24 16 14 34 22 39 18 6 -4 19 -7 28 -7z m404 -11 c-25 -18 -40 -18 -56 1 -10
12 -9 15 8 15 11 0 22 -5 24 -12 3 -8 9 -6 19 4 7 9 16 14 19 11 3 -2 -4 -11
-14 -19z m62 5 c1 -9 -3 -16 -10 -16 -7 0 -24 -3 -38 -6 -22 -6 -22 -5 3 5 15
7 27 16 27 21 0 4 -4 5 -10 2 -5 -3 -10 -1 -10 5 0 17 34 7 38 -11z m69 -3
c-3 -7 1 -23 9 -35 9 -12 11 -21 5 -21 -6 0 -11 -9 -11 -21 0 -19 1 -19 16 -5
17 18 28 21 19 7 -11 -19 12 -20 28 -1 9 11 12 20 5 22 -6 2 -5 8 3 15 11 9
14 6 15 -12 1 -14 -5 -26 -15 -30 -13 -5 -11 -11 14 -31 25 -20 27 -26 15 -34
-11 -7 -18 -3 -27 14 -7 13 -20 26 -28 30 -9 3 -13 2 -10 -3 3 -5 0 -13 -6
-17 -8 -4 -9 -3 -5 4 4 7 2 12 -3 12 -6 0 -11 -7 -11 -15 0 -21 -27 -30 -44
-16 -12 10 -13 8 -9 -8 3 -13 1 -21 -6 -21 -7 0 -10 -4 -7 -8 2 -4 0 -14 -6
-22 -8 -12 -9 -12 -4 3 3 9 1 17 -4 17 -6 0 -10 -7 -10 -15 0 -8 -5 -15 -11
-15 -6 0 -9 6 -6 14 3 8 -1 20 -10 28 -13 10 -17 10 -20 1 -3 -7 -11 -13 -19
-13 -8 0 -14 -5 -14 -11 0 -7 -8 -18 -17 -25 -16 -12 -14 -13 15 -8 21 4 32 3
32 -5 0 -6 9 -11 21 -11 13 0 18 4 13 12 -4 6 -3 8 3 5 5 -3 8 -20 5 -37 -3
-23 -1 -29 10 -25 8 3 22 -3 31 -13 14 -16 15 -19 2 -19 -8 0 -15 3 -15 6 0 3
-13 12 -30 19 -16 8 -30 18 -30 23 0 6 5 7 10 4 6 -3 10 -1 10 4 0 6 -7 11
-15 11 -8 0 -15 -7 -15 -15 0 -9 -6 -12 -15 -9 -20 8 -19 24 1 24 8 0 12 5 9
11 -10 15 -38 7 -41 -12 -1 -11 12 -23 37 -34 21 -10 39 -22 39 -27 0 -5 4 -7
9 -4 5 3 12 -1 15 -10 3 -8 11 -12 17 -8 7 4 9 3 6 -2 -3 -6 3 -15 14 -22 16
-10 19 -9 19 4 0 8 -4 12 -10 9 -5 -3 -10 -2 -10 4 0 5 10 11 22 13 12 2 24 9
26 17 3 9 0 12 -9 9 -9 -4 -15 1 -15 12 0 11 6 15 18 12 13 -3 18 -13 16 -32
-1 -16 -6 -26 -10 -24 -7 5 -10 -3 -7 -22 0 -4 -4 -10 -9 -13 -5 -3 -12 -16
-16 -28 -6 -18 -4 -21 13 -18 14 3 21 -1 21 -12 0 -12 -3 -13 -13 -4 -8 6 -17
8 -20 4 -4 -3 1 -11 9 -18 9 -6 17 -24 17 -38 0 -15 3 -30 8 -33 8 -5 13 10
10 29 -1 5 3 6 9 2 5 -3 10 -1 10 6 0 7 3 10 6 7 3 -4 0 -16 -6 -29 -11 -19
-10 -21 5 -16 9 4 23 7 31 7 8 0 14 6 14 13 0 17 -45 42 -59 33 -6 -4 -11 -5
-11 -1 0 3 12 10 26 15 23 9 31 33 9 30 -5 -1 -12 7 -16 17 -7 16 -8 16 -8 -4
-1 -12 5 -24 12 -26 9 -4 9 -6 0 -6 -15 -1 -19 6 -27 52 -7 37 -7 38 21 31 15
-4 33 -7 40 -7 7 0 13 -7 13 -14 0 -10 -6 -12 -20 -8 -11 4 -20 2 -20 -4 0 -6
6 -10 13 -9 6 2 11 -3 9 -9 -1 -7 2 -13 8 -13 5 0 6 -9 1 -22 -6 -18 -4 -25
13 -33 24 -12 35 -47 14 -44 -33 4 -56 -2 -62 -17 -4 -12 -2 -15 9 -10 8 3 15
0 15 -6 0 -8 7 -6 17 4 15 16 17 16 31 0 13 -16 13 -16 8 2 -5 13 -2 17 9 13
8 -4 17 -2 20 3 4 6 -1 10 -9 10 -18 0 -19 6 -6 35 7 16 9 16 9 4 1 -9 8 -30
16 -45 14 -26 13 -30 -2 -42 -17 -12 -17 -14 -1 -43 10 -17 12 -27 5 -22 -6 4
-21 7 -32 6 -17 -1 -17 -1 -2 3 12 4 16 12 12 25 -4 11 -1 26 5 34 16 20 5 19
-26 -2 -22 -14 -27 -14 -35 -2 -8 13 -10 12 -13 -10 0 -5 -5 -13 -10 -18 -6
-5 -6 -2 -1 6 6 11 4 13 -8 8 -10 -3 -17 -2 -17 3 0 5 8 11 18 13 10 3 5 5
-12 6 -23 1 -26 4 -17 15 8 10 9 16 1 21 -6 4 -16 -8 -24 -27 -17 -39 -13 -46
11 -27 16 13 17 12 4 -3 -9 -12 -10 -18 -2 -19 25 -3 30 -4 35 -10 10 -10 -28
-7 -42 4 -16 13 -23 6 -13 -12 5 -8 19 -14 32 -15 13 -1 23 -7 21 -14 -1 -7 6
-12 15 -12 17 -1 17 -1 0 -11 -9 -6 -15 -14 -12 -20 4 -5 1 -9 -5 -9 -6 0 -9
-4 -6 -9 4 -5 0 -12 -6 -15 -7 -3 3 -5 23 -3 28 2 36 -1 34 -13 -1 -8 4 -24
12 -36 14 -22 9 -34 -15 -34 -10 0 -12 7 -9 23 10 36 -6 51 -44 43 -24 -4 -30
-3 -19 4 11 7 12 10 2 10 -10 0 -10 4 2 16 18 18 21 34 6 34 -5 0 -11 -8 -11
-17 -1 -16 -2 -16 -6 -1 -3 11 -12 15 -29 12 -28 -5 -31 8 -7 27 10 8 14 9 10
2 -4 -6 -3 -14 2 -17 12 -8 21 17 12 32 -4 7 -12 8 -21 2 -22 -14 -30 -12 -31
8 0 10 -3 12 -6 5 -8 -22 -19 -14 -18 14 0 22 -7 31 -35 44 -19 9 -39 14 -44
11 -5 -3 -6 1 -1 8 5 8 4 11 -3 6 -6 -3 -13 -2 -17 4 -3 5 0 10 8 10 11 0 13
7 10 21 -6 21 -7 21 -20 -5 -7 -14 -17 -26 -21 -26 -13 0 -34 17 -32 26 1 5
-3 10 -10 12 -6 2 -10 0 -9 -5 6 -33 -2 -43 -28 -37 -25 7 -27 6 -15 -9 16
-18 8 -37 -14 -37 -11 0 -13 6 -8 23 4 12 7 28 7 34 0 8 10 11 26 8 18 -3 16
-1 -6 7 -18 6 -33 15 -33 20 0 5 -4 6 -10 3 -5 -3 -17 -2 -27 3 -12 7 -24 5
-41 -6 -23 -15 -26 -15 -43 6 -13 17 -18 19 -21 7 -2 -9 -8 -12 -17 -6 -9 6
-11 14 -4 26 10 17 12 16 32 -4 25 -25 37 -27 45 -5 5 14 4 15 -8 5 -11 -9
-15 -8 -20 4 -4 13 -1 16 17 13 12 -2 21 -9 19 -16 -3 -15 14 -16 24 -1 4 8 9
8 17 0 14 -14 37 -14 37 -1 0 5 -6 8 -12 6 -7 -1 -9 -1 -4 2 4 2 2 8 -5 13
-12 7 -12 9 0 9 11 0 11 3 1 15 -15 19 -31 10 -23 -13 4 -13 2 -13 -10 3 -9
11 -17 15 -17 8 0 -15 -30 -18 -30 -3 0 6 7 10 16 10 8 0 12 4 9 10 -3 5 0 7
8 4 10 -3 16 4 20 23 6 34 3 38 -20 28 -10 -5 -22 -7 -27 -6 -5 1 -4 -5 4 -13
10 -13 10 -16 -4 -16 -12 0 -15 8 -13 32 3 33 27 53 27 21 0 -11 3 -14 8 -7 4
6 21 14 37 16 17 3 24 3 18 1 -15 -5 -18 -43 -4 -43 16 0 22 18 9 23 -7 3 -3
4 9 4 17 -1 19 -4 11 -14 -10 -13 1 -17 39 -16 7 1 11 -3 8 -7 -3 -5 0 -10 6
-12 5 -2 7 -11 4 -21 -4 -9 -11 -15 -15 -12 -5 3 -11 1 -15 -5 -9 -15 -25 -12
-25 5 0 9 10 15 23 16 17 1 18 2 4 6 -9 2 -15 9 -12 14 4 5 1 9 -4 9 -6 0 -11
-4 -11 -10 0 -5 -4 -10 -10 -10 -5 0 -7 7 -4 15 4 11 2 13 -9 9 -9 -3 -13 -13
-10 -25 3 -10 9 -16 14 -13 5 3 9 -6 9 -20 0 -26 14 -35 25 -16 3 6 12 10 18
10 7 0 4 -7 -6 -14 -10 -8 -14 -16 -10 -18 4 -3 2 -3 -4 -2 -7 2 -13 -1 -13
-6 0 -10 14 -14 39 -11 8 2 10 -2 5 -11 -6 -10 -5 -10 9 0 9 8 21 11 26 8 5
-4 12 -2 15 3 4 5 -2 11 -11 14 -10 2 5 3 32 3 l50 -2 3 -37 c2 -26 8 -37 19
-37 13 0 13 3 3 15 -11 13 -9 19 8 35 12 11 26 20 32 20 5 0 10 4 10 9 0 6 -9
9 -20 8 -11 -1 -20 -7 -20 -14 0 -17 -15 -16 -30 2 -10 12 -10 16 1 19 41 13
43 14 22 15 -13 1 -23 6 -23 12 0 5 -4 7 -10 4 -13 -8 -13 38 0 51 7 7 6 11
-4 11 -8 0 -13 -4 -10 -8 2 -4 0 -10 -6 -14 -6 -3 -13 1 -17 10 -3 10 0 21 8
26 20 13 26 11 50 -13 12 -13 19 -18 15 -11 -3 6 -1 15 6 19 9 6 5 10 -11 14
-25 6 -42 30 -21 30 6 0 8 -4 5 -10 -3 -5 4 -10 16 -10 17 0 19 3 10 14 -12
15 -54 30 -46 16 2 -4 -5 -16 -16 -25 -19 -18 -20 -18 -37 -1 -16 16 -16 17 9
11 20 -5 26 -3 26 10 0 12 -7 15 -26 11 -22 -5 -24 -4 -11 6 16 13 22 88 8 88
-5 0 -8 -7 -8 -15 0 -8 -9 -15 -20 -15 -20 0 -20 -1 -5 -30 14 -27 14 -30 0
-30 -14 0 -16 5 -18 48 -1 9 -5 20 -10 23 -17 12 54 39 73 29 15 -8 19 -5 24
16 4 16 12 24 24 22 13 -2 16 3 14 25 -3 19 1 27 12 27 10 0 16 9 16 25 0 14
-5 25 -11 25 -5 0 -7 -5 -3 -12 4 -6 3 -8 -4 -5 -14 9 -43 -3 -36 -14 3 -5 0
-9 -6 -9 -6 0 -8 -5 -5 -10 4 -6 11 -8 16 -5 5 4 9 -3 9 -14 0 -12 -4 -21 -10
-21 -5 0 -10 7 -10 15 0 7 -7 18 -16 23 -15 8 -15 12 2 38 11 15 14 25 7 21
-6 -4 -14 -3 -18 3 -7 11 18 14 29 3 3 -4 21 -7 39 -7 26 -1 32 -5 33 -24 1
-12 -3 -25 -8 -28 -4 -3 -5 -10 -2 -16 4 -6 9 -6 13 -1 3 6 20 13 36 17 17 4
26 3 20 -1 -17 -14 -15 -31 5 -36 15 -4 17 0 13 17 -6 25 -6 38 -3 51 5 21 -1
35 -15 35 -8 0 -15 5 -15 11 0 5 4 8 9 5 5 -3 11 1 15 9 3 8 8 15 12 15 3 0 4
-6 1 -14z m73 4 c0 -5 -2 -10 -4 -10 -3 0 -8 5 -11 10 -3 6 -1 10 4 10 6 0 11
-4 11 -10z m-1104 -20 c0 -11 -5 -20 -11 -20 -9 0 -10 5 -6 30 2 19 18 10 17
-10z m537 -7 c4 -3 1 -13 -6 -21 -9 -13 -9 -14 1 -8 6 4 12 2 12 -4 0 -6 -10
-8 -27 -4 -44 10 -47 16 -22 30 28 15 33 16 42 7z m637 -2 c0 -5 -9 -7 -20 -4
-11 3 -20 7 -20 9 0 2 9 4 20 4 11 0 20 -4 20 -9z m-1013 -28 c0 -54 2 -60 26
-58 32 3 41 -5 20 -20 -10 -7 -15 -16 -11 -20 3 -4 16 3 27 14 12 12 21 17 21
12 0 -6 -5 -13 -11 -17 -8 -4 -7 -9 2 -15 9 -6 1 -9 -23 -7 -43 2 -42 2 -27
30 9 16 8 19 -3 15 -7 -2 -21 2 -30 11 -16 13 -19 13 -27 -9 -5 -13 -10 -17
-10 -9 -1 25 15 43 30 34 11 -6 12 -5 2 7 -12 15 -7 59 7 59 4 0 7 -12 7 -27z
m137 21 c9 -3 14 -10 11 -15 -7 -10 -35 0 -35 12 0 11 3 11 24 3z m163 -8 c-3
-8 -1 -17 6 -20 7 -2 4 -5 -5 -5 -10 -1 -18 1 -18 3 0 10 13 36 17 36 3 0 3
-6 0 -14z m273 1 c0 -21 -12 -28 -25 -17 -9 8 -14 6 -19 -5 -7 -18 -26 -20
-26 -2 0 12 34 33 58 36 6 0 12 -5 12 -12z m285 -6 c3 -5 -2 -17 -11 -26 -12
-12 -19 -13 -30 -4 -17 14 -18 29 -3 29 5 0 7 -4 4 -10 -3 -6 1 -7 9 -4 9 3
13 10 10 15 -3 5 -1 9 5 9 5 0 12 -4 16 -9z m131 -7 c-6 -15 -4 -15 16 -2 20
13 25 13 36 2 7 -8 8 -14 3 -14 -6 0 -17 -12 -25 -27 -8 -16 -15 -22 -16 -14
0 8 7 23 17 33 9 10 11 18 5 18 -6 0 -16 -8 -21 -17 -10 -17 -12 -17 -26 1
-15 19 -12 36 7 36 5 0 7 -7 4 -16z m-1226 2 c0 -1 -5 -18 -11 -36 l-12 -33
-13 24 c-18 32 -17 42 1 35 8 -3 15 -1 15 4 0 6 5 10 10 10 6 0 10 -2 10 -4z
m65 -6 c3 -5 1 -10 -5 -10 -8 0 -8 -6 0 -21 7 -11 9 -23 6 -27 -3 -3 -6 0 -6
6 0 7 -6 11 -12 10 -7 -2 -13 3 -12 10 3 36 5 42 13 42 6 0 13 -4 16 -10z
m650 0 c3 -5 1 -10 -4 -10 -6 0 -11 5 -11 10 0 6 2 10 4 10 3 0 8 -4 11 -10z
m-766 -26 c6 -15 9 -29 6 -32 -10 -11 -40 14 -43 37 -5 30 22 27 37 -5z m454
17 c4 -1 7 -5 7 -10 0 -10 -38 -3 -45 9 -3 5 3 7 12 5 10 -2 21 -4 26 -4z
m-512 -39 c-6 -2 -9 -8 -5 -13 3 -5 -2 -9 -10 -9 -21 0 -20 16 2 38 14 15 18
15 21 3 2 -9 -2 -17 -8 -19z m134 28 c-3 -5 -10 -10 -16 -10 -5 0 -9 5 -9 10
0 6 7 10 16 10 8 0 12 -4 9 -10z m787 -5 c10 -13 0 -25 -20 -24 -11 0 -13 2
-4 6 10 4 9 9 -5 19 -17 14 -17 14 2 12 11 -2 23 -7 27 -13z m-697 -5 c8 -13
-13 -40 -31 -40 -11 0 -11 5 -2 25 12 27 23 31 33 15z m425 6 c0 -2 3 -11 6
-20 3 -9 1 -16 -5 -16 -6 0 -11 7 -11 16 0 8 -4 12 -10 9 -5 -3 -10 -1 -10 4
0 6 7 11 15 11 8 0 15 -2 15 -4z m688 -31 c-3 -3 -13 -2 -22 1 -14 5 -15 9 -4
15 13 8 36 -6 26 -16z m-1154 -19 c52 -27 66 -31 70 -19 3 8 2 12 -3 8 -5 -3
-16 -2 -25 1 -13 5 -14 9 -5 21 10 12 16 10 35 -8 17 -16 21 -26 14 -35 -8 -8
-6 -16 5 -27 8 -9 15 -21 15 -28 0 -10 -3 -10 -12 -1 -20 20 -38 14 -38 -14 0
-20 -7 -29 -31 -37 -21 -8 -29 -17 -26 -29 3 -10 -2 -23 -12 -30 -14 -12 -15
-11 -2 5 9 11 10 17 2 17 -6 0 -11 -4 -11 -10 0 -5 -7 -10 -15 -10 -23 0 -18
16 10 34 33 22 32 44 -2 48 l-28 3 23 23 c25 25 46 21 37 -9 -7 -21 10 -27 18
-6 2 6 8 9 12 4 5 -4 0 -14 -11 -22 -19 -14 -9 -21 12 -7 14 9 26 72 14 72 -6
0 -10 8 -10 18 0 14 -2 15 -10 2 -6 -9 -5 -17 2 -21 6 -4 7 -12 4 -18 -11 -17
-28 -1 -23 20 7 26 -10 34 -18 9 -5 -15 -12 -19 -26 -15 -13 4 -17 2 -14 -7 3
-7 1 -20 -5 -28 -8 -13 -11 -13 -22 -1 -7 8 -8 11 -2 8 10 -6 20 21 24 61 1
11 -64 22 -70 12 -3 -5 -16 -8 -28 -7 -24 1 -31 30 -10 43 7 5 9 2 6 -7 -4
-11 6 -14 48 -14 42 0 51 2 39 11 -17 13 -20 24 -6 24 5 0 39 -15 75 -34z
m-228 -49 c-3 -23 -5 -48 -5 -56 -1 -11 -4 -11 -16 -1 -17 14 -20 31 -4 28 6
-2 12 13 13 34 2 27 -1 35 -11 31 -7 -3 -13 2 -13 11 0 14 4 15 21 6 17 -10
20 -18 15 -53z m1321 41 c-3 -8 -6 -5 -6 6 -1 11 2 17 5 13 3 -3 4 -12 1 -19z
m-925 -2 c6 4 6 -2 -1 -14 -15 -28 -34 -39 -39 -23 -4 11 -6 11 -13 0 -6 -11
-11 -11 -21 -1 -10 10 -6 15 20 24 18 7 32 17 33 23 0 5 3 4 6 -3 2 -6 9 -9
15 -6z m443 4 c3 -6 22 -8 41 -6 19 3 34 0 34 -6 0 -5 7 -7 16 -4 8 3 12 2 9
-4 -3 -6 -1 -10 5 -10 6 0 10 -6 9 -12 -5 -41 2 -89 13 -82 6 4 8 3 5 -3 -7
-10 33 -33 58 -33 8 0 12 -6 9 -13 -3 -8 2 -20 11 -27 8 -7 15 -16 15 -21 0
-15 -32 -10 -52 8 -11 9 -18 11 -18 5 0 -7 -5 -12 -11 -12 -8 0 -8 5 1 15 7 8
16 13 20 10 5 -3 12 0 16 7 4 7 4 10 -1 6 -4 -4 -23 5 -42 19 -34 26 -36 27
-49 8 -12 -17 -14 -17 -14 -2 0 9 6 17 13 17 8 0 7 3 -3 10 -18 11 -30 -5 -23
-31 3 -12 0 -19 -8 -19 -18 0 -41 15 -41 26 1 5 -7 7 -16 6 -14 -3 -14 -2 -1
14 12 15 12 17 -1 12 -21 -8 -50 10 -50 30 1 15 2 15 16 -3 8 -11 20 -20 27
-21 33 -3 38 -5 32 -14 -3 -6 1 -13 9 -16 9 -3 13 -11 9 -17 -3 -6 -1 -7 6 -3
9 6 9 11 1 21 -8 9 -6 14 5 19 9 3 13 10 10 16 -4 6 -10 8 -15 5 -4 -3 -6 4
-3 15 7 27 -5 25 -18 -2 l-10 -23 5 23 c3 15 -1 22 -12 22 -20 0 -12 7 13 12
11 1 23 8 27 13 11 15 10 35 -3 35 -5 0 -8 -4 -5 -9 4 -5 -8 -15 -24 -23 -22
-9 -30 -18 -26 -31 4 -15 2 -16 -10 -6 -10 8 -11 16 -5 22 7 7 7 16 0 29 -15
28 10 55 26 28z m-798 -36 c-9 -9 -27 6 -27 22 0 13 2 13 16 -1 9 -9 14 -18
11 -21z m723 22 c0 -3 -4 -8 -10 -11 -5 -3 -10 -1 -10 4 0 6 5 11 10 11 6 0
10 -2 10 -4z m554 -5 c17 -6 17 -8 4 -14 -9 -3 -24 1 -35 8 -14 11 -15 14 -3
14 8 0 24 -4 34 -8z m-1344 -11 c0 -16 -23 -60 -32 -60 -4 0 -8 7 -8 15 0 8
-6 15 -12 15 -9 0 -9 3 1 9 8 5 20 7 28 4 9 -4 11 0 7 11 -3 9 -1 16 5 16 6 0
11 -4 11 -10z m190 -2 c0 -4 -7 -8 -15 -8 -8 0 -15 4 -15 8 0 5 7 9 15 9 8 0
15 -4 15 -9z m394 0 c-3 -5 -9 -6 -13 -4 -4 3 -13 -5 -20 -16 l-13 -21 36 21
c32 19 38 20 63 7 16 -8 22 -15 16 -15 -7 0 -12 -6 -10 -12 1 -8 -6 -12 -17
-10 -11 2 -26 -4 -33 -14 -9 -12 -13 -14 -13 -4 0 34 -13 -5 -16 -46 -3 -51
-12 -67 -32 -55 -13 8 -6 41 9 41 5 0 9 4 9 8 0 11 -37 9 -47 -3 -5 -4 -2 -5
5 -1 13 8 15 2 6 -31 -4 -13 -10 -23 -14 -23 -5 0 -6 8 -3 18 2 10 -5 29 -17
43 -12 13 -19 19 -16 12 7 -13 -31 -6 -40 8 -9 15 -26 10 -20 -7 3 -8 2 -12
-4 -9 -13 8 -13 -21 0 -46 12 -22 -4 -27 -17 -5 -4 7 -19 16 -33 20 l-25 7 23
-20 c24 -21 31 -41 7 -21 -8 7 -15 8 -15 2 0 -14 25 -33 33 -25 4 3 7 -1 7 -9
0 -11 -6 -14 -20 -11 -10 3 -18 10 -17 15 1 6 -4 13 -10 15 -7 3 -13 -2 -13
-11 0 -8 -5 -18 -12 -22 -6 -4 -8 -3 -4 4 3 6 2 13 -4 17 -12 8 12 35 32 35
10 0 10 3 -2 9 -8 6 -17 8 -21 5 -18 -10 -16 39 2 57 11 11 17 24 14 29 -11
17 11 18 34 1 24 -19 22 -41 -5 -41 -17 0 -19 16 -1 23 7 3 5 6 -5 6 -10 1
-18 -5 -18 -13 0 -8 -8 -17 -17 -20 -13 -5 -14 -9 -4 -19 7 -7 14 -8 19 -2 9
13 35 18 27 5 -3 -5 1 -10 9 -10 10 0 13 6 10 15 -4 8 -1 15 5 15 6 0 11 9 11
20 0 14 5 18 18 13 16 -7 16 -6 0 11 -10 9 -18 23 -18 29 0 8 3 8 9 -1 4 -8
12 -13 17 -13 5 0 9 -9 9 -22 0 -27 34 -37 36 -10 1 17 1 17 6 0 3 -12 10 -16
20 -13 9 4 21 1 29 -5 9 -7 18 -7 31 0 17 10 17 10 1 11 -10 0 -18 7 -18 15 0
8 5 15 11 15 5 0 7 -6 3 -12 -5 -8 -1 -7 10 1 17 14 17 15 -3 23 -24 9 -25 12
-9 37 6 11 20 19 29 18 10 -1 15 -5 13 -9z m695 5 c-4 -27 3 -42 16 -37 8 4
12 10 9 15 -3 5 0 9 5 9 6 0 11 -5 11 -10 0 -7 6 -7 19 0 28 14 31 13 31 -14
0 -30 -20 -47 -48 -39 -13 3 -22 1 -22 -6 0 -10 14 -15 33 -12 5 1 5 -3 2 -9
-4 -7 2 -14 14 -17 17 -4 18 -7 6 -19 -21 -21 -38 -17 -32 7 4 13 0 22 -11 26
-9 4 -20 11 -24 17 -8 12 28 35 57 36 16 0 17 2 6 9 -9 6 -22 4 -37 -5 -15
-11 -24 -12 -29 -4 -5 8 -11 8 -21 -1 -7 -6 -12 -15 -9 -19 3 -5 0 -12 -6 -16
-16 -9 -30 18 -17 33 6 7 14 11 18 8 4 -3 10 2 14 10 3 8 1 17 -5 20 -5 4 -7
11 -4 16 7 11 26 12 24 2z m-1175 -15 c-3 -4 -11 -8 -19 -8 -11 0 -13 -18 -5
-40 1 -3 2 -14 1 -25 l-1 -20 9 20 c5 11 7 23 4 28 -2 4 4 7 14 7 15 0 16 2 3
10 -11 8 -9 9 12 6 15 -3 29 1 31 7 3 9 8 8 18 -2 9 -9 9 -11 2 -7 -7 4 -13 2
-13 -4 0 -7 -6 -10 -14 -7 -12 5 -14 -2 -11 -30 4 -48 19 -60 33 -28 7 15 8
24 3 20 -5 -3 -12 -1 -16 5 -8 12 15 13 34 1 10 -7 11 -13 1 -32 -9 -20 -9
-22 2 -9 7 8 20 16 28 18 10 2 7 -4 -7 -18 -22 -20 -27 -32 -24 -57 1 -7 -3
-13 -9 -13 -5 0 -10 -5 -10 -11 0 -5 5 -7 10 -4 6 3 10 1 10 -4 0 -6 -4 -11
-10 -11 -5 0 -11 -10 -11 -22 -1 -19 -2 -19 -6 -5 -3 10 -11 16 -18 13 -20 -7
-26 4 -14 26 8 14 8 23 0 31 -20 20 -12 30 19 24 17 -4 30 -2 30 3 0 10 -20
14 -50 11 -13 -2 -13 -1 0 8 14 10 7 15 -13 12 -5 -1 -5 4 -1 11 5 9 2 9 -10
-1 -9 -8 -13 -17 -8 -20 5 -3 12 -24 15 -46 4 -22 4 -34 1 -27 -3 6 -9 10 -12
8 -4 -2 -8 8 -9 22 -2 56 -25 94 -52 85 -14 -4 -14 -3 -1 6 10 7 11 11 3 11
-7 0 -13 7 -13 15 0 20 10 19 26 -2 12 -16 12 -16 7 5 -3 12 -10 22 -17 22
-14 0 35 26 51 26 7 1 10 -3 7 -8z m360 0 c4 3 4 -1 0 -11 -5 -13 -1 -17 16
-17 19 0 20 2 10 15 -11 13 -10 14 4 9 9 -3 16 -12 16 -19 0 -7 2 -20 5 -27 4
-9 -2 -14 -16 -15 -14 -1 -19 3 -15 13 3 8 -1 14 -10 14 -8 0 -19 -10 -24 -22
-5 -14 -9 -17 -9 -7 -1 8 4 20 10 26 9 9 5 14 -15 19 -14 3 -26 9 -26 13 0 15
13 20 30 11 10 -5 20 -6 24 -2z m220 -12 c9 -13 7 -19 -6 -27 -10 -5 -14 -17
-11 -29 3 -12 0 -20 -7 -20 -7 0 -10 7 -7 14 4 11 1 13 -11 9 -10 -4 -6 5 11
22 27 28 28 30 10 43 -11 9 -12 13 -4 10 8 -2 19 -12 25 -22z m491 -5 c-8 -13
-35 -15 -35 -2 0 5 8 11 18 13 21 5 26 2 17 -11z m270 -11 c-3 -5 -1 -11 5
-15 6 -4 8 -11 4 -16 -3 -5 -10 -7 -15 -3 -5 3 -7 9 -4 14 3 4 -2 10 -10 14
-8 3 -15 12 -15 21 0 13 4 14 20 5 11 -6 18 -15 15 -20z m-45 11 c0 -6 -4 -13
-10 -16 -5 -3 -10 1 -10 9 0 9 5 16 10 16 6 0 10 -4 10 -9z m-1017 -21 c3 -11
1 -18 -4 -14 -5 3 -9 12 -9 20 0 20 7 17 13 -6z m-405 -20 c7 0 12 -11 12 -24
0 -28 16 -43 23 -24 3 7 6 3 6 -10 1 -22 2 -22 26 -6 23 15 24 15 31 -11 3
-14 4 -29 0 -32 -3 -4 -6 3 -6 15 0 19 -3 20 -25 12 -15 -6 -26 -6 -30 0 -4 6
-11 10 -17 10 -6 0 -5 -7 3 -17 11 -15 11 -16 0 -6 -7 6 -21 9 -30 6 -14 -4
-13 -2 2 10 17 14 24 33 9 23 -5 -3 -8 3 -8 12 1 9 -3 18 -9 20 -5 1 -10 -4
-10 -10 0 -7 -4 -16 -10 -20 -7 -5 -7 -8 0 -8 6 0 11 -11 11 -25 1 -14 -2 -25
-7 -25 -5 0 -9 11 -9 25 0 17 -6 25 -17 26 -17 1 -17 2 0 6 9 2 15 9 11 14 -3
5 -11 6 -17 2 -7 -4 -4 5 6 20 20 31 23 49 3 21 -8 -10 -18 -16 -22 -11 -4 4
1 14 12 21 16 13 21 13 35 0 8 -8 21 -14 27 -14z m639 -10 c-3 -12 -1 -18 5
-14 6 4 9 1 7 -5 -7 -21 -24 -13 -27 14 -2 14 2 25 9 25 6 0 9 -8 6 -20z m83
-15 c0 -5 -5 -3 -10 5 -5 8 -10 20 -10 25 0 6 5 3 10 -5 5 -8 10 -19 10 -25z
m680 25 c0 -5 -5 -10 -11 -10 -5 0 -7 5 -4 10 3 6 8 10 11 10 2 0 4 -4 4 -10z
m51 -7 c16 -16 3 -32 -21 -26 -17 5 -18 3 -7 -20 6 -14 15 -23 19 -20 5 2 5 9
2 15 -4 7 -2 8 4 4 7 -4 12 -2 12 3 0 6 5 10 11 9 6 -2 14 3 17 11 3 8 0 11
-7 7 -6 -4 -11 -2 -11 3 0 21 20 10 35 -19 9 -16 13 -30 10 -30 -3 0 -1 -8 4
-18 8 -14 6 -19 -5 -19 -11 0 -14 7 -11 23 3 19 0 22 -21 20 -13 -2 -29 -11
-35 -21 -9 -17 -11 -16 -24 6 -13 23 -14 23 -10 2 3 -13 -1 -24 -10 -27 -11
-5 -14 -1 -9 11 6 17 5 17 -8 1 -15 -21 -32 -23 -42 -6 -4 6 -3 8 3 5 12 -8
65 41 58 53 -3 5 -12 7 -20 3 -8 -3 -15 0 -15 7 0 7 8 10 20 7 18 -5 24 3 21
25 -1 10 28 3 40 -9z m-351 -3 c0 -5 -4 -10 -10 -10 -5 0 -10 5 -10 10 0 6 5
10 10 10 6 0 10 -4 10 -10z m-1035 -30 c3 -5 1 -10 -4 -10 -6 0 -11 5 -11 10
0 6 2 10 4 10 3 0 8 -4 11 -10z m664 -32 c-12 -23 -30 -23 -22 -1 6 15 5 16
-9 3 -11 -10 -13 -20 -7 -32 19 -36 6 -52 -31 -38 -3 1 -9 2 -13 1 -5 -1 -6 3
-2 9 4 6 13 9 20 8 8 -2 14 0 14 5 2 23 -1 27 -21 27 -12 0 -18 -3 -15 -6 3
-4 1 -16 -5 -27 -10 -20 -11 -20 -29 4 -10 13 -19 18 -19 12 0 -7 -5 -13 -10
-13 -6 0 -5 8 2 20 9 14 14 16 20 7 8 -13 11 -4 9 28 -1 16 1 15 10 -5 8 -19
12 -21 19 -11 4 8 15 11 24 8 11 -4 16 -1 16 12 0 26 8 30 35 18 18 -9 21 -15
14 -29z m-59 22 c0 -5 -5 -10 -11 -10 -5 0 -7 5 -4 10 3 6 8 10 11 10 2 0 4
-4 4 -10z m-190 -16 c0 -8 -4 -12 -10 -9 -5 3 -10 10 -10 16 0 5 5 9 10 9 6 0
10 -7 10 -16z m36 -51 c7 -3 11 -10 8 -17 -3 -6 2 -2 10 8 9 11 19 17 22 13 4
-4 2 -13 -5 -21 -9 -11 -9 -15 1 -19 10 -4 10 -6 1 -6 -7 -1 -22 8 -32 18 -13
13 -22 16 -29 9 -6 -6 -16 -6 -28 0 -24 12 -44 5 -37 -14 3 -8 0 -14 -6 -14
-20 0 -12 37 9 43 11 3 20 10 20 17 0 6 -4 8 -10 5 -5 -3 -10 1 -10 9 0 20 7
20 25 2 10 -10 11 -16 2 -25 -6 -6 -7 -11 -1 -11 17 0 34 23 36 50 1 19 2 17
5 -8 3 -18 11 -36 19 -39z m374 51 c0 -3 -7 -12 -15 -20 -13 -14 -15 -13 -15
5 0 12 6 21 15 21 8 0 15 -3 15 -6z m120 -9 c7 -8 9 -15 6 -15 -4 0 -14 7 -22
15 -9 8 -11 15 -6 15 5 0 15 -7 22 -15z m-1041 -45 c5 0 12 -8 16 -17 5 -14 3
-15 -6 -6 -6 6 -18 9 -27 6 -10 -4 -13 -2 -8 5 3 6 2 13 -3 17 -14 8 -32 -30
-24 -51 5 -13 3 -15 -7 -9 -10 6 -12 3 -7 -14 6 -25 -10 -71 -26 -71 -6 0 -6
5 1 13 5 6 9 29 8 49 -1 20 2 35 6 32 7 -5 13 19 9 40 -3 13 20 36 30 30 5 -3
9 1 10 8 0 7 4 3 9 -9 5 -13 14 -23 19 -23z m349 22 c6 -18 -47 -35 -64 -21
-8 6 -14 10 -15 8 0 -2 -3 -15 -5 -28 -7 -37 -12 -36 -12 2 0 32 2 34 28 32
18 -2 31 3 34 12 7 16 28 13 34 -5z m1178 -7 c9 -18 9 -25 0 -29 -7 -3 -2 -13
13 -26 26 -22 22 -41 -4 -20 -13 11 -15 9 -13 -11 3 -20 -2 -24 -30 -27 -21
-2 -30 -7 -26 -15 4 -7 -4 -1 -17 12 -18 17 -21 25 -10 28 10 4 11 7 1 13 -8
5 -9 13 -4 21 5 8 7 21 6 31 -2 9 2 19 8 23 7 5 11 0 10 -11 -4 -33 0 -45 11
-39 6 4 17 -1 24 -11 13 -17 15 -15 15 14 0 4 -4 8 -10 8 -5 1 -14 2 -20 3 -5
0 -10 8 -10 16 0 8 5 15 10 15 6 0 10 -4 10 -8 0 -5 7 -9 15 -9 22 0 18 14 -6
20 -12 3 -18 10 -14 16 11 18 29 12 41 -14z m141 -27 c2 -18 0 -20 -7 -8 -5 8
-10 11 -10 5 0 -5 -7 -2 -15 8 -7 11 -11 25 -8 33 5 13 8 13 22 0 9 -8 17 -25
18 -38z m-1557 31 c0 -5 -4 -7 -10 -4 -5 3 -10 -1 -10 -9 0 -9 -4 -16 -10 -16
-5 0 -9 -3 -9 -7 3 -20 -2 -34 -11 -28 -5 3 -7 12 -3 20 3 8 0 15 -6 15 -15 0
-14 -23 1 -38 9 -9 8 -12 -5 -12 -9 0 -17 3 -18 8 0 4 -2 15 -4 24 -2 10 1 20
6 24 5 3 6 11 2 17 -3 7 3 4 14 -6 21 -18 22 -18 33 2 11 22 30 28 30 10z
m1507 -54 c2 -16 8 -36 14 -46 14 -27 11 -30 -10 -12 -11 9 -18 20 -15 25 5 7
-10 12 -29 9 -5 -1 -6 3 -2 8 3 6 12 8 20 5 9 -4 13 1 12 15 -2 25 -14 27 -39
4 -17 -15 -18 -15 -18 1 0 9 5 14 10 11 6 -3 10 1 10 9 0 29 43 2 47 -29z
m-1498 19 c10 7 24 -5 50 -41 12 -18 27 -32 34 -30 14 3 16 -24 3 -42 -9 -12
-7 -13 8 -8 15 6 17 5 8 -6 -9 -10 -8 -14 3 -14 9 0 15 10 15 26 1 23 2 24 11
8 8 -14 14 -15 24 -7 15 12 31 -3 20 -20 -14 -22 28 -8 49 17 26 30 25 53 -2
48 -9 -2 -19 -4 -22 -4 -3 -1 2 -6 10 -11 12 -7 12 -12 2 -22 -9 -9 -15 -9
-24 0 -9 9 -9 12 1 12 11 0 11 3 0 17 -9 10 -9 14 -2 10 7 -5 16 0 22 11 8 15
6 21 -13 32 -13 7 -29 9 -35 6 -7 -5 -8 -1 -5 9 6 14 9 14 29 1 17 -11 25 -12
34 -3 10 9 12 9 9 -2 -2 -9 6 -15 22 -16 70 -4 80 -6 80 -16 0 -6 -7 -9 -15
-5 -21 8 -45 -3 -45 -20 0 -8 3 -13 8 -11 4 1 7 -2 7 -8 0 -5 -8 -8 -17 -7
-25 5 -22 -7 5 -18 22 -9 22 -9 1 -9 -23 -1 -42 -41 -20 -41 6 0 19 -9 29 -20
10 -12 23 -18 29 -14 7 5 8 3 4 -5 -5 -7 -14 -10 -22 -7 -16 6 -19 -19 -4 -29
6 -3 10 -2 10 3 0 6 8 8 18 5 25 -6 45 21 40 52 -3 13 -1 22 4 19 4 -3 16 2
25 12 16 16 16 16 -5 10 -29 -10 -28 8 1 21 16 8 27 7 39 -1 14 -10 14 -14 2
-31 -8 -11 -17 -19 -19 -17 -15 7 -24 0 -19 -15 5 -15 4 -16 -5 -3 -9 12 -11
11 -11 -7 0 -16 4 -21 15 -17 11 5 14 2 9 -12 -12 -33 -16 -37 -25 -23 -7 12
-12 12 -29 1 -11 -7 -25 -10 -30 -7 -6 4 -10 1 -10 -4 0 -6 -4 -11 -10 -11 -5
0 -9 6 -7 13 1 6 -4 11 -12 9 -7 -1 -19 3 -27 9 -11 9 -14 9 -14 0 0 -6 7 -14
15 -17 8 -4 13 -10 10 -14 -6 -10 24 -22 36 -14 5 3 9 0 9 -5 0 -6 5 -11 11
-11 6 0 9 7 5 15 -3 8 -1 15 3 15 5 0 16 2 24 5 8 4 14 0 14 -9 0 -8 -6 -12
-14 -9 -7 3 -14 1 -14 -3 -1 -5 -3 -25 -5 -44 -2 -19 -13 -42 -23 -51 -11 -9
-17 -19 -14 -23 10 -10 -17 -7 -38 5 -16 8 -18 13 -8 25 6 8 7 14 1 14 -17 0
-34 -27 -22 -35 6 -3 8 -11 4 -16 -3 -5 -10 -6 -16 -3 -7 5 -9 2 -6 -7 4 -10
-3 -14 -26 -14 -23 0 -32 5 -33 17 -1 14 4 16 26 12 30 -6 51 10 26 20 -8 3
-17 1 -20 -3 -6 -11 -45 -2 -45 11 0 5 5 6 10 3 6 -4 10 -3 9 2 -1 4 -1 18 0
31 1 33 36 25 36 -7 1 -32 17 -36 40 -11 19 21 8 29 -13 8 -8 -8 -12 -9 -12
-1 0 6 6 14 13 16 7 3 5 6 -5 6 -10 1 -18 6 -18 11 0 15 23 7 45 -15 11 -11
28 -19 38 -17 9 2 17 -2 17 -8 0 -6 -7 -10 -16 -8 -10 2 -19 -2 -21 -9 -6 -16
38 -8 49 9 11 18 10 30 -2 23 -5 -3 -10 -1 -10 4 0 6 7 11 16 11 13 0 14 3 4
15 -9 11 -15 12 -25 2 -7 -7 -11 -15 -8 -19 2 -5 -1 -8 -7 -8 -6 0 -8 10 -4
25 5 19 2 25 -9 25 -9 0 -19 -5 -23 -12 -5 -8 -1 -9 12 -4 16 6 17 5 6 -6 -11
-11 -16 -10 -27 5 -10 14 -14 15 -19 5 -3 -7 -4 -4 -3 6 1 10 -4 21 -12 24 -9
3 -11 -1 -7 -15 4 -14 1 -19 -14 -20 -14 -1 -20 5 -21 20 -2 22 -2 22 -6 -1
-4 -21 -39 -49 -50 -39 -7 7 8 78 16 73 3 -2 7 12 8 32 1 26 -1 32 -7 22 -6
-8 -10 -11 -10 -6 0 5 -6 3 -14 -3 -10 -8 -16 -9 -21 -1 -9 15 -28 1 -21 -16
3 -8 1 -14 -3 -14 -5 0 -11 -6 -14 -13 -3 -9 5 -12 29 -9 28 3 34 1 34 -14 0
-16 -2 -17 -10 -4 -8 12 -10 11 -9 -5 1 -22 16 -75 18 -62 1 11 31 -19 31 -31
0 -11 -30 -26 -44 -23 -5 1 -6 -6 -2 -15 5 -13 4 -14 -7 -6 -8 7 -17 9 -20 5
-7 -7 -8 -6 -12 45 -2 28 0 32 16 27 15 -5 19 -1 19 17 0 19 -2 20 -10 8 -9
-13 -11 -13 -20 0 -5 8 -10 20 -10 25 0 6 5 3 10 -5 6 -10 10 -11 10 -2 0 19
-4 27 -14 24 -4 -1 -17 0 -29 4 l-20 6 20 17 c36 29 37 58 1 52 -4 0 -4 7 -1
16 4 9 8 12 10 6 2 -6 13 -9 24 -6 16 4 17 8 8 20 -10 11 -9 13 2 11 21 -4 30
-21 16 -30 -9 -5 -9 -10 1 -20 9 -9 12 -8 12 5 0 13 6 16 25 13 17 -3 25 0 25
9 0 8 -8 12 -20 10 -19 -4 -42 22 -39 42 4 22 -3 33 -18 33 -14 0 -15 2 -4 9
9 6 10 11 2 15 -19 12 -26 -26 -8 -39 24 -18 21 -37 -5 -33 -14 2 -22 -2 -20
-9 3 -18 -15 -16 -22 3 -3 8 -2 12 4 9 13 -8 13 8 0 23 -6 6 -7 10 -4 7 9 -6
43 57 37 68 -2 4 -9 4 -15 1 -6 -4 -8 -2 -5 3 4 6 -2 13 -13 16 -11 3 -22 2
-24 -2 -5 -7 22 -47 29 -43 3 1 4 -1 3 -5 -2 -4 -13 -6 -25 -5 -16 2 -23 -2
-23 -12 0 -9 4 -16 9 -16 5 0 7 -9 4 -20 -6 -23 -12 -24 -33 -9 -13 9 -12 10
3 5 10 -3 17 0 17 9 0 9 -9 12 -30 10 -18 -3 -28 0 -25 5 4 6 15 10 26 10 17
0 24 11 20 33 -2 14 33 69 37 57 2 -5 7 -8 11 -6z m781 1 c0 -8 -4 -15 -10
-15 -5 0 -10 7 -10 15 0 8 5 15 10 15 6 0 10 -7 10 -15z m-251 -10 c3 -3 -1
-10 -9 -15 -13 -8 -13 -13 -2 -31 11 -18 11 -24 -2 -38 -9 -10 -13 -21 -9 -24
3 -4 -2 -7 -13 -7 -15 0 -16 -2 -4 -9 19 -13 30 -5 31 22 0 12 3 16 6 9 2 -6
9 -10 14 -7 5 3 18 1 29 -5 16 -9 25 -8 36 1 21 17 17 31 -6 19 -14 -7 -20 -7
-20 0 0 6 -10 8 -26 4 -19 -5 -25 -4 -20 5 4 6 12 8 18 5 7 -5 9 -1 5 9 -7 19
-6 20 17 11 9 -3 13 -10 10 -15 -3 -5 2 -9 10 -9 22 0 15 24 -9 32 -19 6 -19
6 2 7 14 1 28 -9 38 -26 15 -26 15 -23 -1 25 -5 14 -3 14 10 -2 20 -25 20 -40
1 -56 -18 -15 1 -50 24 -43 10 3 12 1 6 -4 -5 -4 -12 -17 -13 -28 -2 -11 -10
-31 -16 -45 -11 -23 -12 -44 -3 -92 4 -21 17 -36 17 -19 0 7 5 9 10 6 6 -3 10
-2 10 4 0 5 -6 12 -12 14 -7 3 1 6 18 6 17 1 34 -2 38 -6 13 -14 46 -9 62 8
14 15 18 16 30 4 15 -15 19 -35 6 -35 -4 0 -14 6 -20 12 -17 17 -34 -8 -27
-38 6 -25 -16 -39 -34 -21 -8 8 -6 15 5 28 15 16 14 17 -5 12 -11 -3 -19 -9
-16 -13 6 -9 -31 -20 -40 -12 -3 4 4 15 17 25 13 10 17 16 11 12 -7 -3 -13 0
-13 7 0 7 -7 2 -16 -10 -14 -20 -56 -32 -53 -14 4 25 -3 34 -11 15 -5 -13 -14
-23 -20 -23 -13 0 -9 59 4 67 5 3 6 1 2 -5 -4 -7 -1 -12 8 -12 19 0 21 14 3
29 -10 8 -17 7 -27 -2 -10 -10 -11 -9 -5 2 6 10 2 12 -14 6 -16 -5 -20 -3 -15
9 4 10 15 14 30 12 13 -3 24 0 24 5 0 6 5 7 10 4 6 -3 10 1 10 9 0 18 -16 21
-25 6 -3 -5 -12 -10 -18 -10 -7 0 -1 10 13 21 16 14 19 19 8 15 -14 -4 -18 1
-18 22 l-1 27 -14 -30 c-8 -16 -13 -21 -10 -9 4 13 0 21 -9 21 -10 0 -12 -9
-9 -30 3 -19 1 -27 -6 -22 -6 3 -11 1 -11 -4 0 -6 -9 -11 -20 -11 -12 0 -17 5
-14 14 6 17 -26 30 -40 16 -5 -5 -14 -10 -18 -10 -13 0 -9 44 6 66 23 33 0 54
-52 47 -23 -3 -39 -9 -36 -14 3 -5 0 -9 -5 -9 -6 0 -11 -5 -11 -11 0 -5 6 -7
13 -3 8 5 9 4 2 -4 -13 -14 -65 -23 -65 -11 0 5 9 9 20 9 22 0 27 16 8 23 -10
3 -10 8 1 18 8 8 11 9 7 2 -3 -6 -2 -14 4 -18 5 -3 10 -4 10 -1 0 2 3 11 6 20
4 10 1 16 -9 16 -9 0 -18 4 -21 9 -3 5 9 8 28 7 19 -1 32 2 30 6 -3 5 9 8 25
8 40 0 39 -7 -1 -23 -33 -13 -32 -14 30 -14 34 -1 62 3 62 8 0 5 -11 7 -25 3
-19 -5 -25 -2 -25 10 0 19 16 22 22 4 3 -7 7 -6 11 5 5 12 1 17 -13 17 -10 0
-22 5 -26 11 -4 7 -9 7 -13 2 -9 -14 -71 -25 -71 -13 0 6 5 10 11 10 5 0 8 4
4 9 -3 5 -1 13 5 16 6 4 10 3 9 -2 -3 -20 2 -23 22 -13 12 7 25 8 32 2 7 -5
22 -12 35 -15 21 -5 26 2 23 30 -2 12 35 10 48 -2z m1058 -2 c0 -7 -3 -11 -5
-8 -3 3 -12 -1 -21 -8 -14 -10 -14 -10 -4 4 7 9 11 18 8 21 -3 2 1 5 8 5 8 0
14 -6 14 -14z m-980 -19 c-1 -1 -14 -4 -29 -8 -22 -5 -25 -3 -21 13 4 15 8 17
28 7 13 -6 23 -11 22 -12z m432 -17 c-9 -7 -15 -19 -14 -28 2 -12 -3 -15 -16
-12 -18 5 -19 7 -4 29 8 13 15 31 15 41 0 16 1 16 18 0 15 -17 16 -19 1 -30z
m-1171 25 c13 11 15 10 10 -9 -4 -13 -2 -23 3 -23 5 0 9 6 9 13 1 8 5 7 13 -4
7 -9 18 -14 25 -12 6 3 12 0 12 -5 0 -11 -36 -23 -45 -14 -11 11 -35 10 -36
-1 -1 -19 -18 26 -18 48 1 11 3 14 6 7 4 -10 8 -10 21 0z m322 -17 c7 -9 8
-15 2 -15 -5 0 -12 7 -16 15 -3 8 -4 15 -2 15 2 0 9 -7 16 -15z m1346 -1 c-4
-9 -3 -22 1 -28 5 -7 0 -3 -9 7 -22 24 -23 37 -2 37 11 0 14 -5 10 -16z m-758
-7 c6 0 12 -4 12 -9 0 -8 -15 -12 -37 -9 -19 3 -33 -33 -28 -73 4 -27 1 -36
-10 -36 -17 0 -14 55 6 92 7 13 12 24 11 26 -9 12 1 23 16 17 9 -4 23 -8 30
-8z m219 6 c-9 -2 -15 -9 -12 -14 3 -4 0 -21 -8 -35 -18 -35 -30 -16 -14 25 8
21 18 31 32 30 17 -1 17 -2 2 -6z m-852 -23 c-3 -5 2 -13 11 -18 15 -8 15 -10
0 -15 -10 -4 -16 -1 -16 8 0 9 -6 12 -15 9 -8 -4 -15 -1 -15 5 0 6 6 10 13 9
6 -2 11 3 9 10 -1 8 2 11 8 7 6 -3 8 -10 5 -15z m-301 -19 c14 -27 14 -29 -2
-24 -10 2 -17 14 -17 29 0 31 1 30 19 -5z m1640 -10 c-4 -3 -9 0 -11 7 -3 6
-9 12 -14 12 -4 0 -6 -6 -3 -14 3 -9 -3 -17 -15 -21 -12 -4 -18 -12 -14 -21 3
-7 0 -14 -7 -14 -6 0 -8 -5 -5 -11 4 -6 13 -8 21 -5 8 3 14 1 14 -4 0 -6 -6
-10 -14 -10 -9 0 -13 -7 -11 -19 5 -27 -19 -46 -34 -27 -9 11 -8 15 5 20 11 4
14 13 11 28 -4 12 -1 29 6 37 10 12 9 14 -6 8 -10 -4 -16 -3 -12 2 3 5 -1 11
-7 14 -8 2 -9 8 -4 13 5 5 11 4 13 -3 3 -7 9 -13 14 -13 6 0 8 4 4 9 -3 5 -1
12 5 16 6 4 8 11 5 16 -3 5 1 6 9 3 9 -4 16 -1 16 6 0 9 7 7 20 -5 11 -10 17
-21 14 -24z m-1583 -26 c5 3 6 -1 3 -10 -6 -13 -10 -11 -25 11 -14 21 -15 30
-6 36 8 5 13 -1 15 -17 2 -14 8 -23 13 -20z m1619 -6 c0 -14 -16 -11 -29 5
-10 12 -8 13 8 9 12 -3 21 -9 21 -14z m-1780 2 c0 -16 -43 -121 -49 -121 -3 0
-12 4 -19 9 -19 12 7 54 28 46 12 -5 13 -4 3 6 -19 19 -16 39 7 39 13 0 18 5
14 15 -4 8 -1 15 5 15 6 0 11 -4 11 -9z m1716 -18 c-10 -10 -19 5 -10 18 6 11
8 11 12 0 2 -7 1 -15 -2 -18z m-667 3 c7 -5 23 -3 36 4 14 7 31 9 42 5 10 -5
20 -8 23 -7 3 0 7 -8 7 -20 1 -14 -3 -18 -15 -14 -13 5 -13 3 2 -9 11 -8 18
-15 15 -16 -2 0 -11 -2 -20 -4 -12 -2 -15 4 -13 21 2 26 -29 53 -41 34 -3 -5
0 -10 8 -10 7 0 14 -7 14 -15 0 -20 -13 -19 -21 1 -7 19 -22 11 -29 -15 -4
-15 0 -19 14 -16 20 4 54 -23 44 -34 -4 -3 -14 3 -22 14 -12 16 -14 16 -10 3
4 -11 0 -21 -11 -27 -15 -9 -15 -10 -1 -11 9 0 19 -9 22 -21 6 -22 28 -22 35
-1 2 7 -2 10 -12 6 -9 -4 -16 -1 -16 6 0 7 8 10 19 7 13 -3 21 1 24 14 3 11 0
19 -6 19 -6 0 -8 3 -5 6 4 3 19 -2 35 -11 24 -14 25 -16 5 -11 -19 4 -21 2
-11 -10 10 -12 10 -15 -2 -12 -8 2 -13 -3 -11 -9 1 -7 -2 -13 -7 -13 -4 0 -6
-11 -3 -25 5 -28 22 -35 17 -7 -1 9 0 11 2 4 3 -7 10 -9 16 -6 9 5 8 3 0 -6
-10 -11 -9 -16 5 -26 9 -8 12 -14 5 -14 -6 0 -14 4 -18 10 -3 5 -13 6 -22 3
-10 -4 -14 -2 -10 4 8 12 -20 26 -34 17 -5 -3 -9 -14 -9 -25 0 -13 -6 -19 -17
-17 -15 2 -19 -5 -21 -39 -4 -49 -12 -54 -29 -16 -11 22 -10 28 3 38 9 6 14
19 12 29 -1 11 4 21 12 23 13 4 13 3 0 -6 -13 -9 -13 -11 2 -11 9 0 24 10 32
21 9 13 21 19 30 16 10 -4 16 -1 16 9 0 8 -5 12 -10 9 -6 -4 -17 -1 -25 5 -8
7 -15 9 -15 4 0 -5 -7 2 -16 14 -8 12 -19 20 -24 17 -5 -3 -12 0 -16 6 -5 8
-3 9 5 5 19 -12 9 27 -10 41 -9 6 -16 27 -17 46 -1 35 15 43 47 23z m-852 -2
c-3 -3 -12 -4 -19 -1 -8 3 -5 6 6 6 11 1 17 -2 13 -5z m38 -16 c-19 -11 -19
-11 0 -19 17 -7 18 -8 3 -8 -10 -1 -18 -8 -18 -17 0 -8 -4 -13 -9 -9 -5 3 -12
2 -14 -3 -3 -4 6 -12 19 -19 14 -6 24 -7 24 -1 0 5 4 7 9 3 5 -3 12 -1 15 4 3
5 -4 11 -16 14 -12 4 -19 9 -16 12 3 4 16 1 28 -5 19 -10 20 -14 8 -26 -16
-16 -62 -28 -53 -13 4 5 1 9 -4 9 -6 0 -11 -4 -11 -10 0 -5 -5 -10 -10 -10 -6
0 -8 11 -6 24 3 15 -1 27 -9 30 -9 3 -12 0 -9 -9 4 -9 -2 -13 -20 -11 -16 2
-26 -2 -26 -10 0 -7 -3 -20 -7 -30 -5 -13 -3 -15 7 -9 9 5 11 4 6 -4 -4 -6
-12 -9 -17 -6 -5 4 -14 -5 -20 -19 -14 -30 -38 -42 -34 -18 1 9 -4 26 -11 36
-12 18 -10 22 17 38 17 10 34 16 40 13 8 -6 13 8 10 28 -1 5 3 5 9 2 12 -8 52
23 45 35 -2 4 2 7 10 7 8 0 12 -4 9 -9 -8 -13 10 -9 32 7 10 8 24 14 29 14 6
0 1 -5 -10 -11z m1543 -14 c22 5 24 4 10 -4 -10 -6 -25 -10 -34 -8 -9 2 -19
-3 -22 -11 -3 -10 1 -12 17 -8 13 3 19 1 14 -6 -4 -7 0 -8 13 -4 18 7 18 7 0
-7 -10 -9 -15 -20 -10 -27 5 -9 2 -10 -11 -5 -12 4 -22 0 -32 -14 -8 -11 -19
-17 -25 -14 -7 5 -9 2 -5 -8 6 -18 -1 -30 -14 -22 -13 8 9 44 26 44 9 0 12 6
9 15 -4 10 0 15 15 15 12 0 21 5 21 11 0 6 -7 8 -16 5 -9 -3 -20 -6 -25 -6 -5
0 -9 -7 -9 -16 0 -8 -4 -12 -10 -9 -5 3 -10 1 -10 -6 0 -7 -3 -10 -6 -7 -10
11 20 48 39 48 10 0 15 5 12 10 -4 6 -10 8 -15 5 -6 -3 -2 8 8 24 14 24 18 27
25 15 6 -11 17 -14 35 -10z m-1193 -4 c3 -5 -1 -10 -10 -10 -9 0 -13 5 -10 10
3 6 8 10 10 10 2 0 7 -4 10 -10z m82 -12 c-3 -8 -6 -5 -6 6 -1 11 2 17 5 13 3
-3 4 -12 1 -19z m655 -6 c12 2 23 -3 25 -9 3 -7 0 -13 -7 -13 -6 0 -9 -4 -5
-9 8 -14 -24 -41 -48 -41 -18 0 -19 2 -7 10 13 8 12 10 -2 10 -10 0 -18 -5
-18 -11 0 -13 -21 -8 -23 6 -1 5 18 14 43 21 25 7 38 12 29 13 -9 1 -20 8 -23
17 -3 8 -12 12 -18 9 -7 -4 -4 1 7 10 18 15 20 15 23 0 2 -10 12 -15 24 -13z
m-86 5 c8 3 14 0 14 -6 0 -6 7 -11 15 -11 8 0 15 -5 15 -11 0 -7 -9 -9 -21 -6
-12 3 -22 0 -25 -8 -8 -21 -30 -25 -30 -5 0 12 5 16 16 12 12 -5 11 0 -4 23
-10 17 -13 25 -6 18 7 -6 19 -9 26 -6z m-626 -13 c0 -8 -5 -12 -10 -9 -6 4 -8
11 -5 16 9 14 15 11 15 -7z m780 -14 c0 -5 -9 -19 -20 -30 -11 -11 -16 -20
-11 -20 6 0 13 5 17 12 5 7 10 4 15 -10 5 -13 14 -20 23 -16 18 7 27 -8 15
-26 -7 -12 -9 -11 -10 5 0 11 -3 14 -6 8 -2 -7 -9 -13 -14 -13 -6 0 -8 4 -4 9
3 5 0 13 -6 17 -9 5 -10 0 -7 -14 7 -26 1 -28 -24 -5 -20 18 -23 45 -8 74 11
20 40 27 40 9z m-1033 -15 c0 -17 -13 -20 -21 -6 -4 5 0 12 6 14 7 3 13 6 14
6 0 1 1 -6 1 -14z m1238 -9 c-15 -11 -13 -15 11 -39 15 -15 24 -30 21 -34 -4
-3 1 -11 10 -18 14 -11 14 -12 -5 -17 -16 -5 -19 -2 -14 11 5 14 4 14 -11 2
-22 -17 -22 -8 -1 14 19 18 15 25 -14 28 -14 1 -19 7 -17 19 4 20 -11 25 -18
6 -3 -8 -6 -6 -6 5 -1 9 6 17 14 17 8 0 14 3 14 8 -3 17 2 21 16 16 14 -6 14
-8 0 -18z m-891 5 c8 -12 -22 -36 -32 -26 -4 4 -1 10 7 13 11 4 11 6 0 13 -11
7 -10 9 3 9 9 0 19 -4 22 -9z m-780 -7 c19 -7 9 -34 -13 -34 -10 0 -8 -5 9
-13 14 -7 26 -21 28 -32 5 -25 22 -46 31 -40 4 2 8 -3 8 -11 0 -9 -6 -13 -14
-9 -8 3 -23 5 -34 5 -16 0 -17 4 -9 25 12 32 3 54 -20 48 -12 -3 -20 2 -25 17
l-7 21 -19 -22 -19 -22 0 21 c0 13 11 27 28 36 31 17 35 18 56 10z m841 -24
c-3 -4 10 -10 27 -14 23 -5 29 -9 21 -17 -6 -6 -9 -28 -7 -48 5 -36 5 -36 -10
-11 -10 17 -11 30 -5 42 8 14 6 20 -8 25 -10 3 -22 8 -27 11 -9 5 -7 -15 9
-93 9 -42 18 -47 12 -5 -5 31 -4 33 8 17 7 -11 12 -24 11 -30 -2 -7 -1 -9 1
-4 3 4 11 7 19 7 8 0 11 6 7 18 -5 13 -3 14 7 5 10 -9 9 -22 -5 -63 -14 -42
-21 -51 -36 -47 -22 6 -37 -12 -19 -23 9 -5 9 -9 1 -14 -11 -7 -13 -2 -16 51
0 20 3 29 10 25 7 -4 7 -1 -1 9 -5 8 -12 32 -13 54 -2 22 -7 45 -12 51 -5 6
-6 14 -2 17 3 4 0 7 -7 7 -9 0 -8 5 5 13 10 8 15 19 11 25 -5 8 -2 10 8 6 9
-3 14 -10 11 -14z m-113 -9 c-10 -6 -8 -13 7 -32 11 -13 20 -19 21 -12 0 6 -5
15 -10 18 -13 8 -3 25 13 25 7 0 6 -4 -3 -10 -11 -7 -12 -10 -2 -10 8 0 16 9
19 20 6 22 28 27 39 8 5 -8 2 -9 -9 -5 -12 4 -17 1 -17 -10 0 -9 -10 -27 -22
-40 -21 -23 -21 -23 -1 -23 16 0 20 -5 16 -19 -4 -14 -14 -18 -49 -18 -43 0
-58 10 -30 20 7 3 19 0 25 -6 16 -16 23 -3 15 27 -7 31 -39 52 -50 34 -4 -6
-3 -8 3 -5 6 4 11 -3 11 -16 0 -15 -7 -23 -19 -24 -15 -1 -17 2 -9 16 5 10 7
21 4 24 -4 3 6 17 21 32 16 14 31 23 34 20 3 -4 0 -10 -7 -14z m588 2 c8 -4
21 -5 27 -4 9 1 12 -9 9 -31 -3 -23 -9 -33 -20 -32 -9 1 -16 -1 -17 -5 0 -3
-2 -16 -5 -28 -3 -20 -1 -21 21 -13 20 8 25 6 25 -6 0 -11 -5 -14 -16 -10 -11
4 -18 -1 -21 -14 -3 -11 -10 -20 -15 -20 -6 0 -8 6 -5 13 9 25 -11 42 -44 39
-20 -3 -29 0 -25 7 4 5 13 8 21 5 24 -10 54 13 48 37 -4 12 -2 20 3 17 5 -3
15 0 21 8 10 10 10 15 1 20 -7 4 -14 2 -16 -4 -2 -7 -8 -12 -13 -12 -4 0 -6 7
-3 15 4 8 1 15 -6 15 -8 0 -10 -8 -7 -23 4 -12 2 -29 -4 -37 -8 -12 -9 -11 -7
5 2 11 -6 28 -17 38 -19 16 -19 17 -1 10 15 -5 18 -3 13 9 -5 16 13 16 53 1z
m-1270 -8 c0 -9 -6 -12 -15 -9 -8 4 -15 10 -15 15 0 5 7 9 15 9 8 0 15 -7 15
-15z m1055 5 c3 -5 -1 -10 -9 -10 -9 0 -16 5 -16 10 0 6 4 10 9 10 6 0 13 -4
16 -10z m721 -6 c-19 -19 -19 -19 -2 -37 13 -13 12 -14 -9 -14 -21 0 -23 2
-14 25 13 35 19 42 30 42 6 0 3 -7 -5 -16z m-1925 -22 c-6 -2 -9 -8 -6 -13 4
-5 -1 -6 -10 -3 -14 6 -14 8 2 26 12 14 19 16 22 7 2 -7 -1 -15 -8 -17z m1169
6 c0 -13 -23 -5 -28 10 -2 7 2 10 12 6 9 -3 16 -11 16 -16z m352 5 c23 -27 33
-47 20 -39 -7 4 -14 -3 -18 -19 -5 -19 -12 -25 -28 -23 -11 2 -20 9 -18 16 1
6 -2 12 -6 12 -5 0 -9 7 -9 15 0 8 4 15 9 15 5 0 6 5 2 11 -5 9 2 10 22 6 l29
-6 -30 14 c-25 12 -26 14 -9 15 11 0 28 -8 36 -17z m328 7 c0 -5 -4 -10 -10
-10 -5 0 0 -11 12 -25 22 -25 69 -32 94 -13 8 6 13 0 16 -17 3 -14 1 -25 -3
-25 -5 0 -9 5 -9 10 0 13 -32 9 -42 -5 -5 -6 -8 -4 -8 5 0 13 -1 13 -10 0 -6
-9 -10 -10 -10 -3 0 7 -12 11 -32 9 -18 -2 -23 -1 -10 1 27 5 29 23 3 30 -11
3 -18 12 -16 21 2 10 4 20 4 25 1 11 21 8 21 -3z m-1530 -10 c0 -5 -9 -14 -20
-20 -16 -8 -20 -8 -20 4 0 13 13 23 33 25 4 1 7 -3 7 -9z m-210 -31 c0 -4 -9
-6 -20 -4 -12 2 -28 1 -37 -2 -14 -6 -14 -7 3 -14 16 -6 16 -8 2 -8 -20 -1
-32 15 -25 33 5 14 77 10 77 -5z m897 -1 c2 -17 0 -19 -7 -8 -5 8 -6 18 -4 22
8 12 10 10 11 -14z m763 10 c0 -14 -15 -16 -27 -3 -10 11 -9 13 7 12 11 -1 20
-5 20 -9z m-857 -12 c4 -9 0 -13 -11 -12 -9 2 -18 8 -20 14 -5 17 25 15 31 -2z
m690 -12 c-6 -17 -23 -9 -23 11 0 8 6 12 14 9 8 -3 12 -12 9 -20z m-1313 6
c13 -9 13 -11 0 -20 -8 -5 -21 -8 -28 -5 -8 3 -19 5 -25 5 -6 0 -2 7 9 15 23
17 25 17 44 5z m285 -1 c11 -16 1 -19 -13 -3 -7 8 -8 14 -3 14 5 0 13 -5 16
-11z m253 -14 c-3 -3 -9 2 -12 12 -6 14 -5 15 5 6 7 -7 10 -15 7 -18z m832 21
c0 -11 -19 -15 -25 -6 -3 5 1 10 9 10 9 0 16 -2 16 -4z m-1712 -24 c6 -18 -15
-14 -22 4 -4 10 -1 14 6 12 6 -2 14 -10 16 -16z m1347 9 c3 -5 1 -12 -5 -16
-5 -3 -10 1 -10 9 0 18 6 21 15 7z m-1195 -10 c0 -6 -4 -13 -10 -16 -5 -3 -10
1 -10 9 0 9 5 16 10 16 6 0 10 -4 10 -9z m1463 3 c-7 -3 -9 -12 -6 -20 3 -8
-1 -14 -11 -14 -9 0 -16 8 -16 20 0 14 6 20 23 19 12 0 17 -3 10 -5z m61 -3
c3 -5 -1 -11 -9 -14 -9 -4 -12 -1 -8 9 6 16 10 17 17 5z m-1165 -23 c0 -13 -3
-17 -6 -10 -2 6 -9 10 -14 6 -5 -3 -14 -2 -20 2 -8 4 -7 9 2 15 24 15 39 10
38 -13z m461 6 c0 -17 -22 -14 -28 4 -2 7 3 12 12 12 9 0 16 -7 16 -16z m140
7 c0 -12 -20 -25 -27 -18 -7 7 6 27 18 27 5 0 9 -4 9 -9z m390 5 c0 -3 -4 -8
-10 -11 -5 -3 -10 -1 -10 4 0 6 5 11 10 11 6 0 10 -2 10 -4z m214 -38 c-3 -5
0 -16 7 -24 10 -12 10 -17 -1 -27 -9 -8 -11 -8 -7 -1 4 7 0 14 -8 17 -9 4 -12
1 -8 -9 3 -8 -1 -14 -11 -14 -19 0 -21 14 -3 32 7 7 12 26 12 41 -1 26 0 27
12 11 7 -9 10 -21 7 -26z m883 25 c15 -14 18 -47 3 -38 -6 4 -8 11 -4 16 3 6
-3 13 -15 16 -12 3 -21 9 -21 14 0 12 21 7 37 -8z m95 -18 c-5 -30 -21 -34
-19 -5 1 11 5 20 10 20 4 0 5 5 1 12 -4 6 -3 8 3 5 6 -4 8 -18 5 -32z m-1532
14 c0 -6 -9 -8 -22 -4 -20 5 -20 4 -6 -5 9 -6 15 -17 12 -25 -4 -11 0 -13 18
-9 12 4 31 7 40 7 10 1 14 5 9 10 -5 5 -18 4 -30 -2 -17 -10 -21 -9 -21 3 0 8
10 18 21 21 16 5 27 0 45 -21 13 -16 23 -37 24 -46 0 -12 8 -18 24 -18 22 0
24 3 19 45 -4 43 -4 45 19 36 13 -4 22 -11 21 -15 -2 -3 -3 -10 -3 -16 0 -5
-4 -10 -10 -10 -5 0 -7 8 -4 18 5 14 4 14 -4 2 -14 -19 -6 -30 22 -30 13 0 29
-7 37 -16 11 -14 13 -14 21 1 5 8 14 12 20 9 7 -5 9 2 6 18 -4 20 -1 25 11 23
9 -2 18 -4 21 -4 2 -1 -1 -6 -8 -13 -9 -9 -9 -15 1 -27 10 -12 9 -14 -5 -8
-10 3 -18 2 -18 -3 0 -6 -6 -9 -12 -7 -7 1 -14 -9 -17 -23 l-4 -25 -6 24 c-5
17 -15 25 -35 27 -15 2 -25 0 -22 -3 3 -3 1 -12 -5 -20 -13 -15 -53 -18 -44
-3 7 11 -5 13 -27 5 -8 -3 -13 -18 -12 -35 1 -17 -3 -33 -8 -36 -7 -5 -9 4 -6
25 3 21 0 31 -8 31 -9 0 -11 -6 -7 -17 7 -17 6 -17 -11 0 -9 9 -22 17 -27 17
-6 0 -7 5 -4 10 3 6 1 10 -4 10 -6 0 -11 7 -11 15 0 23 30 6 31 -19 1 -19 2
-19 6 -2 4 15 7 16 13 5 11 -17 16 -12 24 28 5 23 4 31 -6 28 -72 -16 -78 -19
-78 -36 0 -24 -9 -24 -26 -1 -18 23 -17 32 1 32 8 0 15 5 15 11 0 5 -4 7 -10
4 -11 -7 -14 28 -3 38 10 11 43 8 43 -4z m208 -14 c-1 -13 -8 -27 -15 -30 -10
-3 -11 0 -5 13 5 9 7 23 5 30 -3 6 0 12 6 12 6 0 10 -11 9 -25z m286 -16 c21
-18 17 -37 -5 -23 -7 4 -25 8 -41 9 -30 3 -45 11 -36 20 3 3 17 1 32 -5 25 -9
26 -8 21 18 -3 15 -2 20 1 12 4 -8 17 -22 28 -31z m190 29 c-3 -4 2 -8 10 -8
9 0 16 -6 16 -14 0 -26 -17 -26 -34 -1 -20 30 -20 32 -1 32 8 0 12 -4 9 -9z
m-1014 -8 c0 -5 -5 -10 -11 -10 -5 0 -7 5 -4 10 3 6 8 10 11 10 2 0 4 -4 4
-10z m1227 -5 c0 -8 -4 -15 -9 -15 -4 0 -8 7 -8 15 0 8 4 15 8 15 5 0 9 -7 9
-15z m-491 -21 c6 -12 11 -37 11 -55 -1 -19 2 -40 7 -47 4 -7 2 -12 -7 -12
-11 0 -14 10 -13 33 1 30 -1 33 -21 29 -14 -3 -23 1 -23 7 0 7 -4 10 -9 7 -11
-7 -33 18 -24 27 11 12 24 7 17 -5 -5 -9 -2 -8 9 1 15 12 19 12 31 -5 8 -10
18 -16 22 -11 4 4 2 7 -4 7 -7 0 -12 7 -12 15 0 8 -7 15 -15 15 -8 0 -15 5
-15 10 0 18 34 6 46 -16z m189 16 c-3 -5 -11 -10 -16 -10 -6 0 -7 5 -4 10 3 6
11 10 16 10 6 0 7 -4 4 -10z m215 0 c0 -5 -2 -10 -4 -10 -3 0 -8 5 -11 10 -3
6 -1 10 4 10 6 0 11 -4 11 -10z m40 -1 c0 -4 -7 -9 -15 -13 -9 -3 -15 0 -15 8
0 7 7 13 15 13 8 0 15 -4 15 -8z m437 -19 c0 -16 -4 -30 -9 -30 -5 0 -7 -4 -4
-9 3 -5 -1 -14 -8 -20 -11 -10 -17 -8 -25 6 -9 17 -11 16 -20 -7 l-10 -25 2
28 c1 18 7 27 19 27 9 0 25 14 35 30 9 17 18 30 18 30 1 0 2 -13 2 -30z m117
15 c-4 -8 -10 -12 -15 -9 -5 3 -12 -2 -15 -11 -6 -13 -8 -14 -15 -3 -5 7 -9
18 -9 23 0 6 4 4 9 -3 7 -11 9 -11 14 2 4 9 13 16 21 16 10 0 13 -6 10 -15z
m89 8 c-7 -2 -19 -2 -25 0 -7 3 -2 5 12 5 14 0 19 -2 13 -5z m67 -5 c0 -10 2
-10 9 0 9 15 20 14 37 -2 13 -12 7 -39 -7 -30 -5 3 -7 9 -4 14 3 4 -8 6 -25 4
-23 -4 -30 -1 -30 10 0 9 5 16 10 16 6 0 10 -6 10 -12z m-2100 -20 c0 -19 -2
-20 -10 -8 -8 12 -10 12 -10 1 0 -8 -3 -12 -6 -8 -9 9 3 37 16 37 5 0 10 -10
10 -22z m480 7 c0 -8 -8 -15 -17 -15 -14 0 -13 -5 9 -25 24 -22 26 -28 17 -55
-12 -33 -24 -42 -14 -10 3 11 3 25 -2 32 -4 7 -8 16 -9 21 -1 4 -2 10 -3 14 0
4 -7 -2 -15 -12 -16 -23 -12 -37 9 -28 8 3 15 0 15 -7 0 -6 -4 -9 -8 -6 -10 6
-9 -30 1 -40 4 -4 13 -1 22 6 8 7 15 10 15 7 0 -3 3 -12 6 -21 4 -11 0 -16
-12 -16 -27 1 -67 37 -61 54 3 8 1 16 -5 18 -7 3 -6 12 5 29 9 13 17 29 18 34
6 34 29 50 29 20z m293 -10 c-3 -8 -13 -15 -22 -15 -14 1 -14 2 1 14 10 7 14
17 10 21 -4 5 -2 5 5 1 7 -4 10 -13 6 -21z m374 8 c-12 -15 -13 -20 -2 -30 15
-14 57 -13 67 1 4 6 10 7 15 3 4 -5 1 -12 -7 -17 -8 -6 -12 -10 -7 -10 7 0
-15 -24 -45 -48 -14 -11 -16 -10 -11 7 3 12 8 19 12 17 3 -2 12 2 18 10 8 8 9
15 3 19 -6 3 -10 2 -10 -4 0 -5 -9 -9 -19 -8 -11 0 -19 4 -19 7 2 18 -4 21
-17 10 -13 -11 -14 -10 -9 6 7 20 34 54 42 54 3 0 -2 -8 -11 -17z m127 2 c-4
-8 -8 -15 -10 -15 -2 0 -4 7 -4 15 0 8 4 15 10 15 5 0 7 -7 4 -15z m89 -21
c15 3 25 1 22 -4 -3 -5 -1 -11 5 -15 6 -4 8 -11 5 -16 -4 -5 -1 -9 4 -9 6 0
11 -7 11 -15 0 -8 5 -15 10 -15 6 0 10 -5 10 -11 0 -8 -4 -8 -14 0 -10 9 -15
8 -20 -4 -3 -8 -1 -15 5 -15 6 0 8 -4 4 -9 -3 -5 -1 -12 5 -16 15 -9 12 -25
-5 -25 -8 0 -15 -4 -15 -10 0 -5 5 -10 11 -10 5 0 7 -5 3 -12 -5 -8 -2 -9 9
-5 21 8 21 3 1 -18 -26 -26 -4 -39 42 -26 51 14 54 14 54 -6 0 -15 4 -13 21 7
12 15 17 17 11 6 -5 -10 -7 -27 -5 -37 4 -13 0 -19 -10 -19 -17 0 -32 -34 -22
-51 4 -6 0 -9 -11 -7 -12 2 -19 -3 -19 -14 0 -10 -6 -23 -12 -29 -10 -10 -9
-15 5 -25 16 -12 15 -13 -5 -14 -23 0 -25 18 -5 42 11 14 7 28 -8 28 -3 0 -16
-9 -29 -21 -27 -26 -38 -18 -23 16 13 28 -1 35 -17 8 -9 -16 -10 -16 -11 5 0
12 -6 22 -12 22 -9 0 -8 4 2 10 13 9 13 11 1 19 -10 7 -19 4 -29 -7 -7 -9 -11
-11 -7 -4 4 7 -1 12 -12 12 -15 1 -14 3 5 13 12 7 20 16 17 19 -3 3 1 8 10 12
9 3 13 2 10 -4 -3 -6 -2 -10 3 -10 9 0 32 43 32 62 0 6 -7 5 -17 -3 -16 -12
-17 -12 -6 2 7 9 14 34 16 57 3 33 1 39 -10 30 -10 -8 -13 -7 -13 2 0 7 -6 10
-13 7 -17 -7 -44 9 -34 20 5 4 12 1 17 -7 6 -8 10 -13 11 -10 4 12 5 90 1 90
-16 0 -42 -24 -42 -40 0 -11 -7 -20 -15 -20 -13 0 -17 -10 -14 -37 0 -5 7 -7
15 -5 9 2 14 -5 14 -19 l0 -22 -24 22 c-15 14 -22 29 -19 39 4 9 2 13 -4 9 -6
-4 -18 2 -28 13 -10 11 -13 20 -7 20 6 0 12 -5 14 -10 2 -6 20 2 40 16 30 22
35 30 27 41 -9 11 -8 12 5 7 13 -5 15 -2 10 12 -6 18 -6 18 7 1 10 -13 23 -17
42 -13z m672 6 c-2 -11 0 -20 6 -20 5 0 9 5 9 10 0 17 70 12 77 -5 7 -19 -5
-34 -15 -19 -12 18 -45 26 -53 12 -7 -11 -13 -10 -30 0 -19 12 -21 12 -16 -3
4 -9 3 -14 -2 -11 -4 3 -13 -6 -20 -20 -14 -32 -15 -31 12 -29 12 1 26 11 32
23 5 12 16 20 22 17 7 -2 13 0 13 5 0 6 7 10 15 10 21 0 19 -20 -2 -21 -10 -1
-21 -1 -25 0 -5 0 -8 -4 -8 -10 0 -7 -10 -20 -22 -30 -23 -21 -32 -24 -23 -9
3 6 2 10 -4 10 -14 0 -41 -41 -41 -62 0 -10 -4 -18 -9 -18 -5 0 -8 11 -8 25 0
13 3 22 8 19 5 -3 9 -1 9 5 0 5 -9 9 -20 8 -15 -1 -18 -7 -16 -30 2 -19 0 -27
-9 -24 -6 3 -18 1 -25 -3 -9 -6 -19 -2 -28 11 -11 16 -17 17 -28 9 -7 -7 -13
-15 -12 -18 3 -26 -3 -34 -16 -23 -9 8 -16 8 -20 2 -9 -14 11 -23 34 -16 11 4
20 2 20 -4 0 -6 -7 -11 -15 -11 -8 0 -15 -7 -15 -15 0 -8 -8 -15 -18 -15 -24
0 -68 45 -53 55 6 3 8 12 4 18 -14 22 -11 48 5 42 20 -8 65 23 58 40 -3 9 0
12 9 8 11 -4 12 -10 4 -24 -10 -20 -6 -23 39 -21 16 1 22 -3 19 -12 -4 -10 0
-12 14 -9 11 3 18 8 15 11 -14 13 17 42 45 42 17 0 28 4 25 9 -3 4 -17 7 -31
5 -21 -2 -24 0 -15 11 6 7 20 11 30 8 11 -3 20 -1 20 4 0 5 -16 10 -36 11 -22
2 -33 -1 -29 -7 3 -6 -3 -16 -15 -23 -21 -14 -29 -34 -7 -22 9 5 9 4 1 -6 -10
-9 -16 -8 -31 7 -15 15 -17 22 -7 31 10 9 14 8 18 -1 7 -17 38 23 31 41 -3 8
0 10 8 5 6 -4 22 -6 34 -5 11 2 24 -2 28 -8 5 -8 13 -2 25 17 12 19 14 30 6
35 -6 5 -2 8 11 8 17 0 21 -5 18 -20z m-1875 0 c0 -5 -7 -10 -16 -10 -8 0 -12
5 -9 10 3 6 10 10 16 10 5 0 9 -4 9 -10z m1269 3 c-3 -20 2 -34 11 -28 6 3 10
-2 10 -12 0 -15 -4 -14 -24 7 -23 24 -25 40 -5 40 5 0 8 -3 8 -7z m551 -8 c9
-10 9 -15 1 -15 -6 0 -11 6 -12 13 0 10 -2 10 -6 0 -2 -7 -11 -13 -19 -13 -12
0 -13 3 -2 15 17 18 23 18 38 0z m-490 -5 c0 -5 -4 -10 -9 -10 -6 0 -13 5 -16
10 -3 6 1 10 9 10 9 0 16 -4 16 -10z m-500 -12 c0 -9 3 -9 9 1 8 12 13 12 36
-3 16 -10 24 -23 21 -32 -4 -10 2 -14 19 -14 15 0 25 -6 25 -14 0 -23 -22 -31
-32 -12 -5 9 -14 16 -20 16 -9 0 -9 -3 0 -12 14 -14 16 -62 3 -53 -6 3 -8 14
-6 25 2 11 -1 20 -7 20 -5 0 -7 7 -4 15 16 40 19 49 11 43 -4 -4 -14 0 -21 10
-12 15 -13 15 -9 -5 4 -26 -2 -28 -27 -9 -20 14 -24 36 -8 36 6 0 10 -6 10
-12z m-690 -33 c0 -5 -5 -3 -10 5 -5 8 -10 20 -10 25 0 6 5 3 10 -5 5 -8 10
-19 10 -25z m576 20 c4 -8 10 -12 15 -9 5 3 9 0 9 -6 0 -7 7 -10 15 -6 11 4
15 -2 15 -24 0 -21 -5 -30 -16 -30 -14 0 -15 2 -3 17 10 11 10 14 2 9 -9 -5
-13 -1 -13 10 0 13 -3 15 -11 7 -11 -11 13 -82 32 -94 7 -4 4 -9 -6 -12 -9 -4
-13 -3 -10 3 3 6 1 10 -4 10 -6 0 -11 -6 -12 -12 0 -7 -5 -2 -10 11 -5 13 -7
26 -4 29 3 3 5 0 5 -6 0 -7 4 -12 10 -12 17 0 -1 28 -21 33 -13 4 -19 1 -16
-6 20 -48 20 -50 6 -45 -8 3 -13 13 -11 23 2 10 -1 14 -8 10 -6 -4 -9 -1 -8 7
2 7 12 19 23 26 19 11 19 12 -5 9 -14 -1 -31 -6 -37 -10 -9 -5 -13 -3 -13 7 0
9 3 15 8 14 4 -1 22 1 40 5 37 8 44 26 8 22 -19 -2 -23 1 -19 16 6 23 31 25
39 4z m974 1 c0 -8 -7 -17 -16 -20 -8 -3 -12 -11 -8 -17 4 -7 3 -9 -4 -6 -7 5
-7 15 1 32 13 27 27 33 27 11z m310 10 c0 -3 -4 -8 -10 -11 -5 -3 -10 -1 -10
4 0 6 5 11 10 11 6 0 10 -2 10 -4z m-895 -27 c-3 -4 -12 -6 -20 -3 -8 4 -13
10 -10 15 3 4 12 6 20 3 8 -4 13 -10 10 -15z m240 0 c-3 -14 4 -17 28 -17 51
0 59 -1 51 -13 -4 -8 -9 -7 -15 2 -7 11 -9 11 -9 1 0 -9 -8 -10 -27 -6 -15 4
-33 7 -41 7 -9 0 -9 4 -2 11 7 7 3 14 -12 23 -23 12 -23 12 4 11 19 -2 25 -7
23 -19z m224 0 c-12 -7 -12 -9 0 -9 8 0 11 -3 7 -7 -4 -5 -13 -8 -18 -8 -6 0
-13 -7 -15 -15 -3 -9 -1 -11 4 -5 9 12 29 13 37 3 3 -5 3 -6 -1 -3 -3 3 -15
-7 -26 -22 -10 -16 -17 -20 -13 -11 3 10 1 20 -5 24 -5 3 -7 14 -4 25 4 11 3
19 -2 18 -4 -1 -15 -1 -23 1 -11 1 -9 4 5 9 12 5 23 4 27 -3 4 -7 9 -4 14 7 3
9 11 14 16 11 6 -4 5 -10 -3 -15z m-931 -25 c-12 -26 -34 -34 -24 -8 3 9 6 22
6 30 0 7 6 11 14 8 12 -5 13 -11 4 -30z m320 21 c3 -3 7 -13 8 -23 2 -14 0
-14 -12 3 -8 11 -19 20 -24 20 -4 0 -12 3 -16 7 -3 4 4 5 16 3 12 -2 25 -7 28
-10z m-379 -8 c-19 -15 -31 -55 -18 -63 5 -3 9 -16 9 -30 0 -14 4 -22 10 -19
6 3 10 -1 10 -9 0 -22 -5 -20 -36 11 -17 17 -23 28 -15 31 8 3 6 9 -6 19 -10
8 -13 12 -6 9 6 -4 14 -2 18 4 3 5 1 10 -4 10 -6 0 -11 5 -11 11 0 5 5 7 12 3
7 -5 9 -2 5 8 -7 20 1 28 27 28 19 -1 19 -2 5 -13z m1291 9 c0 -2 -7 -7 -16
-10 -8 -3 -12 -2 -9 4 6 10 25 14 25 6z m-1365 -30 c8 4 15 1 15 -5 0 -6 -3
-10 -7 -10 -5 1 -15 1 -23 0 -13 -1 -13 -2 0 -11 13 -8 13 -10 -1 -10 -11 0
-16 9 -16 31 0 22 3 26 9 15 5 -8 15 -13 23 -10z m344 13 c23 13 24 11 15 -13
-3 -8 -12 -12 -20 -9 -10 4 -12 0 -8 -11 3 -9 1 -16 -6 -16 -6 0 -10 -10 -8
-22 2 -16 -3 -22 -20 -23 -15 -1 -21 3 -18 11 3 8 0 11 -8 8 -7 -3 -16 2 -19
10 -7 16 16 12 42 -8 11 -8 13 -8 8 0 -4 7 0 17 8 24 11 9 12 17 5 30 -12 23
-13 40 -1 21 7 -10 13 -11 30 -2z m461 1 c0 -5 -4 -10 -10 -10 -5 0 -10 5 -10
10 0 6 5 10 10 10 6 0 10 -4 10 -10z m157 -6 c2 -6 -3 -11 -12 -11 -8 0 -15 7
-15 15 0 15 22 12 27 -4z m44 -11 c12 -14 12 -16 0 -8 -11 6 -13 4 -8 -11 7
-18 7 -18 -8 0 -27 35 -11 53 16 19z m-1056 -83 c-10 -16 -35 -12 -29 5 3 8
-5 25 -20 38 -14 13 -26 30 -26 37 0 7 18 -6 40 -29 23 -23 38 -46 35 -51z
m158 64 c21 -28 18 -38 -7 -28 -14 5 -15 9 -4 16 9 7 7 8 -9 5 -18 -4 -23 -1
-23 14 0 27 22 23 43 -7z m1015 8 c6 -18 -15 -14 -22 4 -4 10 -1 14 6 12 6 -2
14 -10 16 -16z m-592 -8 c-3 -8 -2 -12 3 -9 5 3 12 1 16 -5 4 -6 11 -8 16 -5
5 4 9 -1 9 -10 0 -12 -4 -14 -20 -5 -10 6 -23 9 -29 8 -5 -2 -9 2 -9 7 1 15 9
35 15 35 3 0 2 -7 -1 -16z m362 -4 c2 -5 9 -7 15 -3 27 17 55 13 60 -7 3 -11
1 -20 -4 -20 -13 0 6 -43 21 -48 7 -3 10 0 6 6 -3 6 -2 13 4 17 6 4 8 10 5 14
-2 5 7 6 20 3 14 -2 25 -8 25 -13 0 -5 -7 -6 -15 -3 -10 4 -15 0 -15 -14 0
-26 -31 -38 -42 -17 -5 8 -14 13 -20 9 -6 -4 -5 -10 3 -15 8 -5 9 -9 3 -9 -6
0 -17 6 -23 14 -9 10 -8 16 3 25 8 7 13 22 11 33 -6 29 -10 31 -26 11 -9 -11
-10 -14 -1 -9 7 4 12 2 12 -7 0 -10 -7 -13 -20 -10 -10 3 -18 10 -17 17 1 7
-11 10 -33 8 -26 -2 -31 0 -20 7 10 7 11 11 3 11 -7 0 -13 5 -13 10 0 13 54 4
58 -10z m-1014 -19 c-2 -3 -12 3 -22 13 -16 17 -16 18 5 5 12 -7 20 -15 17
-18z m581 19 c3 -5 -1 -10 -10 -10 -9 0 -13 -4 -10 -10 3 -5 2 -10 -3 -10 -5
0 -9 -8 -9 -17 0 -14 3 -13 15 5 18 27 32 29 25 2 -3 -10 -8 -19 -12 -18 -12
2 -41 -14 -36 -21 2 -4 -9 -5 -26 -3 -25 4 -29 1 -29 -19 0 -18 -3 -20 -12
-11 -9 9 -16 8 -29 -4 -9 -8 -26 -16 -38 -17 -11 -1 -21 -5 -21 -10 0 -5 6 -7
14 -4 14 6 32 -21 21 -31 -3 -3 -5 0 -5 6 0 6 -6 9 -14 6 -17 -7 -30 25 -16
41 8 9 8 15 0 20 -16 10 -29 -3 -23 -25 3 -12 0 -20 -6 -20 -7 0 -9 -5 -6 -10
4 -6 11 -8 16 -5 5 4 9 1 9 -5 0 -6 -6 -13 -14 -16 -15 -6 -10 -44 6 -44 5 0
6 -4 3 -10 -3 -5 -11 -10 -16 -10 -6 0 -7 5 -4 10 4 7 -2 9 -17 5 -19 -5 -23
-2 -23 19 0 23 1 24 19 8 18 -16 18 -16 7 6 -6 12 -17 22 -23 22 -5 0 -8 9 -5
19 5 22 -10 31 -53 31 -36 0 -47 16 -21 29 15 9 21 8 24 -4 3 -11 4 -10 3 2
-1 11 -8 17 -20 15 -14 -3 -15 0 -8 15 6 10 10 20 10 23 1 14 15 40 22 40 14
0 20 -43 8 -57 -9 -11 -7 -15 10 -20 13 -3 22 -13 22 -24 0 -10 10 -24 23 -30
21 -11 21 -11 5 7 -21 23 -21 69 -1 52 15 -12 17 -22 3 -13 -6 4 -7 -1 -3 -11
5 -15 7 -14 17 3 11 19 29 24 42 11 4 -4 13 0 20 10 12 16 14 16 29 -3 11 -14
15 -15 13 -5 -3 24 13 80 23 80 5 0 9 -7 9 -15 0 -8 -6 -15 -12 -15 -9 0 -8
-3 2 -9 8 -6 18 -7 24 -4 5 3 6 1 2 -5 -5 -8 1 -12 16 -12 18 0 20 2 8 10 -11
7 -11 10 -2 10 7 0 10 5 7 10 -3 6 -2 10 3 10 5 0 12 9 15 20 5 21 22 26 32
10z m730 0 c3 -5 -1 -10 -10 -10 -9 0 -13 5 -10 10 3 6 8 10 10 10 2 0 7 -4
10 -10z m-682 -32 c10 -20 12 -37 7 -43 -6 -7 -5 -16 2 -23 17 -17 -5 -37 -29
-27 -10 5 -21 8 -24 7 -10 -2 -18 37 -9 43 4 3 11 -5 14 -18 l7 -22 11 23 c6
12 15 22 20 22 5 0 7 4 3 10 -3 5 -13 7 -23 4 -10 -4 -13 -2 -7 3 14 11 17 33
5 33 -5 0 -10 5 -10 10 0 21 18 9 33 -22z m289 23 c-8 -5 -13 -11 -13 -15 1
-3 -2 -7 -6 -8 -3 -2 -7 4 -8 12 -2 10 6 17 19 18 14 1 17 -1 8 -7z m-812 -21
c0 -5 -7 -10 -15 -10 -8 0 -15 5 -15 10 0 6 7 10 15 10 8 0 15 -4 15 -10z
m-95 -22 c-6 -23 -6 -23 10 -3 15 19 15 19 11 -5 -2 -14 -5 -29 -6 -35 0 -5
-9 0 -19 12 -10 12 -21 19 -25 16 -3 -3 5 -15 17 -27 12 -12 29 -36 36 -54 18
-43 26 -33 10 12 -16 43 -3 62 34 52 19 -4 24 -11 20 -26 -3 -11 -10 -20 -15
-20 -5 0 -6 10 -3 23 4 15 4 18 -3 8 -5 -7 -14 -11 -19 -8 -5 3 -10 0 -10 -8
0 -8 4 -15 9 -15 4 0 7 -3 7 -7 -5 -29 2 -36 17 -15 8 12 25 22 36 22 21 0 21
0 3 -14 -11 -8 -24 -12 -29 -9 -5 3 -7 0 -5 -6 3 -7 9 -13 14 -13 6 0 17 -5
25 -11 13 -11 13 -10 1 6 -17 21 -9 34 8 13 15 -18 5 -40 -15 -32 -8 3 -14 1
-14 -4 0 -6 -5 -10 -11 -10 -6 0 -9 7 -6 15 9 21 -5 25 -33 9 -14 -7 -19 -13
-11 -14 8 0 12 -2 9 -5 -3 -3 -12 -3 -21 1 -12 4 -14 11 -8 22 10 20 3 45 -10
36 -5 -3 -9 4 -9 15 0 12 -4 21 -10 21 -5 0 -14 10 -21 21 -9 18 -8 24 5 31 9
5 14 13 11 19 -4 5 1 9 10 9 12 0 15 -6 10 -22z m218 7 c4 -8 2 -17 -3 -20 -6
-4 -10 -4 -10 -1 0 2 -3 11 -6 20 -3 9 -2 16 4 16 5 0 12 -7 15 -15z m597 -15
c0 -14 -13 -12 -29 3 -11 10 -13 10 -7 0 5 -9 0 -13 -13 -13 -20 0 -20 1 -3
18 17 19 52 13 52 -8z m-121 -12 c-23 -13 -27 -18 -12 -15 22 5 37 -12 25 -29
-10 -14 -66 -18 -57 -5 3 6 10 9 15 6 5 -3 11 -1 14 4 6 10 -23 26 -39 22 -5
-2 -6 1 -2 6 5 4 12 8 15 8 22 2 51 18 47 26 -3 5 2 6 11 2 13 -5 10 -10 -17
-25z m234 15 c-7 -2 -19 -2 -25 0 -7 3 -2 5 12 5 14 0 19 -2 13 -5z m92 -13
c-3 -5 -1 -11 4 -15 11 -6 3 -35 -9 -35 -5 0 -7 9 -5 20 2 11 0 22 -6 25 -15
10 -10 25 6 19 8 -4 13 -10 10 -14z m-870 0 c4 -6 -5 -10 -20 -10 -15 0 -24 4
-20 10 3 6 12 10 20 10 8 0 17 -4 20 -10z m145 0 c0 -5 -7 -10 -16 -10 -8 0
-12 5 -9 10 3 6 10 10 16 10 5 0 9 -4 9 -10z m688 -3 c6 -5 12 -13 12 -19 0
-6 -3 -8 -7 -5 -3 4 -12 2 -19 -4 -9 -8 -15 -5 -23 9 -15 29 4 39 37 19z m392
-3 c0 -2 -7 -4 -15 -4 -8 0 -15 4 -15 10 0 5 7 7 15 4 8 -4 15 -8 15 -10z
m-200 1 c0 -7 -63 -45 -75 -45 -5 0 8 11 30 24 47 28 45 27 45 21z m-395 -15
c-3 -5 -12 -7 -20 -3 -21 7 -19 13 6 13 11 0 18 -4 14 -10z m-607 -20 c3 -9
-1 -11 -11 -7 -9 3 -17 0 -19 -7 -2 -9 -8 -9 -28 1 -24 12 -24 13 -3 13 12 0
25 5 28 11 9 13 27 7 33 -11z m612 -8 l25 -11 -25 2 c-14 1 -30 6 -37 10 -6 4
-14 1 -16 -5 -3 -8 -6 -6 -6 4 -1 19 16 19 59 0z m-595 -2 c-3 -5 -1 -10 4
-10 6 0 11 -4 11 -10 0 -5 -9 -10 -19 -10 -22 0 -36 -26 -18 -33 9 -3 9 -8 0
-18 -9 -9 -10 -16 -2 -26 8 -9 8 -13 0 -13 -6 0 -11 -5 -11 -11 0 -5 5 -7 10
-4 6 3 10 2 10 -4 0 -5 -9 -9 -20 -8 -23 1 -23 2 -10 28 7 13 7 19 0 19 -5 0
-10 5 -10 11 0 5 4 8 9 5 5 -3 9 4 8 17 -1 32 6 50 23 64 18 15 23 16 15 3z
m365 -12 c0 -6 -8 -7 -17 -4 -15 5 -14 3 2 -10 13 -11 14 -15 4 -11 -8 3 -26
-3 -38 -12 -21 -16 -22 -19 -6 -34 9 -9 12 -17 7 -17 -10 0 -62 -46 -62 -54 0
-3 9 -3 20 -1 11 2 18 0 15 -4 -3 -5 2 -12 11 -15 8 -3 12 -2 9 4 -3 6 -1 10
4 10 6 0 11 -4 11 -10 0 -5 7 -7 16 -3 12 5 9 10 -15 25 -36 23 -39 28 -11 21
11 -3 20 -9 20 -14 0 -5 5 -9 11 -9 5 0 7 5 3 12 -4 6 -3 8 4 4 17 -10 24 11
8 27 -9 9 -11 19 -5 28 7 11 9 11 9 -3 0 -10 4 -18 8 -18 15 0 9 -34 -11 -63
l-19 -28 21 -6 c19 -5 17 -8 -20 -35 -22 -16 -48 -27 -56 -24 -23 9 -9 31 23
34 35 4 51 17 30 25 -9 4 -16 2 -16 -4 0 -6 -5 -7 -12 -3 -25 16 -69 12 -82
-8 -14 -19 -14 -19 -35 3 -11 12 -24 19 -28 16 -3 -4 -1 -7 5 -7 7 0 12 -4 12
-10 0 -5 -7 -10 -15 -10 -9 0 -14 8 -13 23 2 18 8 22 35 22 18 0 33 -3 33 -7
0 -4 12 -5 28 -4 15 2 25 7 22 12 -2 5 -10 8 -17 6 -22 -5 -11 46 11 52 16 4
17 7 6 20 -7 9 -18 16 -24 15 -7 0 -6 -2 2 -6 17 -7 15 -23 -3 -23 -8 0 -15 4
-15 10 0 5 -7 7 -15 4 -8 -4 -15 -13 -15 -22 0 -13 -4 -11 -20 6 -19 20 -18
52 2 52 6 0 8 -6 5 -14 -9 -23 4 -26 36 -10 23 12 27 18 16 25 -12 7 -11 9 2
9 9 0 22 -11 29 -25 7 -14 18 -25 23 -25 5 0 2 11 -7 25 -10 15 -12 24 -5 23
6 -2 14 3 16 11 4 10 -1 11 -18 6 -17 -4 -20 -3 -10 3 12 9 12 11 0 15 -8 2
-6 3 4 2 9 -2 17 2 17 8 1 7 7 1 14 -12 8 -14 16 -19 20 -13 3 6 2 13 -4 17
-6 4 -8 10 -5 15 7 11 45 1 45 -12z m503 5 c-3 -7 -9 -10 -14 -7 -14 8 -11 21
5 21 8 0 12 -6 9 -14z m112 3 c7 3 16 1 20 -5 3 -7 0 -8 -10 -5 -11 5 -14 2
-9 -10 3 -8 9 -15 12 -14 23 2 33 -4 28 -17 -3 -8 0 -15 6 -15 6 0 9 -3 5 -6
-3 -3 -15 -3 -27 1 -18 6 -19 9 -8 23 8 10 9 13 1 9 -6 -4 -15 -2 -20 5 -11
18 -46 20 -39 2 3 -7 1 -16 -4 -19 -6 -4 -10 -1 -10 5 0 6 -4 8 -10 5 -5 -3
-10 0 -10 7 0 10 -2 10 -8 1 -5 -8 -13 -9 -22 -3 -12 8 -11 10 5 11 11 1 25 1
32 0 6 -1 14 3 18 8 3 6 12 8 20 4 10 -3 14 0 12 8 -2 8 -2 11 0 7 2 -4 10 -5
18 -2z m144 -13 c31 -18 40 -33 21 -33 -5 0 -10 5 -10 11 0 5 -4 7 -10 4 -5
-3 -10 -1 -10 4 0 6 -4 11 -9 11 -5 0 -8 -11 -7 -25 2 -13 0 -22 -4 -20 -4 3
-19 -6 -34 -20 -18 -16 -24 -29 -19 -42 5 -14 2 -12 -18 5 -19 19 -25 20 -27
8 -2 -8 -10 -12 -18 -9 -7 3 -11 10 -7 16 4 7 -2 8 -18 3 -45 -13 -54 -13 -67
3 -8 9 -11 10 -7 3 8 -15 -53 -72 -77 -72 -10 0 -16 7 -15 19 1 13 7 17 22 14
16 -4 17 -3 5 6 -9 7 -10 11 -3 11 6 0 14 -4 18 -10 9 -15 35 0 35 20 0 27 18
34 38 16 12 -10 22 -12 32 -6 15 9 13 11 -12 14 -6 0 -13 7 -16 14 -3 11 0 12
17 3 11 -7 21 -8 21 -4 0 4 4 2 9 -6 5 -7 20 -13 35 -13 14 0 26 -4 26 -9 0
-16 15 -10 28 11 9 15 10 26 2 40 -6 11 -7 19 -3 18 4 -1 19 2 32 6 18 6 21
10 10 17 -27 17 9 9 40 -8z m-291 -40 c-11 -14 -28 -8 -28 8 0 6 5 7 12 3 7
-5 9 -2 5 8 -3 9 -3 19 1 23 11 11 20 -29 10 -42z m-778 3 c0 -3 -7 -6 -15 -6
-9 0 -15 9 -15 21 0 18 2 19 15 5 8 -8 15 -17 15 -20z m360 26 c0 -5 9 -18 20
-30 12 -12 16 -23 10 -27 -6 -3 -10 -1 -10 4 0 6 -5 11 -11 11 -7 0 -10 -13
-7 -33 2 -21 -1 -34 -8 -34 -7 0 -8 13 -4 39 4 21 3 41 -1 44 -12 7 -11 34 1
34 6 0 10 -4 10 -8z m45 -2 c3 -5 12 -7 19 -4 8 3 17 0 22 -7 5 -9 2 -10 -9
-6 -11 4 -17 1 -17 -8 0 -8 8 -15 17 -15 18 0 10 -13 -10 -16 -7 -1 -14 7 -14
18 -1 11 -10 26 -20 34 -10 7 -13 14 -6 14 6 0 14 -4 18 -10z m80 1 l-20 -8
20 -5 c19 -4 19 -4 -2 -10 -18 -5 -23 -2 -23 13 0 13 7 19 23 18 21 0 21 -1 2
-8z m-521 -26 c3 -9 0 -15 -9 -15 -8 0 -15 7 -15 15 0 8 4 15 9 15 5 0 11 -7
15 -15z m80 -54 c-4 -3 -9 0 -12 8 -4 11 -6 11 -13 0 -7 -11 -9 -10 -9 5 0 15
-3 16 -15 6 -12 -10 -15 -10 -15 0 0 6 10 20 22 30 22 18 23 18 35 -13 8 -16
10 -33 7 -36z m870 53 c3 -8 2 -12 -4 -9 -6 3 -10 10 -10 16 0 14 7 11 14 -7z
m-622 -1 c-6 -2 -10 -9 -6 -14 3 -5 0 -9 -5 -9 -12 0 -14 13 -4 23 3 4 11 7
17 6 6 0 5 -3 -2 -6z m46 -18 c-3 -3 -9 2 -12 12 -6 14 -5 15 5 6 7 -7 10 -15
7 -18z m-508 -34 c6 -21 5 -31 -2 -31 -24 0 3 -13 34 -16 18 -2 43 -6 56 -8
17 -4 22 0 22 16 0 14 5 18 15 14 8 -3 15 -2 15 3 0 5 -9 11 -20 14 -11 3 -20
12 -20 21 0 20 18 21 39 2 9 -7 30 -18 46 -24 l30 -11 -30 2 c-37 3 -74 -29
-55 -46 10 -9 11 -9 5 1 -5 9 -1 12 11 10 11 -2 18 2 17 9 -2 7 10 11 28 11
25 -1 30 -5 26 -20 -3 -10 -2 -17 1 -15 4 1 22 -13 40 -31 18 -19 26 -32 17
-28 -9 3 -13 2 -10 -4 9 -14 32 -13 37 2 3 7 12 9 23 4 15 -6 17 -9 6 -15 -11
-7 -9 -10 8 -16 30 -9 46 4 24 20 -15 11 -15 15 -4 29 18 21 25 13 28 -30 2
-29 -2 -37 -23 -44 -13 -5 -32 -9 -42 -7 -9 1 -18 -2 -19 -8 -1 -5 6 -9 15 -8
10 1 11 0 5 -3 -20 -9 -15 -27 5 -20 16 6 16 5 -1 -8 -10 -7 -20 -23 -22 -35
-2 -12 -6 -25 -9 -30 -3 -5 5 -12 19 -15 14 -4 25 -11 25 -17 0 -6 -5 -7 -12
-3 -7 5 -8 3 -3 -5 5 -9 13 -7 31 10 13 12 24 17 24 11 0 -7 -5 -12 -11 -12
-8 0 -7 -6 2 -17 10 -11 10 -14 2 -9 -7 4 -13 3 -13 -3 0 -5 6 -12 13 -14 7
-3 5 -6 -5 -6 -10 -1 -18 -5 -18 -11 0 -5 8 -7 18 -4 13 5 14 4 3 -4 -7 -5
-11 -14 -7 -20 3 -6 0 -13 -6 -15 -10 -4 -10 -6 -1 -6 7 -1 20 10 29 24 9 14
20 22 25 19 15 -9 10 -22 -11 -29 -11 -4 -18 -11 -15 -16 4 -5 -6 -9 -20 -9
-20 0 -26 4 -21 15 9 23 -4 44 -22 38 -12 -4 -10 0 6 14 27 24 28 31 5 29 -11
0 -17 6 -17 17 1 9 -5 17 -13 17 -8 0 -11 -5 -7 -12 5 -7 3 -8 -6 -3 -9 6 -10
2 -5 -16 8 -26 8 -28 5 -49 -1 -11 -4 -9 -10 5 -8 18 -9 17 -9 -8 -1 -16 -5
-26 -11 -22 -6 4 -8 10 -5 15 3 5 0 12 -6 16 -8 5 -4 13 11 24 l23 18 -21 11
c-15 8 -20 19 -18 39 2 15 4 33 5 40 1 17 18 15 25 -4 4 -9 0 -27 -8 -39 -14
-21 -14 -23 2 -21 13 2 17 13 17 41 0 21 5 40 12 42 7 3 9 11 6 19 -5 13 -7
13 -14 2 -7 -11 -9 -11 -9 0 0 7 -7 20 -16 29 -10 10 -14 29 -12 52 3 33 0 37
-32 48 -19 7 -31 12 -26 12 5 1 3 8 -5 17 -12 14 -14 14 -25 -1 -8 -11 -20
-15 -29 -11 -12 4 -19 0 -22 -14 -3 -11 -9 -17 -14 -15 -4 3 -5 13 -2 22 5 13
2 15 -14 11 -11 -3 -28 -1 -37 4 -14 8 -16 5 -12 -16 3 -15 0 -26 -6 -26 -6 0
-8 13 -6 30 3 17 1 30 -3 30 -4 0 -9 -16 -11 -35 -2 -19 0 -35 4 -35 4 0 8 -7
8 -15 0 -8 5 -15 10 -15 6 0 10 -5 10 -11 0 -8 -4 -8 -13 0 -10 8 -17 7 -25
-1 -6 -6 -15 -8 -19 -4 -5 4 0 13 9 20 10 7 15 16 11 20 -4 4 -8 23 -10 44 -5
58 -6 62 -14 62 -10 0 -20 -43 -11 -50 11 -8 12 -80 0 -80 -5 0 -8 7 -4 15 3
8 1 15 -4 15 -6 0 -10 -4 -10 -9 0 -5 -12 -8 -27 -8 -16 0 -22 2 -16 4 8 3 11
14 7 29 -7 26 -5 27 20 18 9 -3 13 -11 9 -18 -4 -6 0 -5 9 2 15 12 15 15 0 32
-11 14 -19 16 -28 9 -7 -6 -21 -9 -31 -6 -14 4 -14 5 4 6 12 0 25 6 28 11 4 7
-2 9 -19 4 -17 -4 -26 -2 -26 6 0 7 7 10 15 6 8 -3 15 -1 15 5 0 5 12 2 26 -8
27 -17 27 -17 16 4 -10 17 -9 20 6 19 12 -1 18 8 20 27 4 34 9 31 22 -12z
m930 14 c0 -7 -7 -16 -16 -19 -14 -5 -15 -4 -5 8 7 8 9 21 5 27 -4 8 -3 9 4 5
7 -4 12 -13 12 -21z m-882 -27 c1 -25 -2 -27 -19 -18 -28 16 -25 47 5 47 8 0
13 -12 14 -29z m912 17 c7 -9 8 -15 2 -15 -5 0 -12 7 -16 15 -3 8 -4 15 -2 15
2 0 9 -7 16 -15z m-260 -6 c0 8 2 12 5 9 8 -7 -5 -38 -16 -38 -5 0 -9 10 -9
23 0 18 2 19 10 7 8 -12 10 -12 10 -1z m-820 -27 l-28 -26 20 -18 c12 -10 16
-18 10 -18 -7 0 -14 0 -17 0 -3 0 -5 3 -6 8 0 4 -6 13 -12 20 -8 10 -7 16 2
22 8 4 11 12 7 18 -6 11 5 17 35 19 14 1 12 -4 -11 -25z m468 -18 c-11 -10
-51 -7 -55 4 -4 9 3 11 22 8 20 -4 25 -1 22 9 -3 7 -3 16 1 20 4 4 8 -3 10
-15 2 -12 2 -23 0 -26z m242 37 c0 -5 -7 -12 -16 -15 -14 -5 -15 -4 -4 9 14
17 20 19 20 6z m80 -33 c0 -5 -6 -8 -14 -8 -9 0 -12 7 -9 21 4 16 8 17 14 7 5
-7 9 -16 9 -20z m-422 13 c11 -7 11 -9 -1 -14 -9 -3 -18 1 -21 9 -6 16 2 18
22 5z m381 2 c-4 -26 3 -42 15 -37 8 3 16 1 19 -3 3 -5 -7 -10 -23 -11 -24 -2
-28 1 -24 20 l5 23 -13 -23 c-7 -14 -8 -26 -2 -30 19 -14 13 -29 -10 -25 -23
5 -23 5 -6 41 10 20 16 40 13 44 -2 5 3 8 11 8 9 0 15 -3 15 -7z m566 -3 c-3
-5 -11 -10 -16 -10 -6 0 -7 5 -4 10 3 6 11 10 16 10 6 0 7 -4 4 -10z m-617
-35 c1 -14 -3 -25 -9 -25 -6 0 -9 7 -5 15 3 8 1 15 -5 15 -6 0 -7 5 -4 10 11
17 21 11 23 -15z m137 17 c-3 -3 0 -11 7 -19 10 -12 7 -12 -15 -2 -28 12 -29
26 -2 26 8 0 13 -3 10 -5z m-165 -35 c0 -4 -6 -2 -14 5 -8 7 -12 17 -9 22 5 8
23 -12 23 -27z m-290 13 c0 -5 -2 -10 -4 -10 -3 0 -8 5 -11 10 -3 6 -1 10 4
10 6 0 11 -4 11 -10z m-82 -12 c-3 -7 1 -18 8 -25 15 -15 28 -17 19 -3 -3 6
-2 10 4 10 18 0 23 -20 7 -26 -9 -3 -13 -10 -10 -15 3 -5 0 -9 -6 -9 -6 0 -8
-6 -4 -12 5 -9 4 -10 -4 -3 -5 6 -12 19 -14 30 -2 11 -8 20 -13 20 -6 0 -16 4
-22 8 -7 5 -13 4 -13 -2 0 -5 5 -13 10 -16 6 -4 8 -11 4 -16 -3 -5 -10 -6 -16
-3 -7 4 -8 2 -4 -4 4 -6 14 -9 24 -6 14 5 15 4 2 -5 -28 -20 -39 -13 -33 22 6
37 8 40 31 43 9 2 18 8 20 13 2 6 6 11 9 11 2 0 3 -6 1 -12z m616 -9 c-3 -5
-10 -7 -15 -3 -5 3 -7 10 -3 15 3 5 10 7 15 3 5 -3 7 -10 3 -15z m-707 -4 c0
-8 -4 -15 -9 -15 -4 0 -8 7 -8 15 0 8 4 15 8 15 5 0 9 -7 9 -15z m443 5 c0 -5
-2 -10 -4 -10 -3 0 -8 5 -11 10 -3 6 -1 10 4 10 6 0 11 -4 11 -10z m223 -7
c-4 -11 -3 -14 5 -9 7 4 12 2 12 -3 0 -6 -9 -11 -20 -11 -11 0 -20 -4 -20 -9
0 -5 -9 -11 -20 -14 -11 -3 -20 -1 -20 4 0 5 7 9 16 9 14 0 14 2 -1 16 -8 9
-22 13 -30 10 -8 -3 -15 -1 -15 4 0 6 17 10 38 10 27 0 33 -3 22 -10 -13 -8
-13 -10 1 -10 9 0 19 7 23 15 3 8 8 15 10 15 3 0 2 -7 -1 -17z m-866 -22 c-1
-15 -4 -17 -14 -9 -15 12 -17 22 -3 13 6 -3 10 -1 10 4 0 6 2 11 4 11 3 0 4
-9 3 -19z m667 5 c-4 -10 2 -12 23 -10 27 4 27 4 6 -7 -12 -6 -25 -25 -28 -40
-4 -16 -12 -29 -18 -29 -7 0 -6 -5 3 -11 13 -9 12 -10 -2 -5 -10 3 -18 0 -18
-6 0 -6 -3 -9 -6 -5 -3 3 1 16 10 29 25 35 19 44 -8 13 -14 -16 -24 -33 -23
-38 1 -5 -4 -11 -11 -12 -7 -2 -8 -1 -3 1 6 3 7 12 4 20 -3 8 -1 14 5 14 5 0
15 14 22 31 8 19 18 28 27 25 8 -3 11 -1 8 4 -3 6 -13 10 -21 10 -23 0 -16 18
9 23 12 2 23 5 24 6 1 0 0 -5 -3 -13z m-58 -5 c-4 -5 0 -12 6 -15 10 -3 9 -8
-3 -18 -9 -7 -14 -19 -11 -27 4 -12 3 -12 -11 0 -12 11 -13 17 -2 29 7 8 10
21 8 28 -3 6 0 12 7 12 6 0 9 -4 6 -9z m187 -8 c-3 -10 -12 -25 -20 -34 -7 -9
-11 -23 -8 -30 4 -10 -1 -15 -14 -15 -15 0 -17 3 -9 13 6 7 6 13 1 13 -5 0 -9
12 -8 28 0 21 5 27 22 27 12 0 25 3 29 8 12 11 14 8 7 -10z m-633 -3 c0 -5 -2
-10 -4 -10 -3 0 -8 5 -11 10 -3 6 -1 10 4 10 6 0 11 -4 11 -10z m38 -15 c-3
-3 -9 2 -12 12 -6 14 -5 15 5 6 7 -7 10 -15 7 -18z m374 6 c-8 -4 -14 -12 -14
-17 0 -5 -3 -14 -5 -21 -3 -6 0 -20 7 -30 10 -15 10 -14 5 10 -4 19 -2 26 5
22 15 -9 12 -45 -5 -51 -11 -5 -12 -11 -4 -26 6 -10 9 -24 6 -31 -2 -6 -11 4
-20 23 -12 24 -14 36 -6 41 8 5 8 12 0 25 -10 18 -10 18 -11 -1 -1 -27 -26
-59 -39 -50 -6 3 -9 10 -7 14 3 4 1 13 -5 21 -6 11 -9 8 -9 -12 0 -16 -4 -28
-10 -28 -5 0 -10 -8 -10 -17 0 -15 -2 -16 -10 -3 -6 9 -5 17 1 21 6 3 11 12
12 20 4 26 17 38 34 32 10 -4 14 -2 10 4 -3 5 6 16 21 24 15 8 31 20 35 26 4
7 13 13 20 13 8 0 8 -3 -1 -9z m293 -4 c-11 -8 -29 -17 -40 -20 -16 -6 -15 -3
5 13 14 11 32 20 40 20 10 0 9 -4 -5 -13z m-150 -7 c-4 -6 -2 -17 5 -25 8 -10
8 -15 0 -20 -7 -4 -14 2 -17 14 -3 12 -10 21 -17 22 -6 0 -2 4 9 9 27 12 27
12 20 0z m-640 -10 c10 -15 -5 -50 -20 -50 -17 0 -38 36 -30 50 8 13 42 13 50
0z m105 -6 c0 -8 -4 -12 -10 -9 -5 3 -10 10 -10 16 0 5 5 9 10 9 6 0 10 -7 10
-16z m180 -26 c0 -5 -5 -8 -11 -8 -5 0 -8 4 -4 9 3 5 1 12 -5 16 -5 3 -10 -1
-10 -10 0 -9 -4 -13 -10 -10 -6 4 -5 13 2 25 11 17 13 17 25 2 7 -9 13 -20 13
-24z m-120 4 c-11 -4 -1 -34 14 -45 7 -5 5 -12 -6 -21 -10 -7 -14 -17 -10 -21
4 -5 0 -6 -9 -3 -12 5 -15 -1 -13 -32 2 -36 1 -38 -21 -30 -13 5 -26 6 -31 2
-4 -4 -4 -2 0 5 4 7 13 10 21 6 8 -3 15 -1 16 3 0 5 2 17 4 27 2 12 -1 17 -10
13 -7 -2 -15 4 -18 16 -3 11 -10 17 -16 13 -7 -4 -5 -14 5 -31 10 -15 12 -24
5 -24 -6 0 -11 5 -11 12 0 6 -7 19 -16 29 -18 20 -11 39 13 39 9 0 13 3 9 8
-4 4 -9 5 -11 2 -1 -3 -12 4 -24 14 -18 16 -24 17 -34 6 -7 -8 -8 -11 -1 -7 7
4 17 1 23 -7 16 -19 -9 -28 -26 -10 -18 18 -16 32 6 44 26 13 32 13 29 -2 -2
-7 2 -12 9 -11 6 1 17 -4 23 -12 7 -8 20 -15 29 -15 14 0 14 2 1 11 -13 8 -13
9 2 7 9 -2 16 2 15 7 -1 6 -5 9 -9 8 -4 -2 -5 3 -2 11 4 11 10 11 29 2 14 -6
20 -12 15 -14z m560 24 c0 -2 -7 -7 -16 -10 -8 -3 -12 -2 -9 4 6 10 25 14 25
6z m-516 -22 c12 -5 13 -11 6 -25 -6 -10 -9 -23 -8 -30 2 -6 -1 -13 -7 -15 -6
-2 -10 14 -11 36 0 22 1 40 2 40 1 0 9 -3 18 -6z m409 -34 c-7 -8 -22 24 -16
34 4 5 10 1 13 -10 4 -10 6 -21 3 -24z m-623 -10 c0 -5 -2 -10 -4 -10 -3 0 -8
5 -11 10 -3 6 -1 10 4 10 6 0 11 -4 11 -10z m277 4 l30 -6 -23 -26 c-14 -14
-27 -22 -31 -19 -3 4 -1 7 5 7 7 0 12 9 12 21 0 19 -1 19 -16 5 -20 -21 -24
-20 -24 4 0 22 3 23 47 14z m-223 -41 c3 -7 1 -13 -5 -13 -5 0 -12 6 -15 14
-3 9 -13 12 -27 8 -19 -5 -20 -3 -9 11 11 13 17 14 33 4 10 -6 21 -17 23 -24z
m609 23 c38 9 33 -2 -10 -26 -21 -12 -30 -19 -20 -16 10 3 15 2 12 -4 -11 -17
-43 -11 -58 11 -14 20 -16 20 -25 2 -6 -10 -14 -15 -18 -11 -12 12 18 40 37
35 10 -3 24 2 30 10 9 10 14 11 19 3 4 -7 18 -8 33 -4z m-193 -33 c0 -25 -15
-12 -17 14 -1 19 1 22 8 12 5 -8 9 -20 9 -26z m57 21 c-3 -3 -12 -4 -19 -1 -8
3 -5 6 6 6 11 1 17 -2 13 -5z m-107 -9 c0 -2 -6 -8 -13 -14 -10 -8 -14 -7 -14
2 0 8 6 14 14 14 7 0 13 -1 13 -2z m-424 -14 c-4 -5 -1 -11 5 -13 7 -2 7 -12
0 -32 -12 -29 -34 -31 -39 -3 -5 23 15 22 21 0 4 -14 5 -12 6 5 0 12 -4 22
-10 22 -8 0 -8 5 1 15 14 16 25 21 16 6z m223 -4 c8 -11 5 -17 -14 -27 -32
-17 -56 0 -35 25 15 19 34 19 49 2z m311 -1 c0 -8 -4 -18 -10 -21 -5 -3 -10
-15 -10 -26 0 -16 -3 -18 -19 -10 -22 12 -38 45 -19 38 7 -2 12 -11 10 -18 -2
-8 4 -6 16 6 10 11 17 26 14 33 -2 6 1 12 7 12 6 0 11 -6 11 -14z m-455 -37
c1 -26 0 -26 -22 -12 -21 14 -23 14 -17 -1 4 -11 1 -16 -10 -16 -18 0 -20 8
-7 29 5 8 16 11 25 8 9 -4 16 -2 16 3 0 5 -8 11 -17 13 -11 3 -8 4 7 4 20 -1
25 -6 25 -28z m305 21 c0 -5 -2 -10 -4 -10 -3 0 -8 5 -11 10 -3 6 -1 10 4 10
6 0 11 -4 11 -10z m219 -4 c10 -12 8 -17 -8 -26 -12 -6 -21 -9 -22 -8 -8 33
-7 48 5 48 7 0 19 -6 25 -14z m-52 -18 c-3 -8 -6 -5 -6 6 -1 11 2 17 5 13 3
-3 4 -12 1 -19z m-263 -23 c19 -14 11 -21 -17 -16 -8 1 -5 -27 8 -67 5 -14 13
-21 21 -18 8 3 14 1 14 -4 0 -6 12 -10 26 -10 14 0 23 4 19 10 -3 5 -12 7 -20
3 -8 -3 -15 0 -15 7 0 6 5 8 10 5 6 -3 10 0 10 7 1 8 6 6 15 -6 19 -25 19 -36
1 -36 -8 0 -17 -3 -20 -8 -2 -4 11 -7 29 -6 31 2 33 0 22 -17 -13 -21 -23 -24
-32 -9 -4 6 -11 8 -16 5 -5 -4 -13 5 -18 19 -8 19 -15 23 -32 19 -15 -4 -20
-3 -15 5 4 7 5 12 2 12 -2 0 -12 3 -22 7 -13 5 -15 3 -9 -8 7 -12 6 -12 -6 0
-11 10 -11 15 -2 18 10 3 9 8 -2 20 -8 8 -12 19 -9 24 3 6 -2 17 -12 25 -18
14 -18 15 1 6 14 -7 24 -6 32 3 10 11 10 15 0 18 -8 4 -7 6 3 6 8 0 24 -6 34
-14z m249 -10 c-5 -13 -23 -22 -23 -11 0 15 14 35 21 31 4 -3 6 -12 2 -20z
m-40 -4 c8 -8 7 -11 -6 -11 -9 0 -17 4 -17 9 0 5 -9 7 -20 4 -11 -3 -20 -1
-20 5 0 13 48 8 63 -7z m-3 -27 c0 -2 -7 -4 -15 -4 -8 0 -15 4 -15 10 0 5 7 7
15 4 8 -4 15 -8 15 -10z m-116 -155 c-7 -13 -31 -11 -40 3 -4 7 -3 8 4 4 7 -4
12 -3 12 3 0 6 7 8 15 5 8 -4 12 -10 9 -15z"/>
<path d="M1357 2264 c-13 -18 -14 -22 -3 -18 8 3 17 13 20 21 10 25 3 23 -17
-3z"/>
<path d="M1317 2225 c3 -8 9 -12 14 -9 12 7 11 11 -5 17 -10 4 -13 1 -9 -8z"/>
<path d="M1717 2189 c7 -7 15 -10 18 -7 3 3 -2 9 -12 12 -14 6 -15 5 -6 -5z"/>
<path d="M1616 2082 c-3 -6 -1 -14 5 -17 14 -9 20 -2 10 14 -6 8 -11 9 -15 3z"/>
<path d="M1200 2070 c0 -7 -7 -9 -16 -6 -8 3 -13 2 -9 -3 3 -5 0 -11 -7 -13
-9 -3 -9 -6 0 -12 7 -4 12 -2 12 5 0 9 3 9 14 0 11 -9 15 -7 19 9 3 11 1 23
-4 26 -5 3 -9 0 -9 -6z"/>
<path d="M1655 2000 c-10 -11 -15 -20 -10 -20 4 0 2 -7 -5 -15 -10 -12 -10
-19 -2 -27 9 -9 12 -9 12 1 0 7 9 24 20 38 33 42 20 62 -15 23z"/>
<path d="M2183 1935 c0 -8 4 -15 9 -15 5 0 6 -6 2 -12 -5 -9 -2 -9 9 1 15 12
17 11 17 -3 0 -14 2 -15 14 -4 8 7 10 15 4 17 -5 1 -1 9 9 16 13 10 14 13 3
12 -8 -2 -21 -6 -28 -11 -7 -4 -19 -3 -26 3 -9 8 -13 7 -13 -4z"/>
<path d="M2060 1850 c-9 -6 -10 -10 -3 -10 6 0 15 5 18 10 8 12 4 12 -15 0z"/>
<path d="M2195 1701 c-6 -11 21 -41 38 -41 7 0 13 -15 14 -33 2 -25 0 -29 -8
-17 -9 13 -10 13 -6 0 2 -8 10 -14 16 -12 6 1 11 -2 11 -8 0 -5 -7 -10 -15
-10 -8 0 -24 -9 -34 -19 -11 -11 -23 -16 -27 -13 -3 4 -4 0 -2 -8 3 -8 11 -14
18 -12 7 2 10 -3 7 -12 -6 -15 19 -30 34 -20 6 3 17 0 26 -8 12 -9 15 -10 9 0
-4 7 -1 15 8 18 9 3 16 14 16 24 0 16 -5 17 -30 10 -19 -6 -32 -5 -36 2 -5 7
-2 8 6 3 10 -6 12 -4 6 10 -5 15 -4 16 9 5 13 -11 14 -10 8 6 -6 16 -5 17 9 6
11 -9 18 -10 23 -2 3 5 -1 10 -9 10 -15 0 -20 14 -19 48 1 6 -4 12 -9 12 -6 0
-5 6 2 15 12 15 6 35 -11 35 -6 0 -7 -4 -4 -10 10 -17 -12 -11 -26 7 -10 11
-10 14 -1 9 6 -4 12 -2 12 3 0 13 -27 14 -35 2z"/>
<path d="M2157 1667 c-6 -16 6 -30 36 -40 11 -4 15 -12 11 -18 -4 -7 -3 -9 3
-6 12 8 24 47 14 45 -10 -2 -45 15 -52 25 -3 5 -9 2 -12 -6z m40 -23 c-3 -3
-12 -4 -19 -1 -8 3 -5 6 6 6 11 1 17 -2 13 -5z"/>
<path d="M2087 1564 c-3 -3 -3 -12 0 -20 4 -10 8 -11 18 -1 7 7 11 15 8 20 -5
9 -17 9 -26 1z"/>
<path d="M2395 1500 c3 -5 8 -10 11 -10 2 0 4 5 4 10 0 6 -5 10 -11 10 -5 0
-7 -4 -4 -10z"/>
<path d="M2255 1467 c8 -13 13 -26 10 -29 -3 -2 2 -5 10 -5 20 0 19 9 -4 35
-25 29 -35 28 -16 -1z"/>
<path d="M2321 1403 c-16 -17 -12 -23 11 -14 10 3 14 11 10 17 -5 9 -11 8 -21
-3z"/>
<path d="M1226 1921 c-4 -6 -3 -18 2 -27 8 -14 10 -14 15 -2 7 19 -8 44 -17
29z"/>
<path d="M1230 1830 c0 -5 7 -7 15 -4 8 4 15 8 15 10 0 2 -7 4 -15 4 -8 0 -15
-4 -15 -10z"/>
<path d="M1850 1909 c0 -5 4 -8 9 -4 5 3 12 1 16 -5 3 -5 1 -10 -6 -10 -7 0
-10 -3 -6 -6 3 -4 14 -4 23 0 16 6 15 8 -2 21 -23 17 -34 19 -34 4z"/>
<path d="M1945 1890 c3 -6 0 -10 -7 -10 -10 0 -9 -3 2 -9 15 -10 30 -6 30 9 0
4 -7 11 -16 14 -8 3 -12 2 -9 -4z"/>
<path d="M1930 1836 c8 -23 50 -54 50 -37 0 6 -4 11 -10 11 -5 0 -10 7 -10 15
0 8 5 15 10 15 6 0 10 3 10 8 0 4 -13 7 -29 7 -25 1 -28 -2 -21 -19z"/>
<path d="M2058 1708 c5 -5 16 -8 23 -6 8 3 3 7 -10 11 -17 4 -21 3 -13 -5z"/>
<path d="M1597 1862 c-19 -21 -11 -38 9 -21 8 6 11 16 7 23 -4 6 2 4 12 -4 15
-13 17 -13 14 -1 -8 22 -24 23 -42 3z"/>
<path d="M1118 1803 c7 -3 16 -2 19 1 4 3 -2 6 -13 5 -11 0 -14 -3 -6 -6z"/>
<path d="M1154 1712 c4 -7 2 -20 -3 -31 -9 -16 -8 -18 7 -14 21 5 23 44 2 51
-7 3 -10 0 -6 -6z"/>
<path d="M949 1803 c-13 -16 -12 -17 4 -4 9 7 17 15 17 17 0 8 -8 3 -21 -13z"/>
<path d="M1610 1709 c0 -5 5 -7 10 -4 6 3 10 8 10 11 0 2 -4 4 -10 4 -5 0 -10
-5 -10 -11z"/>
<path d="M2414 1629 c-1 -24 2 -27 17 -19 10 6 25 7 33 4 10 -4 16 -1 16 7 0
7 -3 9 -7 6 -3 -4 -11 1 -18 10 -20 27 -40 24 -41 -8z"/>
<path d="M2596 1705 c4 -8 10 -12 15 -9 11 6 2 24 -11 24 -5 0 -7 -7 -4 -15z"/>
<path d="M1314 1638 c-3 -4 0 -8 5 -8 6 0 11 -8 12 -17 0 -15 2 -15 9 2 5 11
9 23 9 26 1 9 -29 7 -35 -3z"/>
<path d="M1105 1570 c3 -5 11 -10 16 -10 6 0 7 5 4 10 -3 6 -11 10 -16 10 -6
0 -7 -4 -4 -10z"/>
<path d="M1310 1565 c-11 -13 -11 -18 0 -28 10 -10 12 -9 7 5 -3 9 -1 19 6 21
7 2 9 7 6 11 -3 4 -12 -1 -19 -9z"/>
<path d="M1235 1560 c-3 -5 -1 -10 4 -10 6 0 11 5 11 10 0 6 -2 10 -4 10 -3 0
-8 -4 -11 -10z"/>
<path d="M1210 1544 c0 -8 5 -13 11 -11 6 1 14 -4 17 -12 3 -8 0 -11 -7 -7 -6
4 -11 1 -12 -6 -1 -7 -2 -28 -4 -45 -1 -18 1 -30 6 -27 5 3 13 -5 18 -18 8
-18 10 -19 10 -5 1 13 7 17 24 15 12 -2 25 -7 29 -13 4 -5 10 -6 14 -2 11 10
-37 57 -55 55 -24 -4 -27 40 -3 50 17 6 15 9 -14 23 -28 13 -34 14 -34 3z m40
-95 c0 -6 -4 -7 -10 -4 -5 3 -10 11 -10 16 0 6 5 7 10 4 6 -3 10 -11 10 -16z"/>
<path d="M1281 1508 c-13 -21 -6 -33 24 -38 6 -1 16 -6 23 -12 9 -8 12 -6 12
6 0 9 5 16 11 16 16 0 0 19 -30 34 -25 13 -28 13 -40 -6z m24 -8 c-3 -5 2 -10
12 -10 15 0 16 -2 3 -10 -9 -6 -17 -5 -22 3 -6 11 -2 27 8 27 3 0 2 -4 -1 -10z"/>
<path d="M1190 1411 c0 -5 5 -13 10 -16 6 -3 10 -2 10 4 0 5 -4 13 -10 16 -5
3 -10 2 -10 -4z"/>
<path d="M1240 1320 c0 -11 2 -20 4 -20 2 0 6 9 9 20 3 11 1 20 -4 20 -5 0 -9
-9 -9 -20z"/>
<path d="M1131 1316 c-9 -11 -8 -15 5 -20 12 -5 15 -2 10 11 -6 17 -5 17 8 0
12 -16 14 -16 20 -2 3 9 2 13 -4 10 -6 -3 -10 -1 -10 4 0 15 -15 14 -29 -3z"/>
<path d="M1568 1650 c-12 -21 -13 -31 -4 -40 8 -8 5 -16 -14 -30 -14 -11 -21
-20 -17 -20 5 0 1 -10 -7 -22 -21 -29 -20 -38 2 -38 10 0 27 -6 38 -14 13 -10
25 -11 35 -5 12 7 11 9 -2 9 -9 0 -20 7 -23 16 -4 10 -13 13 -28 9 -21 -5 -21
-5 -5 5 15 9 22 8 36 -4 22 -20 32 -20 25 -1 -4 9 0 15 10 15 9 0 16 5 16 11
0 5 4 8 9 4 5 -3 12 -1 15 4 12 19 -27 21 -44 1 -19 -22 -28 -24 -49 -11 -12
7 -10 14 7 36 15 19 19 32 13 44 -6 10 -5 24 1 35 5 9 8 19 6 21 -2 2 -11 -9
-20 -25z"/>
<path d="M1685 1551 c-3 -6 -1 -11 5 -11 6 0 8 -5 5 -10 -4 -6 -11 -8 -16 -4
-15 9 -6 -20 11 -33 19 -16 38 -17 22 -1 -18 18 -15 31 5 24 14 -6 14 -4 -2
16 -11 13 -21 24 -21 26 -1 2 -5 -1 -9 -7z"/>
<path d="M1843 1514 c-6 -13 -8 -22 -3 -19 7 4 24 -23 22 -35 0 -3 8 -6 18 -6
10 0 16 6 13 13 -3 7 -10 11 -16 10 -7 -1 -12 10 -12 25 -1 37 -8 41 -22 12z"/>
<path d="M1002 1493 c6 -7 14 -10 19 -7 15 9 10 20 -10 20 -15 0 -17 -3 -9
-13z"/>
<path d="M886 1434 c-11 -8 -15 -14 -9 -14 6 0 10 -12 8 -27 -2 -25 -2 -26 11
-9 7 11 11 22 9 27 -3 4 1 9 7 12 9 3 10 8 3 15 -7 7 -16 6 -29 -4z"/>
<path d="M1605 1260 c3 -6 -1 -13 -10 -16 -13 -5 -14 -9 -4 -15 7 -4 19 -3 26
2 13 11 7 39 -9 39 -5 0 -6 -5 -3 -10z"/>
<path d="M2126 1370 c-1 -3 -1 -11 0 -17 1 -7 2 -18 3 -24 1 -8 6 -8 16 1 9 7
13 15 10 18 -3 3 -1 10 5 16 6 8 3 12 -11 12 -11 0 -22 -3 -23 -6z"/>
<path d="M2560 1223 c0 -3 7 -15 17 -25 15 -17 15 -18 -3 -18 -16 0 -17 -2 -4
-10 22 -14 27 -12 33 10 3 11 1 20 -5 20 -6 0 -8 7 -4 15 4 10 -1 15 -14 15
-11 0 -20 -3 -20 -7z"/>
<path d="M2600 1120 c0 -5 5 -10 11 -10 5 0 7 5 4 10 -3 6 -8 10 -11 10 -2 0
-4 -4 -4 -10z"/>
<path d="M2614 969 c-3 -6 -2 -15 4 -21 15 -15 56 -5 60 15 3 13 -3 17 -27 17
-16 0 -33 -5 -37 -11z"/>
<path d="M3000 1118 c0 -5 -4 -7 -9 -4 -4 3 -17 -2 -27 -10 -18 -15 -18 -15 0
-10 18 6 18 5 2 -19 -12 -18 -13 -24 -4 -23 7 2 12 -2 11 -9 -1 -6 4 -14 12
-17 9 -3 15 1 15 10 0 8 -7 17 -16 21 -15 6 -15 7 1 19 9 7 22 11 28 10 7 -2
9 -1 5 1 -14 8 -8 21 10 25 14 3 13 5 -5 10 -13 3 -23 2 -23 -4z"/>
<path d="M2060 1220 c0 -5 5 -10 11 -10 5 0 7 5 4 10 -3 6 -8 10 -11 10 -2 0
-4 -4 -4 -10z"/>
<path d="M2220 1071 c0 -25 6 -27 13 -6 4 8 2 17 -3 20 -6 4 -10 -3 -10 -14z"/>
<path d="M2175 1040 c-16 -7 -17 -9 -3 -9 9 -1 20 4 23 9 7 11 7 11 -20 0z"/>
<path d="M2070 994 c0 -3 6 -12 14 -19 17 -17 30 -7 15 12 -12 13 -29 18 -29
7z"/>
<path d="M2376 1047 c3 -10 9 -15 12 -12 3 3 0 11 -7 18 -10 9 -11 8 -5 -6z"/>
<path d="M2160 829 c0 -5 5 -7 10 -4 6 3 10 8 10 11 0 2 -4 4 -10 4 -5 0 -10
-5 -10 -11z"/>
<path d="M3030 989 c0 -5 -4 -7 -10 -4 -5 3 -10 2 -10 -4 0 -20 19 -21 30 -1
7 13 7 20 0 20 -5 0 -10 -5 -10 -11z"/>
<path d="M2020 960 c0 -5 5 -10 11 -10 5 0 7 5 4 10 -3 6 -8 10 -11 10 -2 0
-4 -4 -4 -10z"/>
<path d="M2200 799 c0 -5 5 -7 10 -4 6 3 10 8 10 11 0 2 -4 4 -10 4 -5 0 -10
-5 -10 -11z"/>
<path d="M2105 761 c-2 -5 6 -7 18 -7 12 1 28 -2 35 -7 12 -10 30 -2 20 8 -9
10 -68 14 -73 6z"/>
<path d="M2235 723 c-10 -24 -14 -43 -9 -43 7 0 25 52 21 57 -3 2 -8 -4 -12
-14z"/>
<path d="M1939 693 c-8 -22 -12 -24 -19 -13 -5 8 -12 11 -16 7 -4 -3 -1 -13 5
-21 10 -12 18 -13 37 -4 13 6 24 15 24 20 0 5 -5 6 -11 2 -8 -4 -9 0 -4 15 9
31 -4 26 -16 -6z"/>
<path d="M1976 621 c-4 -5 3 -7 14 -4 23 6 26 13 6 13 -8 0 -17 -4 -20 -9z"/>
<path d="M2035 530 c-3 -5 1 -10 10 -10 9 0 13 5 10 10 -3 6 -8 10 -10 10 -2
0 -7 -4 -10 -10z"/>
<path d="M2100 2218 c0 -8 7 -15 15 -15 18 0 15 19 -3 25 -7 2 -12 -3 -12 -10z"/>
<path d="M1830 2176 c0 -9 -9 -24 -20 -33 -11 -10 -20 -21 -20 -26 0 -5 6 -4
14 2 11 9 15 8 20 -5 4 -9 9 -14 13 -10 4 3 19 -6 35 -21 15 -15 28 -21 28
-14 0 7 4 9 10 6 5 -3 7 0 4 8 -3 9 -13 13 -24 10 -16 -4 -19 2 -22 43 -2 37
-7 50 -20 52 -11 2 -18 -3 -18 -12z m30 -34 c0 -17 -5 -29 -13 -29 -8 0 -12 9
-11 21 1 12 3 24 3 29 1 4 6 7 11 7 6 0 10 -13 10 -28z"/>
<path d="M2302 2149 c-7 -12 -10 -24 -6 -27 4 -4 9 -2 11 5 2 7 12 9 21 6 13
-4 14 -3 3 5 -7 5 -10 15 -7 21 4 6 3 11 -1 11 -5 0 -14 -9 -21 -21z"/>
<path d="M2210 2115 c7 -8 16 -12 21 -9 13 8 1 24 -18 24 -13 0 -13 -3 -3 -15z"/>
<path d="M1901 1961 c-8 -5 -21 -7 -30 -4 -10 4 -9 0 4 -10 11 -8 20 -15 20
-14 1 1 7 10 14 20 15 19 13 21 -8 8z"/>
<path d="M2070 1960 c-8 -5 -11 -12 -7 -16 4 -4 13 -2 19 4 15 15 7 24 -12 12z"/>
<path d="M1750 1840 c0 -5 8 -11 18 -13 16 -4 16 -5 0 -6 -10 0 -18 -6 -18
-12 0 -5 -4 -7 -10 -4 -5 3 -10 1 -10 -5 0 -6 13 -8 33 -5 28 4 30 4 15 -9
-10 -7 -18 -18 -18 -24 0 -16 41 -5 59 15 15 16 15 16 -1 4 -16 -12 -18 -11
-20 5 0 11 0 28 0 39 2 15 -5 20 -23 21 -14 1 -25 -2 -25 -6z"/>
<path d="M1803 1753 c-20 -8 -15 -23 7 -23 11 0 20 7 20 15 0 15 -6 17 -27 8z"/>
<path d="M1766 1434 c-4 -9 -4 -19 -1 -22 2 -3 7 3 11 12 4 9 4 19 1 22 -2 3
-7 -3 -11 -12z"/>
<path d="M2610 1403 c0 -4 5 -15 10 -23 8 -13 10 -13 10 2 0 9 -4 20 -10 23
-5 3 -10 3 -10 -2z"/>
<path d="M3402 1290 c-10 -17 -10 -21 3 -26 20 -8 19 -31 -2 -37 -16 -4 -17
-5 -1 -6 19 -1 54 62 43 78 -10 17 -29 13 -43 -9z"/>
<path d="M1500 1270 c0 -5 5 -10 10 -10 6 0 10 5 10 10 0 6 -4 10 -10 10 -5 0
-10 -4 -10 -10z"/>
<path d="M3208 1073 c-9 -3 -20 -13 -23 -24 -4 -11 -10 -17 -15 -14 -5 3 -11
1 -15 -5 -4 -6 -11 -8 -16 -5 -14 9 -10 -18 6 -39 13 -17 15 -18 15 -3 0 27
37 52 70 49 17 -2 30 1 30 6 0 16 -34 39 -52 35z"/>
<path d="M3060 901 c0 -6 7 -8 15 -5 8 4 15 1 15 -5 0 -6 -4 -11 -8 -11 -5 0
-7 -13 -4 -30 7 -45 21 -36 19 12 -2 32 -6 44 -19 46 -10 2 -18 -1 -18 -7z"/>
<path d="M3026 852 c-8 -14 17 -27 34 -17 13 8 13 25 -1 25 -5 0 -7 -4 -4 -10
3 -5 2 -10 -4 -10 -5 0 -11 5 -13 12 -3 9 -6 9 -12 0z"/>
</g>
</svg>
