<?xml version="1.0" standalone="no"?>
<!DOCTYPE svg PUBLIC "-//W3C//DTD SVG 20010904//EN"
 "http://www.w3.org/TR/2001/REC-SVG-20010904/DTD/svg10.dtd">
<svg version="1.0" xmlns="http://www.w3.org/2000/svg"
 width="368.000000pt" height="248.000000pt" viewBox="0 0 368.000000 248.000000"
 preserveAspectRatio="xMidYMid meet">
<metadata>
Created by potrace 1.16, written by Peter Selinger 2001-2019
</metadata>
<g transform="translate(0.000000,248.000000) scale(0.100000,-0.100000)"
fill="#000000" stroke="none">
<path d="M0 1240 l0 -1240 1840 0 1840 0 0 1240 0 1240 -1840 0 -1840 0 0
-1240z m1465 1095 c39 -10 90 -19 115 -20 68 -4 183 -16 203 -22 10 -3 23 -18
28 -33 8 -22 18 -29 47 -32 57 -7 183 10 219 29 26 14 36 15 58 5 22 -10 33
-9 67 8 28 13 59 19 105 18 59 -1 68 -4 114 -40 51 -42 65 -70 56 -117 -4 -20
0 -32 13 -44 10 -9 24 -34 31 -56 10 -34 9 -44 -5 -66 -20 -30 -15 -67 17
-132 19 -41 23 -43 64 -43 110 0 154 -77 99 -173 -16 -29 -21 -50 -17 -67 4
-14 4 -49 0 -79 -7 -52 -7 -54 31 -90 24 -22 42 -52 49 -78 12 -42 12 -43 56
-43 42 0 46 2 65 39 26 52 42 60 112 53 49 -4 66 -1 98 17 45 25 125 51 158
51 14 0 35 -13 50 -30 22 -25 34 -30 70 -30 95 0 139 -44 111 -113 -20 -51
-37 -65 -88 -72 -57 -8 -111 -38 -111 -62 0 -9 5 -31 12 -49 10 -29 9 -36 -7
-54 -10 -11 -28 -20 -39 -20 -12 -1 -39 -16 -60 -36 -31 -26 -37 -37 -28 -46
20 -20 13 -51 -21 -92 -31 -37 -35 -38 -76 -31 -26 4 -51 16 -63 31 -42 47
-125 40 -175 -15 -20 -22 -42 -34 -74 -40 -62 -11 -178 -76 -189 -106 -9 -23
-34 -43 -176 -139 -77 -51 -124 -99 -124 -126 0 -6 -17 -27 -37 -45 -59 -54
-101 -46 -139 26 -12 25 -19 29 -37 23 -65 -23 -99 5 -95 76 l3 45 -108 5
c-134 6 -142 13 -132 107 7 64 -5 104 -40 133 -33 28 -51 88 -62 215 -7 87
-12 96 -68 134 -45 30 -49 31 -172 33 -124 1 -125 2 -145 29 -14 18 -33 29
-61 33 -23 4 -47 12 -55 18 -7 7 -44 13 -81 14 -37 1 -90 11 -117 22 -43 16
-53 17 -71 5 -16 -11 -47 -12 -150 -6 -74 5 -144 4 -162 -1 -25 -7 -35 -5 -51
9 -49 44 -15 91 137 187 67 43 93 65 97 85 4 14 23 44 42 66 21 25 34 51 34
68 0 28 17 51 51 69 14 8 19 22 19 54 0 33 7 52 31 82 17 22 37 43 45 47 8 5
14 24 14 46 0 24 8 49 23 68 84 115 93 125 120 130 21 4 37 20 59 54 22 37 42
54 86 76 31 15 59 30 62 33 13 17 48 30 70 26 14 -2 57 -12 95 -21z"/>
<path d="M1350 2313 c-8 -4 -21 -14 -28 -25 -7 -10 -20 -18 -29 -18 -34 0 -91
-43 -109 -83 -20 -42 -32 -52 -76 -61 -15 -4 -29 -14 -32 -24 -4 -9 -24 -37
-46 -61 -35 -39 -40 -50 -40 -93 0 -43 -3 -50 -25 -58 -14 -5 -25 -16 -25 -24
0 -9 -9 -20 -20 -26 -15 -8 -18 -17 -13 -41 7 -36 -23 -99 -49 -99 -23 0 -32
-18 -18 -35 14 -17 5 -34 -57 -98 -12 -13 -25 -35 -28 -50 -8 -29 -36 -56
-110 -102 -27 -16 -66 -41 -88 -55 -43 -27 -66 -55 -54 -66 4 -4 16 1 27 11
12 11 26 15 37 10 33 -14 76 -15 90 -3 11 9 16 9 21 0 4 -6 30 -12 57 -13 28
-1 52 -6 55 -10 12 -18 32 11 32 45 0 29 3 36 15 32 11 -5 13 -2 9 10 -3 8 -6
20 -6 25 0 4 -7 6 -15 3 -8 -4 -15 -10 -15 -16 0 -5 6 -6 13 -3 6 4 4 0 -7 -9
-10 -8 -15 -19 -12 -25 4 -5 2 -12 -4 -16 -6 -3 -14 4 -19 17 -7 15 -10 17
-10 7 -1 -18 22 -42 33 -34 3 3 2 0 -3 -6 -16 -19 -46 -5 -47 21 -2 45 -4 48
-23 43 -13 -3 -21 2 -26 17 l-7 21 -19 -22 c-18 -21 -19 -21 -19 -3 0 29 37
49 58 32 15 -12 16 -11 3 5 -14 17 -5 22 23 11 19 -7 9 -34 -13 -34 -9 0 -5
-6 13 -15 31 -16 56 -19 57 -7 0 4 1 27 2 52 2 40 4 45 27 45 18 0 26 6 28 23
2 13 9 21 15 19 12 -5 13 -8 2 -42 -4 -15 -3 -15 6 3 14 26 33 24 37 -4 3 -16
1 -16 -7 -4 -9 13 -11 13 -11 -2 0 -10 -7 -18 -15 -18 -8 0 -15 -4 -15 -10 0
-5 -5 -10 -11 -10 -6 0 -9 7 -5 15 3 10 -1 15 -14 15 -28 0 -33 -17 -7 -25
l22 -8 -22 -4 c-13 -2 -23 -9 -23 -14 0 -6 9 -7 20 -4 11 3 20 3 21 -2 0 -4 2
-17 4 -28 2 -10 -1 -25 -7 -32 -6 -8 -9 -14 -7 -16 39 -22 74 -37 88 -37 10 0
21 -3 25 -7 3 -4 16 -8 29 -10 23 -3 27 -3 89 -2 22 1 44 -5 53 -15 13 -13
105 -34 126 -28 4 0 6 -4 6 -11 -1 -36 5 -47 23 -47 11 0 20 4 20 10 0 11 50
7 70 -5 7 -4 16 -2 22 6 7 11 11 11 15 2 2 -7 9 -13 14 -13 6 0 7 6 3 13 -6 9
-4 9 7 -1 16 -15 39 -16 39 -1 0 5 -5 7 -12 3 -7 -4 -8 -3 -4 5 6 9 11 9 22 0
7 -6 20 -9 27 -6 14 5 59 -27 50 -36 -3 -4 6 -11 21 -17 37 -14 63 -40 71 -71
6 -23 11 -26 35 -23 18 3 29 0 33 -10 4 -9 13 -13 20 -10 11 4 14 -5 11 -43
-2 -31 0 -43 5 -34 5 8 7 21 3 30 -3 9 -2 13 3 9 4 -4 8 -18 9 -30 0 -13 7
-24 14 -24 32 -4 35 -7 12 -13 -16 -4 -30 -2 -38 6 -8 7 -17 11 -21 8 -8 -5
-5 49 4 73 3 7 1 11 -4 7 -5 -3 -16 1 -24 9 -24 24 -49 13 -53 -23 -3 -20 0
-30 6 -26 6 3 10 2 10 -3 0 -6 9 -8 20 -5 15 4 20 0 20 -16 0 -11 -4 -21 -10
-21 -5 0 -10 4 -10 9 0 5 -9 11 -21 14 -16 4 -19 2 -13 -11 4 -9 8 -33 9 -52
0 -19 5 -42 10 -50 6 -8 15 -24 21 -35 6 -11 16 -19 22 -18 7 2 11 0 10 -5 -2
-11 22 -65 38 -83 12 -13 12 -22 -2 -62 -9 -26 -14 -52 -12 -59 3 -9 36 -13
117 -14 61 0 106 3 99 8 -7 4 -10 8 -5 9 4 1 12 3 17 4 6 1 17 3 26 4 8 0 12
6 9 11 -3 6 3 10 15 10 12 0 18 4 15 10 -3 6 1 7 9 4 9 -3 16 -10 16 -16 0 -5
-4 -7 -9 -3 -5 3 -16 -4 -24 -15 -8 -12 -18 -20 -23 -19 -20 3 -26 -2 -16 -13
6 -9 7 -32 1 -68 -10 -61 2 -88 25 -57 15 19 41 23 51 7 5 -8 11 -8 20 0 10 8
15 4 21 -17 4 -16 8 -32 8 -36 1 -5 9 -14 18 -21 10 -7 14 -17 10 -22 -4 -4
10 5 30 21 20 17 37 38 37 47 1 29 61 88 146 145 131 88 150 103 155 125 4 14
36 39 87 68 46 26 80 50 77 53 -3 3 3 3 15 0 24 -6 26 0 11 28 -12 21 -3 24
21 6 9 -7 14 -18 11 -26 -3 -10 0 -12 12 -8 10 4 21 7 24 7 4 0 13 13 19 28
22 50 111 66 205 37 53 -16 64 -9 46 29 -10 23 -9 28 8 40 10 8 22 12 26 9 5
-2 22 5 38 17 21 15 30 17 31 8 0 -7 5 -2 10 12 13 31 36 45 72 41 31 -3 34 5
11 30 -18 21 -51 14 -59 -12 -4 -11 -10 -17 -15 -14 -5 3 -11 1 -15 -5 -4 -6
-11 -8 -16 -5 -5 4 -9 -1 -9 -10 0 -19 -22 -15 -28 5 -3 7 0 10 7 6 6 -4 11
-3 11 3 0 5 -9 9 -19 8 -11 0 -17 -6 -13 -12 3 -5 -2 -4 -11 4 -9 7 -14 17
-11 23 3 5 2 15 -3 21 -4 7 -1 5 8 -5 25 -26 87 -30 102 -7 7 11 20 19 30 19
13 0 17 5 13 15 -3 8 -1 14 5 12 6 -1 16 13 22 32 17 49 68 75 154 80 26 1 62
66 46 82 -10 10 -49 13 -104 9 -26 -2 -69 29 -69 49 0 19 -19 21 -73 7 -54
-14 -112 -44 -103 -53 3 -3 1 -16 -4 -29 -6 -15 -6 -24 0 -24 6 0 10 8 10 18
0 13 2 14 9 4 7 -11 9 -11 14 2 4 9 13 16 21 16 10 0 13 -6 10 -15 -4 -8 -10
-13 -14 -10 -4 3 -11 -2 -14 -11 -3 -8 -10 -12 -16 -9 -6 3 -13 -1 -16 -9 -3
-9 -10 -13 -15 -10 -5 3 -12 -2 -15 -10 -8 -20 -24 -21 -24 -2 0 7 9 16 21 19
12 3 18 10 15 16 -4 6 -2 20 4 31 6 12 7 20 1 20 -5 0 -12 -14 -16 -31 -5 -22
-10 -28 -18 -20 -7 7 -7 14 2 24 16 20 -13 31 -40 17 -13 -8 -19 -7 -19 0 0 6
-5 8 -11 4 -6 -3 -15 -1 -19 6 -4 7 -13 9 -19 6 -6 -4 -9 -11 -6 -16 3 -4 -2
-10 -10 -14 -19 -7 -19 -26 0 -26 8 0 15 4 15 9 0 5 9 11 20 14 16 4 18 2 10
-13 -6 -10 -19 -22 -30 -25 -11 -3 -20 -10 -20 -14 0 -4 -10 -7 -22 -6 -27 2
-49 -5 -44 -14 2 -3 -9 -6 -25 -6 -16 0 -29 3 -29 7 0 4 -16 4 -35 1 -32 -5
-35 -4 -35 19 0 17 -8 29 -25 36 -14 6 -25 17 -24 24 0 10 2 10 6 1 2 -7 11
-13 19 -13 17 0 17 1 4 35 -8 21 -14 25 -31 20 -18 -6 -20 -4 -14 14 7 22 -1
26 -29 15 -9 -3 -14 -10 -11 -14 3 -5 2 -11 -3 -14 -5 -3 -9 0 -9 7 -1 7 -6
27 -11 45 -6 19 -7 30 -1 27 5 -4 13 5 18 18 6 14 15 28 22 33 9 5 8 10 -5 19
-15 12 -15 14 -1 29 14 14 13 19 -5 18 -7 -1 -4 57 3 65 4 3 7 15 7 26 0 11 3
17 7 14 10 -11 32 26 33 56 0 21 -6 30 -20 34 -11 3 -20 9 -20 13 0 13 -77 5
-94 -9 -20 -16 -19 -17 -35 37 -6 23 -16 42 -21 42 -5 0 -12 20 -15 45 -4 24
-13 49 -21 55 -15 13 -3 56 21 74 20 15 1 69 -29 82 -22 9 -24 31 -11 86 6 24
3 30 -29 49 -20 11 -33 25 -30 30 9 15 -23 21 -46 9 -16 -9 -25 -9 -36 0 -20
18 -64 4 -64 -20 0 -24 -9 -26 -24 -5 -10 13 -13 12 -24 -6 -13 -20 -12 -21 7
-16 12 3 24 0 28 -5 4 -7 11 -4 20 7 9 14 13 15 13 4 1 -11 4 -10 14 4 16 21
26 22 26 2 0 -8 -6 -15 -14 -15 -8 0 -16 -5 -18 -12 -5 -15 -38 -20 -38 -5 0
5 -3 8 -6 4 -3 -3 -23 1 -44 8 -21 7 -40 11 -43 9 -3 -3 -4 2 -3 12 0 9 -5 19
-13 22 -10 3 -13 -1 -9 -14 4 -17 -1 -20 -36 -20 -51 -1 -157 -12 -162 -17 -2
-2 -6 -19 -9 -38 -3 -19 -3 -28 1 -21 3 6 10 9 15 6 6 -3 18 1 28 10 10 9 22
16 27 15 21 -4 28 2 14 11 -11 7 -6 9 18 6 17 -2 32 1 32 5 0 5 7 9 15 9 8 0
15 -4 15 -10 0 -9 -20 -14 -46 -11 -6 1 -11 -6 -11 -14 0 -9 6 -14 14 -11 10
4 12 -2 8 -22 -4 -20 -3 -22 3 -8 8 18 9 18 15 2 4 -10 1 -19 -8 -22 -12 -5
-11 -9 5 -23 20 -16 20 -16 -5 -28 -24 -11 -25 -10 -25 25 0 29 -3 34 -11 22
-8 -11 -9 -7 -4 17 4 18 2 34 -4 38 -7 3 -11 -2 -11 -14 0 -12 -5 -21 -11 -21
-5 0 -8 4 -4 9 3 5 1 12 -5 16 -5 3 -10 1 -10 -4 0 -6 -7 -11 -15 -11 -8 0
-15 -5 -15 -11 0 -5 5 -7 10 -4 15 9 50 -4 50 -20 0 -7 6 -16 13 -18 10 -4 10
-6 0 -6 -21 -1 -23 -1 -20 2 1 2 -6 12 -16 21 -22 22 -36 13 -16 -10 11 -13
11 -15 -2 -14 -27 4 -49 0 -49 -9 0 -5 16 -7 35 -4 21 3 35 0 35 -6 0 -6 -11
-12 -25 -12 -14 -1 -31 -2 -37 -3 -7 -1 -16 5 -21 14 -5 10 -6 8 -3 -8 2 -12
0 -20 -5 -16 -5 3 -9 0 -9 -5 0 -6 5 -11 10 -11 6 0 9 -3 9 -7 -3 -19 2 -23
19 -14 11 6 24 6 32 1 9 -6 17 -5 22 3 5 8 8 6 8 -6 0 -14 -5 -17 -20 -12 -11
3 -20 2 -20 -3 0 -6 20 -9 45 -9 34 2 45 -2 45 -13 1 -12 3 -11 11 3 6 9 15
14 21 11 7 -4 8 -2 4 4 -4 6 2 17 14 24 11 7 20 18 20 25 0 15 26 18 34 4 3
-5 -1 -12 -10 -15 -8 -3 -13 -10 -9 -16 3 -5 1 -19 -5 -31 -13 -23 1 -51 14
-30 11 18 36 13 29 -5 -4 -10 -14 -14 -30 -11 -14 3 -27 -1 -32 -11 -5 -10
-10 -11 -15 -4 -4 8 -14 4 -27 -9 -17 -17 -18 -23 -7 -37 8 -9 8 -13 1 -9 -6
4 -14 2 -16 -3 -3 -6 -4 -5 -3 2 2 7 -1 21 -6 31 -8 16 -5 19 18 16 10 -1 33
35 28 43 -3 5 0 8 5 8 6 0 11 -7 11 -16 0 -8 5 -12 10 -9 7 4 6 13 -1 26 -9
19 -13 19 -32 6 -12 -8 -22 -19 -22 -25 0 -20 -50 -50 -81 -47 -23 2 -30 -2
-31 -16 -1 -11 3 -19 8 -19 6 0 8 4 4 9 -3 5 -1 12 5 16 5 3 10 -1 10 -9 0 -8
8 -21 19 -28 10 -7 17 -21 15 -31 -4 -31 -14 -32 -14 -3 l0 27 -24 -28 c-13
-15 -27 -25 -30 -22 -4 3 5 18 19 32 14 14 22 28 16 31 -11 7 -43 -22 -37 -33
3 -4 -4 -8 -15 -8 -18 -2 -19 0 -7 14 11 14 11 15 -2 11 -21 -8 -50 10 -50 30
1 15 2 15 15 -2 21 -28 52 -28 58 1 3 16 0 23 -11 23 -20 0 -12 7 13 12 11 1
23 8 27 13 11 15 10 35 -3 35 -5 0 -8 -4 -5 -9 4 -5 -8 -15 -24 -23 -23 -9
-30 -18 -26 -32 4 -15 2 -16 -7 -7 -7 7 -12 17 -12 23 0 6 -6 13 -14 16 -8 3
-11 0 -7 -7 4 -6 2 -10 -4 -9 -7 2 -13 -11 -15 -30 -1 -18 0 -31 3 -28 9 9 31
-14 26 -28 -3 -7 5 -12 17 -13 26 -2 39 -14 22 -20 -7 -3 -13 -10 -13 -16 0
-8 4 -7 12 1 16 16 28 15 28 -3 0 -8 -3 -14 -7 -14 -23 4 -33 -3 -33 -21 0
-11 -4 -20 -10 -20 -12 0 -13 27 -1 34 4 3 6 18 3 33 -5 26 -5 26 -13 5 -8
-22 -43 -30 -53 -13 -9 14 -39 6 -44 -10 -3 -11 -1 -11 7 1 10 13 11 13 12 0
1 -8 1 -19 0 -23 -1 -4 8 -3 20 3 41 22 64 -7 33 -41 -16 -17 -44 -16 -44 3 0
5 5 6 10 3 6 -4 10 -3 9 2 -3 19 2 25 14 14 10 -8 14 -7 14 3 0 16 -19 15 -40
-2 -11 -10 -17 -9 -27 3 -17 20 -30 19 -30 -2 0 -14 2 -15 9 -4 7 11 10 11 17
0 4 -7 3 -14 -4 -17 -7 -2 -12 -8 -12 -14 0 -6 7 -7 15 -4 9 3 18 -1 22 -10 5
-13 7 -13 14 -2 6 9 9 6 9 -10 0 -15 -4 -21 -11 -16 -7 4 -10 1 -7 -7 5 -16
-21 -49 -39 -49 -7 0 -13 7 -13 15 0 8 7 15 16 15 11 0 14 6 9 21 -5 15 -4 19
4 15 6 -4 11 -1 11 8 0 9 -6 13 -13 10 -17 -6 -51 31 -42 46 4 6 2 17 -4 24
-8 9 -3 17 19 30 29 17 29 18 13 43 -16 24 -16 26 0 38 15 11 15 14 3 18 -8 3
-17 1 -19 -6 -2 -7 -4 0 -4 15 0 15 -10 39 -22 54 -11 14 -18 30 -15 35 3 5 1
9 -4 9 -16 0 -22 -13 -11 -27 9 -10 6 -13 -16 -13 -16 0 -25 -3 -21 -7 4 -5
19 -8 33 -8 32 0 55 -31 33 -45 -19 -12 -26 -4 -12 13 12 14 7 27 -10 27 -5 0
-6 -4 -3 -10 3 -5 1 -10 -4 -10 -6 0 -10 -6 -9 -12 2 -8 -5 -12 -16 -10 -11 2
-26 -4 -33 -14 -9 -12 -13 -14 -13 -4 0 34 -13 -5 -16 -46 -3 -51 -12 -67 -32
-55 -13 8 -6 41 9 41 5 0 9 4 9 8 0 11 -37 9 -47 -3 -5 -4 -2 -5 6 0 11 6 13
3 8 -16 -4 -13 -7 -27 -7 -31 0 -5 -4 -8 -10 -8 -5 0 -7 7 -4 15 4 8 -1 26
-10 40 -15 23 -15 26 -1 31 8 4 22 1 30 -6 10 -8 19 -9 32 -1 17 10 17 10 1
11 -10 0 -18 7 -18 15 0 8 5 15 11 15 5 0 7 -6 3 -12 -5 -8 -1 -7 10 1 17 14
17 15 -3 23 -24 8 -25 16 -8 39 12 16 51 23 41 7 -3 -5 -9 -6 -13 -4 -4 3 -12
-4 -18 -14 -11 -17 -10 -17 17 -4 50 25 44 62 -7 43 -14 -5 -23 -4 -26 4 -2 7
-8 8 -13 4 -5 -4 -2 -12 5 -16 7 -5 10 -14 7 -20 -11 -18 -21 -5 -24 29 -1 18
2 29 7 26 5 -4 12 0 14 6 4 9 6 8 6 -2 1 -12 9 -15 35 -12 18 2 37 -1 40 -7 4
-6 12 -11 18 -11 6 0 3 9 -6 19 -12 13 -26 18 -47 14 -16 -2 -29 0 -29 6 0 6
-15 8 -35 6 -30 -4 -34 -3 -23 9 9 9 21 11 40 6 14 -5 30 -5 34 -2 4 4 4 2 0
-5 -4 -8 1 -11 14 -10 27 2 26 22 -1 24 -12 1 -27 7 -32 12 -7 7 -1 9 19 5 16
-3 35 -12 42 -21 11 -15 12 -15 12 1 0 10 -9 20 -20 23 -11 3 -20 9 -20 14 0
5 12 4 26 -1 32 -13 34 -13 34 3 1 17 77 70 85 57 3 -5 12 -10 18 -10 7 0 6 4
-3 10 -8 5 -10 10 -5 10 6 0 4 4 -4 9 -7 5 -10 14 -7 20 12 18 21 13 33 -19
15 -40 15 -45 1 -45 -7 0 -16 -4 -19 -9 -9 -11 -31 3 -24 15 3 5 -1 6 -9 3 -9
-3 -13 -10 -11 -15 3 -5 -1 -22 -10 -40 -16 -30 -16 -31 6 -24 14 5 25 2 30
-6 12 -19 11 -29 -1 -29 -5 0 -10 6 -10 13 0 10 -26 14 -59 8 -3 -1 4 -7 14
-15 11 -8 23 -12 28 -9 4 2 5 -8 1 -24 -7 -25 -6 -27 9 -14 9 7 15 17 12 21
-6 10 15 8 31 -3 7 -4 18 1 25 10 12 15 12 16 -3 10 -10 -3 -20 -2 -23 3 -4 6
-1 10 4 10 6 0 11 8 11 18 0 14 8 18 36 18 32 0 35 -2 31 -24 -3 -13 -1 -20 4
-15 16 16 18 73 2 73 -8 0 -11 -4 -8 -10 3 -5 2 -10 -2 -10 -5 0 -9 18 -9 40
-1 41 11 44 26 6 7 -17 9 -18 9 -3 1 10 6 15 11 12 6 -3 10 -3 10 2 0 12 -50
32 -66 26 -10 -4 -11 -10 -3 -24 6 -13 6 -19 0 -19 -6 0 -13 11 -17 25 -3 14
-10 25 -14 25 -4 0 -10 9 -13 20 -6 22 3 26 20 9 8 -8 13 -8 18 1 5 8 11 6 22
-7 8 -10 12 -13 9 -7 -3 6 1 11 9 11 8 0 12 -3 10 -7 -2 -4 7 -18 20 -30 14
-13 25 -18 25 -11 0 7 4 9 10 6 5 -3 7 0 4 8 -3 9 -13 13 -24 10 -16 -4 -19 2
-22 43 -2 37 -7 50 -20 52 -11 2 -18 -3 -18 -12 0 -15 -26 -46 -39 -46 -11 0
-31 47 -31 73 0 13 5 28 12 35 13 13 8 15 -38 12 -18 -1 -35 3 -39 9 -4 7 -40
11 -91 10 -53 -1 -89 2 -96 9 -7 7 -30 12 -52 12 -23 0 -50 7 -60 15 -21 16
-23 16 -46 8z m53 -26 c4 3 7 -6 7 -21 0 -22 -3 -26 -19 -21 -21 6 -47 -18
-78 -73 -17 -29 -16 -37 2 -22 8 6 19 9 25 5 5 -3 15 4 20 17 11 23 11 23 6 1
-2 -13 0 -26 5 -29 9 -5 10 -1 13 48 2 34 13 46 22 24 7 -18 34 -22 34 -5 0 5
5 7 10 4 6 -3 10 -1 10 4 0 6 -5 11 -11 11 -5 0 -7 5 -4 10 3 6 1 10 -4 10 -6
0 -11 -10 -12 -22 0 -13 -3 -17 -6 -10 -3 7 -2 24 1 37 8 33 36 33 36 0 0 -14
5 -23 13 -21 6 1 9 1 5 -1 -5 -3 -8 -11 -8 -18 0 -14 -36 -31 -56 -27 -7 1
-14 -4 -18 -13 -7 -19 -2 -19 34 0 19 10 31 11 35 5 4 -6 11 -8 16 -4 5 3 7 9
4 14 -3 5 1 20 10 33 16 25 12 39 -11 30 -8 -3 -14 1 -14 11 0 19 26 22 32 4
3 -7 15 -13 29 -13 17 0 24 -6 24 -20 0 -11 -8 -21 -17 -23 -12 -2 -15 2 -12
20 5 22 5 22 -7 3 -7 -11 -14 -27 -15 -35 -1 -8 -5 -25 -8 -37 -5 -24 9 -32
17 -10 3 7 6 5 6 -5 1 -12 -6 -18 -20 -18 -14 0 -19 5 -16 14 4 11 -1 13 -19
10 -13 -2 -24 0 -24 5 0 6 -7 8 -16 4 -13 -5 -13 -8 -2 -15 9 -7 7 -8 -9 -5
-13 3 -23 1 -23 -5 0 -6 -12 -8 -26 -5 -18 3 -24 1 -20 -9 3 -8 2 -14 -3 -14
-16 0 -21 13 -10 27 7 8 8 13 1 13 -5 0 -12 -6 -15 -14 -3 -8 -14 -13 -24 -12
-10 2 -13 1 -6 -1 7 -2 9 -12 6 -21 -4 -13 -2 -12 10 3 20 24 22 7 3 -18 -14
-17 -15 -17 -21 4 l-7 22 -15 -24 -14 -24 5 25 c6 29 -5 52 -24 48 -7 -2 -14
2 -17 8 -2 7 6 10 22 9 19 -3 25 1 25 16 0 21 -16 26 -23 7 -3 -7 -6 1 -6 17
0 21 7 36 24 48 14 10 25 13 25 7 0 -5 -6 -10 -12 -11 -7 0 -3 -5 10 -11 22
-11 30 -28 12 -28 -5 0 -10 5 -10 11 0 5 -4 8 -9 5 -5 -4 -11 -1 -13 6 -3 8
-7 6 -11 -5 -3 -9 -3 -16 1 -16 26 4 30 -2 22 -31 -9 -32 0 -39 19 -16 9 11 9
15 -1 19 -7 2 -9 8 -5 13 4 5 12 3 16 -5 6 -9 10 -8 13 7 3 11 2 25 -2 32 -9
15 -1 50 11 50 5 0 5 -8 2 -17 -6 -16 -5 -16 10 -5 8 8 13 21 10 30 -4 13 -3
14 5 4 7 -11 10 -10 16 3 5 13 9 15 20 6 7 -6 16 -8 19 -4z m236 -63 c7 -19
10 -38 7 -42 -4 -3 -9 4 -13 17 -3 12 -9 18 -12 13 -4 -6 -15 -3 -29 9 -27 21
-21 39 12 39 16 0 25 -9 35 -36z m25 20 c8 -22 7 -34 -3 -34 -5 0 -11 11 -13
25 -6 28 6 34 16 9z m30 -8 c-3 -9 4 -15 23 -19 26 -5 26 -4 8 9 -18 14 -18
14 3 14 19 0 21 -5 18 -32 -2 -18 0 -41 5 -50 7 -13 1 -23 -28 -43 -21 -14
-32 -25 -25 -25 6 0 12 -5 12 -11 0 -6 -7 -9 -15 -5 -8 3 -15 1 -15 -5 0 -6
-5 -7 -12 -3 -9 6 -9 9 0 12 7 2 12 12 12 22 0 10 5 22 10 25 6 3 10 1 10 -5
0 -6 5 -8 12 -4 9 6 9 9 0 12 -23 7 -12 24 13 20 13 -3 22 -1 19 3 -3 5 -12 9
-20 9 -8 0 -14 6 -15 13 0 6 -5 2 -11 -10 -8 -16 -18 -21 -42 -19 -40 4 -50
-2 -35 -20 6 -8 8 -14 4 -14 -4 0 5 -17 21 -37 15 -20 23 -33 17 -30 -7 4 -15
2 -18 -3 -5 -7 -11 -5 -19 6 -9 12 -15 14 -20 6 -4 -7 -2 -12 3 -12 6 0 11 -5
11 -11 0 -16 -41 0 -63 25 -15 17 -18 17 -13 4 3 -10 1 -18 -4 -18 -17 0 -20
18 -5 33 16 17 21 42 6 32 -5 -3 -13 0 -17 6 -4 8 -3 9 4 5 8 -5 10 3 6 26 -4
25 -3 29 5 18 6 -8 11 -23 11 -32 0 -20 18 -23 40 -7 12 9 11 10 -7 6 -13 -3
-23 -1 -23 4 0 5 11 9 25 9 18 0 23 4 19 15 -4 8 -10 15 -16 15 -5 0 -7 -4 -4
-9 3 -4 -10 -1 -29 8 -19 9 -34 19 -35 24 0 12 38 8 44 -5 3 -7 3 -3 0 10 -3
12 -1 22 5 22 6 0 11 -6 11 -14 0 -8 4 -18 10 -21 6 -4 7 1 3 10 -5 15 -3 15
16 4 12 -8 17 -15 11 -17 -16 -6 -12 -29 5 -29 8 0 15 4 15 9 0 5 9 6 20 3 15
-5 20 -2 20 12 0 15 -2 16 -11 3 -8 -12 -9 -11 -6 5 2 11 9 19 16 17 7 -1 10
2 6 8 -7 11 0 40 9 40 3 0 3 -6 0 -14z m610 -18 c8 -12 13 -25 10 -30 -3 -4 4
-8 15 -8 12 0 21 -5 21 -11 0 -6 -8 -8 -18 -5 -22 7 -51 -32 -32 -44 9 -6 10
-12 1 -26 -8 -13 -11 -14 -9 -4 2 9 -1 16 -7 18 -5 1 -9 -7 -9 -18 1 -11 -2
-17 -7 -15 -4 3 -11 0 -15 -6 -12 -19 19 -29 34 -11 12 16 13 16 9 0 -3 -9 1
-24 8 -35 20 -26 18 -42 -3 -18 -22 27 -49 37 -56 22 -2 -7 -3 2 -2 19 2 17 6
36 10 43 4 6 2 11 -3 11 -6 0 -11 -8 -11 -17 -1 -16 -2 -16 -13 -3 -7 9 -20
14 -29 12 -11 -2 -18 3 -18 12 0 9 -5 16 -11 16 -5 0 -7 -4 -4 -10 3 -5 -2
-10 -12 -11 -10 0 -13 -3 -5 -6 6 -2 12 -12 12 -21 0 -15 2 -15 10 -2 7 10 10
11 10 2 0 -7 -11 -18 -25 -24 -21 -10 -29 -9 -43 5 -15 16 -15 17 5 17 12 0
24 -6 26 -12 4 -8 6 -7 6 4 1 9 -5 18 -11 21 -10 3 -10 9 -3 23 14 26 7 62
-13 67 -21 5 33 -1 68 -8 14 -3 30 -12 36 -20 7 -9 14 -12 16 -8 3 4 3 3 2 -4
-5 -18 16 -27 29 -13 9 10 9 11 -1 5 -10 -5 -13 0 -10 21 2 15 8 29 15 31 7 3
9 -4 6 -18 -4 -13 -2 -20 3 -16 6 3 10 23 9 44 0 33 -3 38 -22 37 -13 0 -23 3
-23 8 0 17 39 7 54 -14z m36 -5 c0 -15 2 -16 10 -3 8 13 10 12 10 -4 0 -13 5
-17 20 -13 11 3 18 1 14 -4 -3 -5 0 -9 6 -9 7 0 10 -7 6 -15 -3 -9 0 -15 10
-15 8 0 12 -5 8 -11 -7 -12 -29 4 -29 22 0 5 -3 9 -8 9 -19 -1 -67 32 -67 45
0 8 5 15 10 15 6 0 10 -8 10 -17z m-1129 -20 c-12 -20 -14 -14 -5 12 4 9 9 14
11 11 3 -2 0 -13 -6 -23z m-13 -35 c-5 -14 22 -45 37 -43 6 1 7 0 2 -2 -4 -3
-5 -9 -1 -14 3 -5 0 -9 -6 -9 -8 0 -7 -6 1 -21 8 -17 8 -20 -1 -14 -9 5 -10 1
-5 -14 5 -16 2 -21 -13 -21 -14 0 -22 -12 -31 -42 l-13 -42 -15 28 c-15 29 -9
51 7 26 8 -13 10 -12 11 3 1 9 3 22 4 27 1 6 3 15 4 21 1 8 5 8 15 0 11 -9 15
-7 19 9 3 11 1 23 -4 26 -5 3 -9 0 -9 -6 0 -7 -7 -9 -16 -6 -8 3 -12 2 -9 -4
3 -6 1 -10 -5 -10 -6 0 -9 -4 -6 -8 7 -12 -12 -38 -21 -29 -4 5 -2 12 6 16 16
10 13 22 -8 39 -15 12 -15 13 1 8 9 -2 19 2 22 10 4 10 13 13 32 8 24 -6 25
-5 12 15 -7 12 -14 17 -16 11 -2 -6 -8 -8 -13 -4 -5 3 -9 1 -9 -4 0 -11 -46
-33 -54 -25 -14 15 -4 31 24 36 16 4 35 16 42 27 14 22 22 26 16 8z m757 2
c-4 -6 -10 -8 -15 -5 -4 3 -11 -2 -14 -11 -3 -8 -11 -12 -17 -8 -9 5 -6 11 6
21 22 15 49 18 40 3z m178 -22 c3 -10 1 -16 -4 -12 -9 5 -13 -9 -10 -35 2 -7
-3 -10 -9 -6 -6 4 -9 14 -6 22 4 9 1 12 -7 8 -6 -4 -4 0 5 8 22 17 12 30 -13
17 -9 -6 -25 -7 -35 -3 -16 6 -16 7 2 14 33 13 72 6 77 -13z m213 -30 c-2 -22
-9 -44 -16 -48 -9 -5 -9 -9 -1 -14 6 -4 8 -13 4 -19 -4 -7 0 -6 10 2 10 8 17
9 17 3 0 -15 -16 -23 -32 -17 -16 6 -21 75 -6 75 5 0 4 9 -2 19 -13 24 -3 52
16 44 9 -3 13 -17 10 -45z m-673 15 c-7 -3 -9 -11 -6 -20 4 -10 2 -14 -7 -11
-7 2 -14 12 -16 21 -1 9 2 15 7 11 5 -3 9 0 9 6 0 6 5 8 12 4 9 -6 9 -9 1 -11z
m721 -6 c-1 -9 2 -14 7 -11 5 3 9 0 9 -5 0 -12 -6 -13 -37 -5 -13 4 -20 10
-17 15 3 5 10 7 15 4 5 -4 9 -2 9 4 0 5 -6 12 -12 15 -7 3 -4 4 7 3 12 -2 19
-10 19 -20z m-990 -2 c-6 -16 -24 -21 -24 -7 0 11 11 22 21 22 5 0 6 -7 3 -15z
m68 -18 c11 -4 21 0 27 11 6 9 10 13 11 7 0 -20 -16 -33 -49 -40 -24 -5 -31
-4 -27 4 4 6 12 8 18 5 7 -4 8 -2 4 5 -4 6 -16 9 -27 6 -22 -7 -25 5 -7 23 10
10 15 10 23 -1 5 -7 18 -16 27 -20z m608 13 c16 -16 18 -25 10 -40 -8 -16 -8
-20 4 -20 10 0 13 -6 10 -15 -4 -8 -17 -15 -30 -15 -13 0 -24 -4 -24 -10 0 -5
-4 -10 -10 -10 -5 0 -10 7 -10 15 0 8 3 14 8 14 4 -1 16 -1 26 0 19 1 19 1 0
22 -15 17 -16 23 -5 41 7 11 8 17 3 14 -6 -3 -12 1 -16 9 -8 21 10 19 34 -5z
m-690 -25 c5 3 10 1 10 -5 0 -7 -7 -9 -16 -6 -9 3 -18 6 -20 6 -2 0 -4 10 -3
23 l0 22 10 -23 c5 -13 13 -20 19 -17z m-70 -20 c-9 -11 -9 -15 -1 -15 6 0 11
-8 12 -17 0 -16 1 -16 8 1 7 18 8 18 14 2 5 -12 13 -15 27 -11 12 4 20 2 20
-5 0 -7 -19 -10 -50 -9 -44 2 -49 5 -44 21 4 13 0 18 -13 19 -16 0 -16 1 2 8
11 5 21 13 21 20 3 22 6 26 11 13 3 -7 -1 -19 -7 -27z m44 -1 c12 -12 46 -7
46 8 0 5 5 6 10 3 6 -3 10 -13 10 -22 0 -11 -6 -14 -24 -9 -14 3 -28 1 -31 -5
-7 -11 -36 34 -34 55 0 6 3 4 6 -4 3 -8 11 -19 17 -26z m-262 -6 c-6 -6 -16
-8 -22 -6 -9 3 -7 9 6 22 13 13 19 15 22 6 2 -6 0 -16 -6 -22z m1295 20 c35
-13 44 -25 18 -25 -8 0 -15 4 -15 8 0 4 -12 12 -27 17 -16 6 -24 11 -19 11 5
1 25 -4 43 -11z m-887 -23 c-11 -13 -7 -19 11 -17 4 1 9 -13 11 -30 5 -28 4
-29 -9 -13 -7 11 -13 22 -13 27 0 4 -4 8 -10 8 -5 0 -10 -7 -10 -15 0 -8 -4
-15 -9 -15 -5 0 -8 -8 -7 -17 0 -10 -7 -18 -19 -20 -12 -1 -14 0 -4 3 12 4 15
15 13 40 -3 49 -14 56 -14 11 0 -20 -4 -37 -8 -37 -5 0 -8 10 -6 23 1 12 3 30
3 39 1 10 9 16 21 15 15 -1 19 -6 14 -22 -5 -19 -5 -19 10 -1 9 10 13 22 11
27 -3 4 1 9 7 12 19 6 22 -1 8 -18z m718 4 c1 -9 -3 -16 -10 -17 -7 0 -24 -4
-37 -8 -17 -5 -22 -4 -17 4 4 7 13 12 21 12 8 0 17 5 21 12 4 7 3 8 -4 4 -7
-4 -12 -2 -12 4 0 17 34 7 38 -11z m-1094 -27 c-4 -12 -13 -22 -20 -22 -17 0
-18 14 -3 42 14 25 30 11 23 -20z m1236 28 c0 -5 -2 -10 -4 -10 -3 0 -8 5 -11
10 -3 6 -1 10 4 10 6 0 11 -4 11 -10z m-1104 -20 c0 -11 -5 -20 -11 -20 -9 0
-10 5 -6 30 2 19 18 10 17 -10z m-176 -15 c0 -8 -16 -22 -35 -31 -34 -16 -50
-32 -20 -20 17 6 18 4 9 -18 -9 -23 -21 -20 -28 7 -4 14 0 26 11 35 9 6 13 12
9 12 -5 0 -4 6 2 13 15 18 52 19 52 2z m713 8 c4 -3 1 -13 -6 -21 -9 -13 -9
-14 1 -8 6 4 12 2 12 -3 0 -13 2 -13 -38 -2 -20 6 -32 6 -32 0 0 -5 -7 -9 -15
-9 -17 0 -19 9 -5 30 7 10 10 11 10 2 0 -10 6 -9 28 2 31 17 36 18 45 9z m637
-2 c0 -5 -9 -7 -20 -4 -11 3 -20 7 -20 9 0 2 9 4 20 4 11 0 20 -4 20 -9z
m-1013 -28 c0 -54 2 -60 26 -58 34 3 37 -3 14 -29 -26 -29 -33 -27 -17 4 10
18 9 21 -2 17 -7 -2 -21 2 -30 11 -16 13 -19 13 -27 -9 -5 -13 -10 -17 -10 -9
-1 25 15 43 30 34 11 -6 12 -5 2 7 -12 15 -7 59 7 59 4 0 7 -12 7 -27z m137
21 c9 -3 14 -10 11 -15 -7 -10 -35 0 -35 12 0 11 3 11 24 3z m436 -7 c0 -21
-12 -28 -25 -17 -9 8 -14 6 -19 -5 -7 -18 -26 -20 -26 -2 0 12 34 33 58 36 6
0 12 -5 12 -12z m144 4 c3 -5 21 -5 40 -1 32 7 34 6 31 -16 -3 -30 18 -48 46
-39 15 5 20 3 17 -6 -3 -8 -13 -14 -24 -14 -10 0 -25 -4 -32 -9 -7 -4 -19 -3
-26 3 -9 8 -13 7 -13 -4 0 -8 4 -15 9 -15 5 0 6 -6 2 -12 -5 -9 -2 -9 9 1 15
12 17 11 17 -3 0 -16 1 -16 17 0 11 11 18 13 21 5 2 -6 10 -11 18 -11 8 0 13
-3 13 -7 -4 -26 3 -42 15 -37 8 3 13 16 11 30 -2 25 7 28 40 14 14 -6 16 -9 5
-10 -8 -2 -19 -2 -24 -1 -5 1 -6 -7 -3 -19 5 -21 -23 -46 -37 -33 -4 4 -14 8
-22 9 -11 2 -14 -3 -11 -17 3 -12 -1 -23 -12 -29 -14 -7 -17 -5 -16 10 1 10 7
25 14 33 8 10 9 17 1 22 -5 3 -10 0 -10 -8 0 -10 -7 -13 -21 -10 -11 3 -18 11
-15 19 3 7 -2 18 -11 26 -13 10 -17 10 -20 1 -3 -7 -11 -13 -19 -13 -8 0 -14
-6 -14 -14 0 -8 -8 -17 -17 -20 -10 -4 -13 -10 -8 -14 15 -10 18 -35 4 -26 -7
4 -9 3 -6 -3 3 -5 24 -18 47 -28 22 -10 40 -22 40 -27 0 -5 4 -7 9 -4 5 3 12
-1 15 -10 3 -9 11 -12 18 -8 7 4 10 4 6 -1 -5 -5 1 -15 13 -23 15 -10 19 -21
15 -38 -5 -19 -3 -22 10 -17 9 3 20 0 25 -8 6 -10 9 -7 9 13 0 14 3 28 8 31 4
2 1 2 -5 1 -7 -2 -13 3 -13 12 0 11 7 13 27 8 15 -4 33 -7 40 -7 7 0 13 -7 13
-14 0 -10 -6 -12 -20 -8 -11 4 -20 2 -20 -4 0 -6 6 -10 13 -9 6 2 11 -3 9 -9
-1 -7 2 -13 7 -13 5 0 7 -9 4 -21 -4 -14 1 -25 16 -35 25 -18 28 -43 4 -43
-40 -1 -53 -5 -53 -14 0 -5 -7 -4 -15 3 -9 7 -14 19 -11 26 3 8 -6 15 -25 19
-16 4 -29 10 -29 15 0 5 -3 15 -6 24 -6 14 -3 14 30 1 20 -8 36 -14 37 -13 0
2 2 19 4 38 2 19 1 26 -2 15 -7 -29 -19 -39 -35 -29 -12 8 -17 10 -36 13 -5 0
-9 8 -9 16 0 8 5 11 10 8 5 -3 8 0 5 7 -2 8 -10 16 -18 18 -7 3 -10 0 -6 -7 9
-14 -7 -14 -21 0 -7 7 -13 8 -17 0 -4 -6 3 -13 16 -16 17 -5 24 -14 25 -38 2
-20 -1 -27 -6 -19 -7 11 -9 11 -14 -2 -4 -9 -12 -16 -18 -16 -8 0 -8 4 -2 13
6 6 13 20 16 29 5 13 1 16 -21 12 -31 -6 -42 -14 -19 -14 9 0 18 -3 20 -7 3
-5 -7 -8 -23 -8 -20 0 -26 4 -22 14 3 9 1 12 -6 7 -16 -10 -16 36 1 54 6 8 2
6 -10 -4 -21 -18 -23 -18 -29 -1 -4 10 -1 21 7 26 20 13 27 11 46 -10 12 -14
21 -17 33 -11 10 5 20 6 24 3 3 -3 6 -1 6 5 0 16 -22 15 -40 0 -12 -11 -12
-10 -1 4 10 14 9 17 -10 20 -23 3 -40 28 -19 28 6 0 8 -4 5 -10 -3 -5 4 -10
16 -10 17 0 19 3 10 14 -12 15 -54 30 -46 16 2 -4 -5 -16 -16 -25 -19 -18 -20
-18 -37 -1 -16 16 -16 17 9 11 20 -5 26 -3 26 10 0 12 -7 15 -26 11 -22 -5
-24 -4 -11 6 16 13 22 88 8 88 -5 0 -8 -13 -8 -30 0 -16 -5 -30 -11 -30 -6 0
-9 7 -5 15 3 9 0 15 -10 15 -13 0 -13 -4 1 -30 14 -27 14 -30 0 -30 -14 0 -18
11 -18 53 0 9 -4 17 -9 17 -5 0 -6 5 -3 10 3 6 13 10 21 10 9 0 12 -5 8 -12
-4 -7 -3 -8 5 -4 6 4 9 12 6 17 -9 14 24 23 39 10 11 -9 15 -6 20 14 4 17 12
25 24 23 13 -2 16 3 14 25 -3 19 1 27 12 27 10 0 16 9 16 25 0 14 -4 25 -10
25 -5 0 -7 -8 -4 -17 5 -14 4 -15 -4 -4 -7 10 -14 11 -28 2 -15 -8 -15 -11 -4
-11 8 -1 4 -6 -9 -11 -32 -13 -36 -6 -14 27 10 16 13 25 6 21 -6 -4 -14 -3
-18 3 -3 5 1 10 9 10 8 0 17 -4 20 -9z m242 -15 c1 -15 -5 -27 -15 -31 -13 -5
-11 -11 14 -31 25 -20 27 -26 15 -34 -11 -7 -18 -3 -27 14 -7 13 -20 26 -28
30 -9 3 -13 2 -10 -3 3 -5 0 -13 -6 -17 -8 -4 -9 -3 -5 4 4 7 3 12 -2 12 -5 0
-12 -9 -15 -20 -5 -21 -31 -27 -42 -10 -3 5 -13 6 -23 3 -9 -3 -14 -3 -10 2 4
4 20 8 35 9 20 1 27 5 24 16 -2 8 -3 23 -3 33 1 15 -1 16 -15 2 -12 -12 -18
-13 -29 -4 -17 14 -18 29 -3 29 5 0 7 -4 4 -10 -3 -6 1 -7 9 -4 9 3 13 10 10
15 -3 5 -1 9 3 9 16 0 33 -23 33 -44 0 -18 2 -17 22 5 14 16 19 18 15 7 -9
-25 10 -32 23 -8 6 11 8 20 4 20 -3 0 -1 7 6 15 16 19 15 19 16 -9z m30 -2
c-6 -15 -4 -15 16 -2 35 23 50 0 21 -31 -13 -13 -23 -20 -23 -16 0 5 7 17 17
27 9 10 11 18 5 18 -6 0 -16 -8 -21 -17 -10 -17 -12 -17 -26 1 -15 19 -12 36
7 36 5 0 7 -7 4 -16z m-1161 -4 c3 -5 2 -10 -4 -10 -6 0 -8 -6 -5 -14 6 -15
-12 -31 -20 -18 -7 12 4 52 15 52 4 0 11 -4 14 -10z m79 -9 c11 -9 16 -10 16
-2 0 6 9 11 20 11 25 0 25 -10 0 -55 -11 -19 -17 -35 -14 -35 4 0 1 -6 -5 -14
-9 -10 -8 -16 4 -26 8 -7 15 -20 15 -28 0 -12 -3 -13 -12 -4 -20 20 -38 14
-38 -14 0 -20 -7 -29 -31 -37 -21 -8 -29 -17 -26 -29 3 -10 -2 -23 -12 -30
-14 -12 -15 -11 -2 5 9 11 10 17 2 17 -6 0 -11 -4 -11 -10 0 -5 -7 -10 -15
-10 -23 0 -18 16 10 34 32 21 33 46 0 46 -17 0 -23 4 -19 14 3 9 12 12 22 8
22 -8 42 -28 36 -35 -3 -3 3 -3 14 0 20 5 37 62 22 73 -4 3 -9 12 -12 19 -3
12 -6 12 -11 -2 -3 -9 -2 -17 3 -17 6 0 10 -7 10 -16 0 -9 -6 -14 -12 -11 -7
2 -13 13 -13 25 -1 30 -12 37 -20 12 -5 -15 -12 -19 -26 -15 -13 4 -17 2 -14
-7 3 -7 1 -20 -5 -28 -8 -13 -11 -13 -22 -1 -7 8 -8 11 -2 8 10 -6 20 21 24
61 1 12 -64 21 -71 10 -4 -6 -15 -8 -24 -4 -14 5 -16 4 -7 -7 13 -15 6 -27
-15 -27 -9 0 -11 5 -6 13 4 6 6 22 5 34 -2 11 2 25 9 29 8 5 11 2 7 -7 -4 -11
6 -14 48 -14 46 0 52 2 37 12 -24 18 -8 28 23 14 21 -9 24 -14 14 -26 -8 -10
-9 -19 -1 -32 8 -14 11 -15 12 -3 1 8 1 21 0 28 -3 16 30 9 66 -14 18 -11 22
-11 27 2 3 8 1 12 -4 9 -5 -3 -17 -2 -26 3 -13 7 -13 10 -1 21 10 8 17 9 22 1
10 -17 20 -12 38 20 10 17 13 30 8 30 -6 0 -11 -4 -11 -10 0 -15 -36 -12 -50
5 -7 8 -16 13 -20 10 -5 -3 -12 -1 -15 5 -9 15 39 8 59 -9z m167 -14 c-8 -8
-11 -7 -11 4 0 9 3 19 7 23 4 4 9 2 11 -4 3 -7 -1 -17 -7 -23z m404 23 c3 -5
1 -10 -4 -10 -6 0 -11 5 -11 10 0 6 2 10 4 10 3 0 8 -4 11 -10z m135 -24 c0 7
8 15 17 18 15 6 14 4 -2 -14 -23 -25 -37 -22 -41 11 l-4 24 15 -25 c8 -14 14
-20 15 -14z m-901 -2 c6 -15 10 -29 7 -32 -10 -9 -37 8 -46 30 l-9 23 0 -22
c-1 -13 -6 -23 -12 -23 -5 0 -7 -4 -4 -10 3 -5 -1 -10 -9 -10 -22 0 -20 14 7
44 28 33 51 33 66 0z m76 6 c-3 -5 -10 -10 -16 -10 -5 0 -9 5 -9 10 0 6 7 10
16 10 8 0 12 -4 9 -10z m80 -4 c16 -12 17 -16 6 -30 -26 -31 -55 -17 -44 22 6
26 12 27 38 8z m707 -1 c10 -13 0 -25 -20 -24 -11 0 -13 2 -4 6 10 4 9 9 -5
19 -17 14 -17 14 2 12 11 -2 23 -7 27 -13z m416 -30 c-3 -3 -13 -2 -22 1 -14
5 -15 9 -4 15 13 8 36 -6 26 -16z m-1068 11 c0 -3 -4 -8 -10 -11 -5 -3 -10 -1
-10 4 0 6 5 11 10 11 6 0 10 -2 10 -4z m810 -18 c0 -10 -4 -18 -10 -18 -5 0
-10 7 -10 16 0 14 -2 14 -16 -1 -9 -9 -19 -13 -23 -10 -8 9 24 32 44 32 8 0
15 -9 15 -19z m-659 -22 c-9 -11 -9 -15 1 -19 8 -4 7 -6 -4 -6 -10 -1 -18 -7
-18 -13 0 -9 -3 -8 -10 2 -6 10 -2 20 13 35 24 23 37 24 18 1z m856 2 c-3 -8
-6 -5 -6 6 -1 11 2 17 5 13 3 -3 4 -12 1 -19z m-1323 -34 c-3 -77 -3 -78 -19
-64 -17 14 -20 31 -4 28 6 -2 12 13 13 34 2 29 0 35 -12 30 -10 -3 -13 -1 -8
7 15 23 31 4 30 -35z m396 16 c-14 -26 -33 -36 -38 -21 -4 11 -6 11 -13 0 -6
-11 -11 -11 -21 -1 -10 10 -6 15 20 24 18 7 32 16 32 20 0 4 7 5 15 2 11 -5
12 -11 5 -24z m1020 0 c9 -16 7 -20 -7 -18 -49 4 -63 -2 -63 -26 0 -30 -20
-47 -48 -39 -13 3 -22 1 -22 -6 0 -7 5 -9 10 -6 6 3 10 1 10 -5 0 -6 5 -8 12
-4 7 5 8 3 4 -5 -5 -8 0 -14 13 -18 17 -4 18 -7 6 -19 -21 -21 -38 -17 -32 7
4 13 0 22 -11 26 -9 4 -20 11 -24 17 -8 12 28 35 57 36 19 1 19 1 2 11 -17 10
-16 13 12 30 17 10 38 19 46 19 9 0 12 6 8 17 -9 22 13 8 27 -17z m-1373 -16
c-9 -9 -27 6 -27 22 0 13 2 13 16 -1 9 -9 14 -18 11 -21z m-78 -30 c-15 -29
-25 -30 -32 -4 -4 15 0 20 14 20 10 0 18 3 18 8 -3 16 3 26 8 14 3 -8 0 -25
-8 -38z m201 34 c0 -4 -12 -8 -27 -8 -19 0 -24 3 -15 8 17 11 42 11 42 0z
m270 -26 c0 -4 9 -8 19 -8 15 0 17 3 9 13 -8 10 -7 12 6 7 9 -3 16 -12 16 -19
0 -7 2 -20 5 -27 4 -9 -2 -14 -16 -15 -14 -1 -19 3 -15 13 3 8 -1 14 -10 14
-8 0 -19 -10 -24 -22 -5 -14 -9 -17 -9 -7 -1 8 4 20 10 26 9 9 5 14 -15 19
-26 6 -32 15 -20 27 8 7 44 -10 44 -21z m712 -4 c-19 -19 -14 -38 9 -38 13 0
18 4 13 12 -4 6 -3 8 3 5 5 -3 8 -19 7 -36 -1 -20 2 -28 10 -25 7 3 20 -4 29
-14 14 -16 15 -19 2 -19 -8 0 -15 3 -15 6 0 3 -13 12 -30 19 -16 8 -30 18 -30
23 0 6 5 7 10 4 6 -3 10 -3 10 2 0 4 -11 13 -25 20 -14 6 -25 7 -25 2 0 -5 5
-9 10 -9 6 0 10 -7 10 -15 0 -23 -27 -6 -33 21 -3 16 0 24 9 24 7 0 11 6 8 14
-3 9 2 16 13 18 24 6 29 0 15 -14z m275 -17 c1 -11 11 -29 22 -40 12 -12 21
-25 21 -31 0 -18 2 -25 10 -41 6 -11 4 -16 -6 -16 -11 0 -14 7 -11 23 3 19 0
22 -21 20 -13 -2 -29 -11 -35 -21 -9 -17 -11 -16 -24 6 -14 23 -14 24 -10 2 3
-13 2 -23 -1 -24 -4 0 -19 -3 -34 -5 -14 -2 -30 1 -34 7 -4 7 -3 9 3 6 12 -8
65 41 58 53 -3 5 -12 7 -20 3 -8 -3 -15 0 -15 7 0 7 8 10 20 7 18 -5 24 3 21
25 0 4 8 5 19 3 24 -5 36 11 15 19 -8 3 -15 12 -15 21 0 24 35 2 37 -24z
m-1366 12 c12 -14 12 -16 0 -8 -11 6 -12 5 -5 -6 5 -8 8 -23 6 -34 l-2 -20 9
20 c5 11 7 23 4 28 -2 4 4 7 14 7 15 0 16 2 3 10 -11 8 -9 9 12 6 15 -2 28 0
31 7 2 6 9 7 16 2 11 -6 10 -10 -3 -17 -9 -5 -20 -6 -26 -3 -8 5 -8 -37 1 -75
2 -8 -2 -15 -10 -15 -8 0 -17 7 -19 15 -5 13 -3 13 14 0 18 -14 18 -14 5 3
-10 13 -17 14 -27 6 -10 -8 -17 -6 -30 9 -9 11 -24 18 -33 15 -14 -4 -14 -3
-1 6 10 7 11 11 3 11 -7 0 -13 7 -13 15 0 20 10 19 26 -2 13 -17 14 -17 7 2
-3 11 -11 23 -17 27 -7 5 -5 8 5 8 9 0 23 -8 30 -17z m1319 2 c0 -8 -4 -15
-10 -15 -5 0 -10 7 -10 15 0 8 5 15 10 15 6 0 10 -7 10 -15z m-1140 -15 c0 -4
-9 -6 -21 -3 -15 4 -17 8 -8 14 14 8 29 3 29 -11z m123 0 c3 -11 1 -18 -4 -14
-5 3 -9 12 -9 20 0 20 7 17 13 -6z m33 -1 c5 1 9 -7 9 -16 0 -29 30 -44 38
-20 2 6 3 4 2 -5 -2 -10 1 -21 6 -24 5 -3 9 -19 9 -35 0 -17 6 -32 15 -35 8
-4 12 -11 9 -18 -3 -6 2 -2 10 8 9 11 19 17 22 13 4 -4 2 -13 -5 -21 -9 -11
-9 -15 1 -19 10 -4 10 -6 1 -6 -7 -1 -22 8 -32 18 -13 13 -22 16 -29 9 -6 -6
-16 -6 -28 0 -24 12 -44 5 -37 -14 3 -8 0 -14 -6 -14 -20 0 -12 37 9 43 11 3
20 10 20 17 0 6 -4 8 -10 5 -5 -3 -10 1 -10 9 0 19 11 20 29 4 11 -11 12 -9 6
10 -4 13 -2 22 4 22 17 0 13 -31 -6 -52 -9 -10 -11 -18 -6 -18 38 0 43 73 6
78 -13 2 -23 8 -23 13 0 5 -5 9 -11 9 -6 0 -8 -7 -5 -16 3 -8 2 -12 -4 -9 -13
8 -13 -21 0 -46 14 -24 -5 -26 -19 -1 -8 14 -12 15 -22 5 -10 -10 -10 -13 -1
-13 7 0 12 -5 12 -11 0 -8 -4 -8 -14 1 -8 6 -12 18 -9 26 3 8 0 14 -7 14 -6 0
-9 -4 -5 -9 3 -6 -4 -9 -15 -8 -11 1 -20 7 -20 14 0 7 -6 10 -14 7 -8 -3 -17
0 -22 7 -4 8 -3 10 5 5 14 -9 64 40 56 54 -3 5 -2 11 3 14 12 7 56 -30 48 -43
-9 -14 -36 -15 -36 -1 0 6 5 10 12 10 6 0 8 3 5 7 -4 3 -18 -6 -32 -20 -18
-17 -22 -27 -14 -32 6 -4 14 -4 18 1 9 13 34 17 26 4 -3 -5 1 -10 10 -10 9 0
13 5 9 11 -3 6 -1 15 6 19 6 4 12 24 13 44 0 19 4 31 8 25 3 -6 10 -10 15 -10z
m576 -43 c6 4 8 3 5 -3 -7 -10 33 -33 58 -33 8 0 12 -6 9 -13 -3 -8 2 -20 11
-27 8 -7 15 -16 15 -21 0 -15 -37 -10 -50 6 -10 13 -15 13 -21 3 -4 -7 -11 -9
-16 -5 -8 9 17 28 28 21 4 -2 11 1 15 7 4 7 3 9 -3 6 -6 -4 -16 0 -23 8 -16
19 -34 19 -26 0 3 -8 3 -15 0 -15 -3 0 -12 7 -20 15 -14 13 -13 15 3 15 16 1
16 2 2 13 -9 7 -17 15 -18 19 -1 4 -4 14 -7 22 -3 8 0 21 8 29 11 13 13 10 16
-19 2 -22 7 -32 14 -28z m-1014 24 c7 0 12 -11 12 -24 0 -14 5 -28 11 -32 8
-4 9 0 4 15 -4 13 -2 21 5 21 6 0 8 -5 4 -12 -5 -8 -2 -9 9 -5 9 3 19 2 22 -3
4 -6 -1 -10 -9 -10 -9 0 -16 -7 -16 -15 0 -14 3 -14 24 0 21 14 24 14 30 0 3
-9 6 -24 5 -33 -1 -10 -4 -7 -9 8 -8 25 -8 25 -9 2 -1 -13 -5 -20 -11 -17 -5
3 -10 -1 -10 -9 0 -9 -4 -16 -10 -16 -5 0 -9 -3 -9 -7 3 -20 -2 -34 -11 -28
-5 3 -7 12 -3 20 3 8 0 15 -6 15 -15 0 -14 -23 1 -38 9 -9 8 -12 -5 -12 -9 0
-17 3 -18 8 0 4 -2 17 -5 30 -2 12 1 22 7 22 5 0 7 6 3 13 -4 6 2 4 13 -6 20
-17 21 -17 38 9 15 24 15 26 2 21 -9 -3 -19 -2 -22 3 -4 6 -11 10 -17 10 -6 0
-5 -7 3 -17 11 -15 11 -16 0 -6 -7 6 -21 9 -30 6 -14 -4 -13 -2 2 10 17 14 24
33 9 23 -5 -3 -8 3 -8 12 1 9 -3 17 -9 17 -5 0 -9 -19 -9 -42 1 -24 -2 -43 -7
-43 -5 0 -9 11 -9 24 0 14 -6 26 -12 29 -7 2 -5 3 5 1 15 -2 16 0 6 12 -6 7
-15 11 -20 8 -5 -3 -6 2 -3 10 4 9 1 16 -6 16 -9 0 -7 7 5 20 16 18 20 19 35
5 9 -8 22 -15 28 -15z m312 0 c0 -5 -4 -10 -10 -10 -5 0 -10 5 -10 10 0 6 5
10 10 10 6 0 10 -4 10 -10z m327 -10 c-3 -12 -1 -18 5 -14 6 4 9 1 7 -5 -7
-21 -24 -13 -27 14 -2 14 2 25 9 25 6 0 9 -8 6 -20z m51 -3 c2 -9 -2 -17 -8
-17 -7 0 -10 7 -7 14 4 11 1 13 -10 9 -11 -4 -14 -3 -9 6 10 16 30 9 34 -12z
m32 -12 c0 -5 -5 -3 -10 5 -5 8 -10 20 -10 25 0 6 5 3 10 -5 5 -8 10 -19 10
-25z m680 25 c0 -5 -5 -10 -11 -10 -5 0 -7 5 -4 10 3 6 8 10 11 10 2 0 4 -4 4
-10z m-1191 -9 c10 -7 11 -13 1 -32 -9 -20 -9 -22 2 -9 7 8 20 16 28 18 10 2
7 -4 -7 -18 -13 -11 -23 -25 -23 -31 0 -6 -7 -6 -20 1 -19 10 -19 12 -4 41 9
17 11 28 6 25 -6 -4 -13 -2 -17 4 -8 12 15 13 34 1z m1107 -31 c10 0 14 -9 12
-29 -1 -16 -5 -28 -9 -25 -12 7 -17 -20 -8 -46 9 -24 8 -24 -6 -6 -8 11 -15
26 -15 34 0 7 -4 10 -10 7 -5 -3 -10 -2 -10 4 0 5 10 11 22 13 12 2 24 9 26
17 3 9 0 12 -9 9 -10 -4 -14 3 -15 21 -1 14 1 20 3 14 3 -7 11 -13 19 -13z
m-587 -32 c-12 -23 -30 -23 -22 -1 6 15 5 16 -9 3 -11 -10 -13 -20 -7 -32 19
-36 6 -52 -31 -38 -3 1 -9 2 -13 1 -5 -1 -6 3 -2 9 4 6 13 9 20 8 8 -2 14 0
14 5 2 23 -1 27 -21 27 -12 0 -18 -3 -15 -6 11 -12 -13 -43 -28 -38 -8 4 -13
10 -10 14 3 5 1 11 -5 15 -5 3 -10 1 -10 -4 0 -6 -5 -11 -10 -11 -6 0 -5 8 2
20 9 14 14 16 20 7 8 -13 11 -4 9 28 -1 16 1 15 10 -5 8 -19 12 -21 19 -11 4
8 15 11 24 8 11 -4 16 -1 16 12 0 26 8 30 35 18 18 -9 21 -15 14 -29z m-59 22
c0 -5 -5 -10 -11 -10 -5 0 -7 5 -4 10 3 6 8 10 11 10 2 0 4 -4 4 -10z m-536
-48 c3 -20 1 -39 -4 -42 -5 -3 -1 -20 10 -38 11 -18 25 -30 30 -27 17 10 23
-24 9 -42 -12 -15 -12 -16 5 -10 15 6 17 5 8 -6 -9 -10 -8 -14 3 -14 9 0 15
10 15 26 0 23 1 24 13 6 10 -13 16 -15 21 -6 6 9 11 9 22 0 7 -6 11 -15 8 -20
-13 -21 19 -7 40 18 26 30 25 53 -2 48 -9 -2 -19 -4 -22 -4 -3 -1 1 -5 9 -10
12 -8 12 -12 2 -25 -14 -16 -31 -13 -31 6 0 5 8 7 17 4 15 -6 15 -5 1 11 -8
10 -18 28 -21 41 -4 19 -3 21 8 12 8 -6 11 -19 9 -28 -5 -14 -3 -13 10 2 14
18 14 21 -5 34 -16 11 -26 12 -44 4 -21 -10 -23 -9 -23 22 0 31 2 33 28 31 17
-1 31 3 34 11 8 21 26 17 36 -8 5 -13 9 -17 9 -10 1 19 25 14 39 -8 7 -12 17
-18 22 -15 6 3 10 0 10 -8 0 -10 -7 -13 -20 -10 -10 3 -18 10 -17 15 1 6 -4
13 -10 15 -7 3 -13 -2 -13 -11 0 -8 -5 -18 -12 -22 -6 -4 -8 -3 -5 3 10 15
-20 36 -39 29 -9 -4 -22 -2 -29 4 -17 14 -27 -1 -14 -20 5 -8 9 -10 9 -5 0 6
11 10 24 10 17 0 22 -4 18 -15 -3 -8 -2 -12 3 -8 10 10 37 -11 29 -23 -3 -5 0
-9 5 -9 6 0 11 -8 12 -17 0 -15 2 -15 9 2 12 27 12 37 1 30 -5 -3 -13 0 -17 6
-5 9 2 10 26 6 18 -4 39 -7 46 -7 8 0 14 -5 14 -11 0 -6 -7 -9 -15 -5 -21 8
-45 -3 -45 -20 0 -8 3 -13 8 -11 4 1 7 -2 8 -8 0 -5 -9 -9 -20 -7 -19 2 -18 1
4 -12 25 -15 25 -15 3 -16 -13 0 -23 5 -23 11 0 5 -5 7 -11 3 -8 -5 -7 -9 1
-14 7 -4 10 -15 7 -23 -3 -9 2 -17 14 -20 10 -3 19 -11 19 -17 0 -10 -3 -10
-14 0 -10 8 -21 8 -32 2 -14 -8 -13 -10 7 -15 13 -3 36 -4 52 -2 15 2 25 -1
21 -6 -3 -5 -10 -9 -16 -9 -6 0 -16 -8 -23 -17 -11 -15 -15 -15 -29 -4 -10 8
-16 9 -16 3 0 -6 8 -16 18 -21 9 -6 13 -11 7 -11 -5 0 -3 -5 5 -10 13 -8 13
-10 -2 -10 -9 0 -20 -5 -24 -12 -5 -8 -1 -9 12 -4 16 6 17 5 6 -6 -11 -11 -16
-10 -27 5 -10 14 -14 15 -19 5 -3 -7 -4 -4 -3 6 1 10 -4 21 -12 24 -9 3 -11
-1 -7 -15 4 -14 1 -19 -14 -20 -14 -1 -20 5 -21 20 -2 22 -2 22 -6 -1 -4 -21
-39 -49 -50 -39 -7 7 8 78 16 73 3 -2 7 12 7 33 1 20 0 30 -3 23 -3 -6 -9 -10
-13 -7 -5 3 -11 1 -15 -5 -3 -5 -2 -10 3 -10 5 0 9 -7 9 -15 0 -8 -4 -15 -8
-15 -4 0 -5 -10 -2 -22 4 -19 3 -20 -6 -8 -9 13 -11 12 -10 -5 1 -22 16 -75
18 -62 1 11 31 -19 31 -31 0 -11 -30 -26 -44 -23 -5 1 -6 -5 -2 -14 5 -14 4
-15 -16 0 -23 15 -35 75 -16 75 5 0 6 -6 2 -12 -5 -9 -2 -9 9 1 9 7 17 21 17
30 0 14 -2 14 -10 1 -13 -21 -24 -5 -11 18 12 22 6 33 -14 25 -8 -2 -22 0 -31
5 -16 9 -15 11 4 21 23 12 30 41 11 41 -5 0 -8 -4 -5 -9 7 -11 -16 -31 -43
-36 -15 -3 -19 0 -15 8 5 8 2 8 -7 -1 -12 -11 -12 -14 1 -22 8 -5 17 -7 20 -5
13 8 62 -53 54 -67 -6 -9 -10 -6 -14 11 -6 26 -40 39 -40 15 0 -8 -5 -14 -12
-14 -9 0 -9 -3 1 -12 10 -11 15 -9 28 7 l15 20 -4 -20 c-2 -11 -12 -21 -25
-23 -15 -2 -19 -8 -16 -23 3 -11 0 -19 -7 -19 -7 0 -10 6 -7 13 3 8 -1 14 -9
14 -8 0 -13 -6 -10 -12 3 -9 -6 -9 -34 -1 -22 5 -37 14 -34 18 3 5 10 5 16 2
7 -4 8 -2 4 4 -4 7 -1 12 8 12 10 0 13 -6 9 -17 -6 -17 -5 -17 13 -2 10 9 24
15 30 12 6 -2 10 8 9 26 -1 17 2 28 7 25 15 -9 8 6 -12 28 -12 13 -18 31 -16
44 3 13 -1 25 -9 28 -10 3 -12 0 -8 -11 5 -13 1 -15 -19 -11 -21 4 -27 1 -31
-19 -2 -12 0 -23 5 -23 5 0 6 -5 3 -10 -4 -6 -11 -8 -16 -5 -5 4 -14 -5 -20
-19 -14 -30 -38 -42 -34 -18 1 9 -4 26 -11 36 -12 18 -10 22 17 38 17 10 34
16 40 13 8 -6 13 8 10 28 -1 4 8 3 20 -4 12 -6 19 -7 15 -1 -3 5 1 15 9 22 8
7 13 16 10 19 -2 4 2 8 10 8 10 0 12 -4 5 -12 -7 -9 -6 -16 4 -24 10 -9 16 -9
21 -1 4 6 4 14 1 17 -3 4 -6 1 -6 -6 0 -7 -5 -9 -11 -5 -10 6 41 44 59 44 4 0
-2 -6 -13 -12 -19 -11 -19 -11 0 -19 17 -7 18 -8 3 -8 -10 -1 -18 -8 -18 -17
0 -8 -4 -13 -9 -9 -5 3 -12 2 -14 -3 -3 -4 6 -12 19 -19 14 -6 24 -7 24 -1 0
5 4 7 9 3 5 -3 12 -1 16 5 3 5 -1 10 -9 10 -9 0 -16 4 -16 10 0 5 6 7 14 4 11
-4 14 2 11 25 -2 17 -7 37 -11 43 -4 7 -3 8 4 4 17 -10 15 9 -2 23 -16 13 -32
-2 -21 -19 8 -13 -15 -13 -35 0 -13 8 -12 10 3 10 9 0 17 4 17 9 0 5 -14 7
-31 4 -21 -3 -29 -1 -24 6 3 6 15 11 26 11 10 0 19 3 20 8 0 4 2 16 3 28 3 21
36 76 36 58 0 -5 8 -10 19 -11 16 -1 18 4 15 33 -1 19 -6 39 -9 44 -3 5 0 7 8
4 8 -3 17 -22 21 -42z m839 17 c17 -1 18 -2 5 -6 -18 -5 -26 -43 -9 -43 16 0
22 18 9 23 -7 3 -3 4 9 4 17 -1 19 -4 11 -14 -8 -10 -5 -13 13 -14 13 -1 28
-1 32 0 5 1 6 -3 3 -8 -4 -5 -1 -11 6 -13 8 -3 8 -9 0 -24 -6 -10 -12 -15 -12
-10 0 5 -7 3 -15 -4 -22 -18 -30 -5 -17 25 7 15 8 25 2 25 -6 0 -10 -4 -10
-10 0 -5 -4 -10 -10 -10 -5 0 -7 7 -4 15 4 11 2 13 -9 9 -9 -3 -13 -13 -10
-25 3 -10 9 -16 14 -13 5 3 9 -6 9 -20 0 -26 14 -35 25 -16 3 6 14 10 24 10
10 0 21 9 24 20 4 15 10 18 24 13 17 -7 17 -8 0 -11 -9 -2 -15 -7 -12 -12 8
-13 -16 -60 -27 -54 -5 3 -7 12 -4 20 6 16 4 17 -19 8 -13 -6 -14 -9 -3 -16
10 -7 9 -8 -4 -4 -10 3 -18 1 -18 -4 0 -10 14 -14 39 -11 8 2 10 -2 5 -11 -6
-10 -5 -10 9 0 9 8 21 11 26 8 5 -4 12 -2 15 3 4 5 -2 11 -11 14 -10 2 5 3 32
3 l50 -2 3 -37 c2 -26 8 -37 19 -37 13 0 13 3 3 15 -11 13 -9 19 8 35 12 11
26 20 32 20 5 0 10 5 10 10 0 15 22 7 42 -15 9 -11 17 -16 18 -10 0 5 7 -1 16
-13 10 -15 12 -27 6 -35 -5 -7 -12 -20 -15 -30 -6 -15 -4 -16 16 -6 20 11 21
11 8 -4 -9 -11 -10 -17 -2 -18 26 -3 30 -4 37 -11 4 -5 -2 -8 -14 -8 -11 0
-24 5 -27 11 -4 6 -13 8 -21 5 -8 -3 -20 3 -26 14 -7 11 -16 20 -21 20 -4 0
-1 -10 8 -23 8 -13 13 -26 10 -29 -3 -2 2 -5 10 -5 8 0 15 4 15 9 0 5 7 3 15
-6 9 -8 22 -13 29 -10 17 6 31 -12 16 -21 -5 -3 -10 -1 -10 5 0 7 -6 5 -15 -4
-22 -22 -18 -26 15 -15 19 7 30 18 30 30 0 10 6 19 14 19 12 0 13 11 7 54 -1
11 -16 -2 -16 -15 0 -5 -3 -9 -7 -9 -5 0 -12 0 -18 0 -17 0 -11 18 8 23 10 3
5 5 -12 6 -31 1 -28 13 4 18 11 2 20 -3 20 -9 0 -8 6 -6 17 4 15 16 17 16 31
0 13 -16 13 -16 8 2 -5 13 -2 17 9 13 8 -4 17 -2 20 3 4 6 -1 10 -9 10 -12 0
-14 8 -10 33 4 20 2 27 -3 19 -7 -10 -14 -8 -28 8 -16 18 -17 23 -5 30 10 7
11 10 3 10 -7 0 -13 7 -13 15 0 8 4 15 9 15 5 0 7 8 4 19 -3 10 0 22 5 25 7 4
10 -15 9 -53 -2 -53 0 -58 15 -50 9 5 24 6 32 3 9 -3 16 -1 16 6 0 6 -4 8 -10
5 -14 -9 -12 8 4 30 13 18 14 18 31 1 21 -21 12 -34 -11 -15 -15 12 -16 11
-10 -9 6 -19 4 -25 -13 -29 -25 -6 -27 -30 -6 -69 14 -26 13 -30 -2 -42 -16
-12 -16 -15 7 -58 25 -46 45 -69 34 -39 -5 11 0 18 14 22 13 3 19 10 15 19 -3
9 2 14 16 14 12 0 21 5 21 11 0 6 -7 8 -16 5 -9 -3 -20 -6 -25 -6 -5 0 -9 -7
-9 -16 0 -8 -4 -13 -9 -10 -5 4 -12 0 -14 -6 -4 -9 -6 -7 -6 3 -1 9 -8 22 -16
29 -14 11 -13 14 2 25 10 8 14 19 9 30 -3 10 -1 24 6 32 10 12 9 14 -7 11 -12
-2 -21 4 -23 15 -2 9 2 17 8 17 7 0 10 -7 6 -15 -4 -13 -2 -14 14 -5 11 6 20
13 20 16 0 3 -6 2 -12 -2 -10 -6 -10 -5 -1 8 7 8 9 18 5 23 -4 4 3 3 15 -4 40
-20 37 -71 -4 -71 -15 0 -22 -4 -18 -11 4 -6 13 -8 21 -5 8 3 14 1 14 -5 0 -6
5 -7 10 -4 6 4 8 11 5 16 -4 5 -2 9 3 9 6 0 13 -7 16 -16 5 -12 14 -14 34 -10
22 5 24 4 10 -4 -10 -6 -25 -10 -34 -8 -9 2 -19 -3 -22 -11 -3 -10 1 -12 17
-8 13 3 19 1 14 -6 -4 -7 0 -8 13 -4 19 7 19 7 0 -8 -11 -8 -17 -18 -13 -21 3
-4 2 -15 -3 -25 -6 -9 -7 -19 -2 -22 4 -2 1 -2 -5 -1 -7 2 -13 -5 -13 -15 0
-11 6 -21 13 -24 6 -2 0 -4 -15 -4 -24 0 -26 2 -17 25 6 15 15 32 21 39 6 8 8
16 4 20 -3 4 -13 -3 -22 -15 -8 -12 -20 -20 -25 -16 -6 3 -9 -2 -7 -12 2 -11
-2 -18 -9 -16 -17 3 -16 -13 1 -27 15 -12 65 -12 82 1 8 6 13 0 16 -17 3 -14
1 -25 -3 -25 -5 0 -9 5 -9 10 0 6 -5 10 -11 10 -5 0 -7 -6 -3 -12 5 -9 2 -9
-9 1 -11 9 -17 10 -17 2 0 -13 -22 -10 -33 4 -4 6 -13 3 -22 -9 -8 -11 -15
-15 -15 -9 0 7 -8 14 -17 16 -11 3 -7 5 10 6 31 1 36 20 7 28 -17 5 -18 8 -8
21 7 9 8 13 3 10 -6 -4 -11 4 -10 20 0 23 -4 27 -25 25 -14 -1 -19 0 -12 3 6
3 12 16 12 28 0 12 5 27 12 34 16 16 -3 15 -24 -2 -21 -15 -24 -36 -6 -36 9 0
9 -3 0 -12 -17 -17 -15 -24 10 -47 18 -17 19 -23 8 -36 -11 -13 -10 -15 3 -10
8 4 18 2 21 -3 3 -5 -3 -12 -14 -15 -11 -3 -20 -1 -20 5 0 5 -4 6 -10 3 -6 -3
-7 1 -4 9 3 9 10 16 15 16 17 0 9 15 -13 25 -13 6 -22 16 -20 23 1 7 -2 12 -8
12 -5 0 -10 -9 -10 -19 0 -10 -7 -22 -16 -25 -8 -3 -12 -10 -9 -16 3 -5 2 -10
-3 -10 -13 0 -11 -30 2 -31 6 0 0 -4 -12 -10 -13 -5 -28 -7 -32 -4 -12 7 -9
-37 3 -53 7 -9 6 -17 -3 -25 -9 -8 -11 -8 -7 -1 4 7 0 14 -8 17 -9 4 -12 1 -8
-9 3 -8 -1 -14 -11 -14 -20 0 -21 14 -2 33 8 8 13 26 12 40 -2 14 0 25 4 24 5
-1 8 3 9 8 1 6 -3 10 -8 10 -5 0 -13 4 -18 9 -5 5 1 7 15 3 14 -3 22 -1 22 8
0 9 -9 12 -25 9 -29 -5 -33 7 -8 27 10 8 14 9 10 2 -4 -6 -3 -14 2 -17 12 -8
21 17 12 32 -4 7 -12 8 -21 2 -22 -14 -30 -12 -31 8 0 10 -3 12 -6 5 -8 -22
-19 -14 -18 14 0 22 -7 31 -35 44 -19 9 -39 14 -44 11 -5 -3 -6 1 -1 8 5 8 4
11 -3 6 -6 -3 -13 -2 -17 4 -3 5 0 10 8 10 11 0 13 7 9 22 -5 21 -5 21 -13 1
-4 -12 -12 -24 -18 -28 -13 -7 -44 8 -41 21 1 5 -2 10 -7 11 -5 2 -9 -6 -10
-18 -3 -30 -7 -32 -46 -15 -19 8 -39 11 -43 8 -4 -4 -4 -2 0 5 5 9 14 9 37 1
16 -6 32 -8 35 -5 3 3 -8 8 -25 12 -17 4 -31 11 -31 16 0 6 -4 7 -10 4 -13 -8
-52 14 -45 26 4 5 16 9 28 9 18 0 19 -2 7 -10 -13 -8 -12 -10 3 -10 9 0 17 4
17 10 0 5 -8 14 -17 19 -12 7 -14 10 -4 11 11 0 11 3 1 15 -15 19 -31 10 -23
-13 4 -13 2 -13 -10 3 -9 11 -17 15 -17 8 0 -15 -30 -18 -30 -3 0 6 7 10 15
10 9 0 12 6 9 15 -4 8 -13 15 -21 15 -8 0 -13 7 -11 18 2 9 8 17 14 17 6 0 18
8 28 18 10 10 13 17 5 17 -8 0 -8 5 2 17 13 15 14 15 17 0 2 -10 13 -18 25
-18z m-1004 -39 c5 0 12 -8 16 -17 5 -14 3 -15 -6 -6 -6 6 -18 9 -27 6 -10 -4
-13 -2 -8 5 3 6 2 13 -3 17 -14 8 -32 -30 -24 -51 5 -13 3 -15 -7 -9 -10 6
-12 3 -7 -14 6 -26 -1 -53 -13 -46 -5 3 -6 15 -4 28 2 12 1 15 -2 7 -4 -8 -12
-18 -18 -22 -7 -5 -6 -8 3 -8 11 0 11 -4 -2 -18 -16 -17 -16 -19 0 -19 10 0
23 4 30 9 7 5 14 5 18 -2 4 -7 12 -7 24 0 26 14 34 0 15 -28 -15 -23 -15 -24
5 -17 12 4 21 2 21 -4 0 -18 -36 -12 -64 10 -33 26 -62 21 -59 -9 2 -13 -3
-22 -10 -22 -21 0 -28 12 -16 26 13 16 19 64 8 64 -4 0 5 14 21 32 16 17 28
34 25 36 -2 2 3 11 11 19 8 8 12 19 8 24 -7 13 15 41 27 33 5 -3 9 1 10 8 0 7
4 3 9 -9 5 -13 14 -23 19 -23z m227 24 c13 -11 15 -17 7 -20 -7 -3 -13 -10
-13 -15 0 -6 5 -7 10 -4 6 3 10 1 10 -4 0 -6 -4 -11 -10 -11 -5 0 -11 -10 -11
-22 -1 -19 -2 -19 -6 -5 -3 10 -11 16 -18 13 -20 -7 -26 4 -14 26 8 14 8 23 0
31 -28 28 11 38 45 11z m1300 -7 c8 -18 6 -26 -10 -42 -10 -11 -16 -14 -12 -7
4 7 4 12 -1 11 -21 -4 -33 2 -33 16 0 8 5 15 10 15 6 0 10 -4 10 -8 0 -5 7 -9
15 -9 22 0 18 14 -6 20 -12 3 -18 10 -14 16 10 18 29 12 41 -12z m113 6 c-3
-21 2 -34 11 -28 6 4 7 12 4 18 -4 7 -3 9 1 4 5 -4 10 -18 11 -30 2 -12 0 -16
-2 -9 -3 6 -10 10 -14 7 -11 -7 -32 30 -23 39 8 8 13 8 12 -1z m-22 -58 c2
-16 8 -36 14 -46 14 -27 11 -32 -7 -14 -20 20 -25 16 -17 -14 3 -13 11 -20 19
-17 15 6 18 -3 8 -28 -5 -13 -11 -7 -26 21 -11 21 -24 40 -29 43 -14 10 -3 45
14 42 10 -2 15 4 14 18 -2 24 -14 26 -39 3 -17 -15 -18 -15 -18 8 0 19 2 21
10 9 8 -13 10 -13 10 2 0 30 43 6 47 -27z m-968 9 c3 -4 0 -9 -6 -11 -18 -6
-16 -32 3 -40 13 -5 12 -9 -6 -28 -11 -12 -17 -25 -13 -28 3 -4 -2 -7 -12 -7
-20 0 -15 -10 7 -14 7 -1 19 -6 27 -11 10 -5 16 -4 19 3 2 7 7 10 11 8 4 -3
20 6 36 18 25 20 28 26 16 40 -7 9 -10 16 -5 17 5 1 -2 5 -16 9 -24 8 -24 8
-3 9 14 1 28 -9 38 -26 15 -26 15 -23 -1 25 -5 14 -3 14 10 -2 22 -27 20 -39
-9 -66 l-25 -23 25 -21 c14 -12 25 -28 25 -36 0 -9 -10 -4 -28 13 -21 20 -29
23 -29 12 0 -8 3 -15 6 -15 3 0 14 -7 24 -15 15 -10 17 -18 8 -32 -10 -17 -10
-17 -11 0 0 9 -5 17 -10 17 -16 0 -29 -43 -19 -61 4 -9 5 -19 2 -23 -3 -3 1
-6 10 -6 21 0 22 14 3 30 -8 6 -12 18 -9 26 7 20 23 7 17 -14 -5 -15 -4 -15 6
-2 10 13 11 13 6 -2 -3 -10 -1 -20 4 -23 5 -3 7 -14 5 -25 -2 -11 0 -22 6 -25
5 -4 9 -1 9 5 0 6 5 8 10 5 6 -3 10 -2 10 4 0 5 -6 12 -12 14 -7 3 1 6 18 6
17 1 34 -2 38 -6 13 -14 46 -9 62 8 14 15 18 16 30 4 15 -15 19 -35 6 -35 -4
0 -14 6 -20 12 -17 17 -34 -8 -27 -38 6 -25 -16 -39 -34 -21 -8 8 -6 15 5 28
15 16 14 17 -5 12 -11 -3 -19 -8 -16 -12 2 -4 -11 -13 -28 -19 -39 -14 -51
-54 -14 -46 41 10 69 12 62 6 -4 -4 -10 -7 -13 -8 -52 -9 -72 -19 -72 -35 0
-24 -9 -24 -26 -1 -18 23 -17 32 1 32 8 0 15 5 15 11 0 5 -4 7 -10 4 -5 -3
-10 3 -10 15 0 13 4 19 12 14 7 -4 8 -3 4 4 -4 8 0 12 11 12 10 0 29 10 43 21
14 11 19 18 13 14 -7 -3 -13 0 -13 7 0 7 -7 2 -16 -10 -14 -20 -56 -32 -53
-14 4 25 -3 34 -11 15 -15 -36 -32 -28 -27 12 3 19 1 35 -5 35 -5 0 -6 5 -2
11 4 7 1 10 -7 7 -8 -3 -14 -10 -14 -16 0 -5 -3 -13 -7 -17 -3 -4 -4 -23 -2
-43 5 -37 5 -37 -10 -12 -10 17 -11 30 -5 42 5 10 7 19 4 19 -3 1 -9 2 -14 3
-21 3 -23 16 -2 16 12 0 24 7 28 16 3 8 12 13 19 10 20 -7 17 4 -3 20 -13 10
-14 13 -3 9 9 -3 24 2 35 11 17 13 17 15 3 10 -14 -4 -18 1 -18 22 l-1 27 -14
-30 c-9 -18 -13 -21 -9 -8 4 18 1 21 -15 18 -12 -2 -21 0 -21 6 0 5 -5 9 -11
9 -6 0 -9 -6 -6 -12 2 -7 12 -12 21 -12 11 1 16 -6 16 -23 0 -13 -4 -21 -10
-18 -5 3 -10 1 -10 -6 0 -7 -10 -9 -25 -7 -13 3 -26 1 -29 -4 -2 -5 -3 -3 -1
4 1 7 8 12 14 11 6 -2 11 2 11 7 0 6 -2 10 -4 10 -2 0 -12 3 -22 7 -10 4 -15
2 -11 -3 3 -6 -3 -11 -14 -11 -25 -2 -26 37 -1 67 14 18 19 19 19 7 0 -9 -4
-14 -9 -11 -4 3 -8 3 -8 0 0 -2 -3 -11 -6 -20 -4 -11 0 -16 13 -16 10 0 28 -6
39 -14 13 -10 25 -11 35 -5 11 7 11 9 -4 9 -10 0 -20 7 -23 15 -4 10 -14 14
-28 10 -18 -5 -17 -4 4 9 14 9 20 15 14 16 -7 0 -15 7 -18 16 -3 8 -2 12 3 9
17 -10 41 36 30 57 -5 10 -14 16 -20 12 -6 -4 -5 -11 3 -21 10 -12 8 -18 -12
-33 -24 -18 -40 -18 -40 1 0 5 11 9 25 9 14 0 25 5 25 10 0 6 -11 8 -25 4 -19
-5 -25 -2 -25 10 0 19 16 22 22 4 3 -7 7 -6 11 5 5 12 1 17 -13 17 -10 0 -22
5 -26 11 -4 7 -9 7 -13 2 -9 -14 -71 -25 -71 -13 0 6 4 10 10 10 5 0 7 7 4 15
-4 8 -1 15 5 15 6 0 10 -3 10 -7 -3 -20 3 -23 22 -13 12 7 25 8 32 2 7 -5 22
-12 35 -15 21 -5 26 2 23 30 -2 12 36 10 48 -3z m1061 11 c0 -1 -9 -10 -19
-19 -19 -17 -19 -17 -15 1 3 11 12 20 20 20 8 0 14 -1 14 -2z m-1031 -23 c1
14 5 14 26 5 l24 -12 -26 -7 c-31 -9 -43 -3 -42 20 0 14 2 13 9 -3 7 -16 9
-17 9 -3z m480 -25 c-9 -7 -15 -19 -14 -28 2 -12 -3 -15 -16 -12 -18 5 -19 7
-4 29 8 13 15 31 15 41 0 16 1 16 18 0 15 -17 16 -19 1 -30z m-1171 25 c13 11
15 10 10 -9 -4 -13 -2 -23 3 -23 5 0 9 6 9 13 1 8 5 7 13 -4 7 -9 18 -14 25
-12 6 3 12 0 12 -5 0 -11 -36 -23 -45 -14 -11 11 -35 10 -36 -1 -1 -19 -18 26
-18 48 1 11 3 14 6 7 4 -10 8 -10 21 0z m1505 -6 c3 -8 -2 -20 -11 -28 -15
-12 -16 -11 -3 5 12 15 11 17 -3 17 -10 0 -14 5 -11 10 9 14 22 12 28 -4z
m162 -22 c1 -13 0 -24 -2 -24 -8 0 -23 42 -17 51 9 15 19 1 19 -27z m-757 3
c6 0 12 -5 12 -10 0 -5 -7 -6 -16 -3 -8 3 -12 2 -9 -4 3 -6 -1 -7 -9 -4 -9 3
-13 11 -9 18 3 6 2 7 -2 3 -12 -11 -17 -35 -17 -84 0 -30 -5 -43 -14 -43 -16
0 -12 56 5 88 6 11 8 22 5 25 -11 11 8 28 25 21 9 -3 22 -7 29 -7z m-629 -35
c-1 -16 -3 -20 -6 -10 -2 10 -10 15 -19 11 -8 -3 -14 0 -14 6 0 6 6 10 13 9 6
-2 11 3 9 10 -1 8 2 11 8 7 5 -3 9 -18 9 -33z m-305 -1 c14 -27 14 -29 -2 -24
-10 2 -17 14 -17 29 0 31 1 30 19 -5z m576 24 c0 -3 -15 -12 -32 -20 l-33 -15
40 5 c29 3 35 2 20 -5 -11 -5 -33 -9 -48 -9 -16 -1 -26 -5 -22 -11 3 -5 1 -10
-4 -10 -6 0 -11 -5 -11 -11 0 -5 6 -7 13 -3 8 5 9 4 2 -4 -13 -14 -65 -23 -65
-11 0 5 9 9 20 9 22 0 27 16 8 23 -10 3 -10 8 1 18 8 8 11 9 7 2 -3 -6 -2 -14
4 -18 5 -3 10 -4 10 -1 0 2 3 11 6 20 4 10 1 16 -9 16 -9 0 -19 5 -23 11 -5 8
4 10 29 7 20 -2 33 0 31 4 -3 4 9 8 25 8 17 0 31 -2 31 -5z m160 -5 c12 -8 9
-12 -17 -22 -18 -7 -33 -16 -33 -21 0 -4 4 -5 10 -2 5 3 18 1 27 -5 16 -9 15
-10 -4 -5 -14 4 -23 2 -23 -4 0 -6 -4 -11 -10 -11 -15 0 -12 36 3 49 8 6 17 8
21 4 4 -4 4 0 0 10 -7 19 3 22 26 7z m-679 -55 c5 3 6 -1 3 -10 -6 -13 -10
-11 -25 11 -14 21 -15 30 -6 36 8 5 13 -1 15 -17 2 -14 8 -23 13 -20z m871 25
c15 -24 34 -26 42 -4 5 14 4 15 -8 5 -11 -9 -15 -8 -20 4 -4 13 -1 16 17 13
12 -2 21 -9 20 -16 -2 -6 3 -12 10 -12 6 0 1 -9 -13 -19 l-25 -19 26 -7 c14
-3 26 -13 26 -21 0 -19 -13 -18 -21 2 -7 18 -22 11 -28 -14 -4 -15 1 -18 31
-17 30 0 36 4 37 23 1 19 -25 46 -37 39 -3 -1 -1 2 2 6 11 14 44 3 44 -13 1
-8 6 -14 13 -12 7 1 12 -3 12 -9 0 -6 -8 -8 -17 -5 -15 5 -15 4 1 -9 11 -8 17
-15 13 -15 -16 0 -23 -2 -34 -12 -7 -6 -10 -14 -7 -19 10 -17 -15 -9 -26 9
-11 16 -11 16 -6 0 3 -10 -2 -22 -12 -27 -15 -9 -15 -10 -1 -11 9 0 19 -9 22
-21 6 -22 28 -22 35 -1 2 7 -2 10 -12 6 -9 -4 -16 -1 -16 6 0 8 8 10 21 7 18
-5 20 -2 15 19 -7 27 -1 29 30 11 19 -10 20 -14 8 -25 -7 -7 -17 -13 -21 -15
-5 -1 -7 -5 -5 -9 1 -5 -2 -8 -7 -8 -4 0 -6 -11 -3 -25 5 -28 22 -35 17 -7 -1
9 0 11 2 4 3 -7 10 -9 16 -5 8 5 8 2 0 -8 -11 -13 -9 -18 11 -29 30 -15 46 -7
38 22 -3 11 -1 19 4 16 5 -3 15 0 21 8 10 10 10 15 1 20 -7 4 -14 2 -16 -4 -2
-7 -8 -12 -13 -12 -4 0 -6 7 -3 15 4 8 1 15 -6 15 -8 0 -10 -8 -7 -23 4 -12 2
-29 -4 -37 -8 -12 -9 -11 -7 5 2 11 -6 28 -17 38 -19 16 -19 17 -1 10 16 -5
18 -3 13 11 -4 9 -3 15 2 11 5 -3 11 7 13 22 3 24 5 25 18 12 13 -13 22 -13
60 -3 25 7 38 12 29 13 -9 1 -20 8 -23 17 -3 8 -12 12 -18 9 -7 -4 -4 1 7 10
18 15 20 15 23 0 3 -11 11 -15 23 -12 23 6 37 -12 18 -24 -8 -5 -10 -9 -6 -9
4 0 3 -9 -3 -20 -7 -13 -21 -20 -38 -20 -21 0 -24 2 -12 10 13 8 13 10 -2 10
-9 0 -18 -5 -20 -11 -3 -9 -10 -9 -26 0 -12 6 -22 8 -22 3 0 -11 38 -25 57
-23 9 1 12 -9 9 -31 -3 -23 -9 -33 -20 -32 -9 1 -16 -1 -17 -5 0 -3 -2 -16 -5
-28 -3 -20 -1 -21 21 -13 20 8 25 6 25 -6 0 -11 -5 -14 -16 -10 -11 4 -18 -1
-21 -14 -3 -11 -10 -20 -15 -20 -6 0 -8 6 -5 13 9 24 -11 42 -42 39 -26 -3
-29 -1 -24 17 4 17 2 20 -12 14 -12 -4 -16 -3 -12 4 8 12 -20 26 -34 17 -5 -3
-9 -14 -9 -25 0 -13 -6 -19 -17 -17 -15 2 -19 -5 -21 -39 -4 -50 -12 -54 -30
-16 -10 23 -10 28 4 36 11 6 14 17 10 33 -5 19 -2 24 11 24 15 0 16 -2 3 -10
-13 -8 -13 -10 2 -10 9 0 24 10 32 21 9 13 21 19 30 16 10 -4 16 -1 16 9 0 8
-5 12 -10 9 -6 -4 -17 -1 -25 5 -8 7 -15 9 -15 4 0 -5 -7 2 -16 14 -8 12 -19
20 -24 17 -5 -3 -12 0 -16 6 -4 7 -3 9 3 6 6 -4 14 0 17 9 3 9 13 14 21 11 9
-4 12 -1 9 8 -3 8 -11 13 -17 12 -7 -1 -12 10 -12 25 -1 15 -4 30 -8 34 -4 4
-7 0 -7 -8 0 -9 -7 -21 -14 -28 -13 -10 -15 -5 -13 29 2 22 -1 42 -6 44 -10 3
2 37 14 37 5 0 14 -9 21 -20z m341 0 c-6 -23 -16 -25 -32 -7 -13 16 -5 27 20
27 12 0 16 -6 12 -20z m-509 -5 c-4 -8 -10 -12 -15 -9 -14 8 -10 24 6 24 9 0
12 -6 9 -15z m-804 -15 c0 -5 -5 -10 -11 -10 -5 0 -7 5 -4 10 3 6 8 10 11 10
2 0 4 -4 4 -10z m630 -25 c-5 -6 -14 -22 -20 -36 -9 -21 -10 -21 -6 -2 3 15 0
20 -10 16 -8 -3 -14 0 -14 6 0 6 5 11 12 11 6 0 8 3 5 6 -4 4 -14 1 -22 -6
-15 -12 -15 -14 -1 -22 9 -5 16 -14 16 -21 0 -7 -4 -6 -10 3 -8 12 -10 10 -10
-8 0 -13 4 -21 9 -18 5 3 23 -2 41 -10 29 -15 30 -18 16 -32 -8 -9 -19 -12
-23 -8 -4 4 -2 10 4 14 9 6 7 11 -6 19 -16 10 -20 9 -25 -10 -5 -18 -8 -20
-16 -7 -8 13 -13 13 -30 2 -21 -13 -40 -9 -40 8 0 5 7 7 15 4 22 -9 46 16 45
45 -4 48 0 58 23 68 26 12 62 -4 47 -22z m-690 16 c0 -4 -5 -22 -11 -40 -9
-25 -14 -29 -25 -20 -20 17 -17 39 6 39 13 0 18 5 14 15 -4 8 -1 15 5 15 6 0
11 -4 11 -9z m929 -14 c22 15 23 15 19 -18 -3 -30 0 -34 19 -31 26 4 37 -12
24 -35 -8 -15 -11 -15 -12 -3 -1 8 -1 20 1 25 1 6 -4 5 -10 -1 -14 -14 -4 -55
13 -51 7 1 15 11 19 22 6 19 6 19 7 -1 1 -25 -23 -49 -39 -39 -5 3 -10 14 -10
23 0 15 -2 15 -10 2 -13 -20 -13 -33 0 -25 5 3 7 0 4 -9 -5 -12 -9 -13 -19 -3
-7 6 -11 17 -8 23 2 7 0 15 -6 19 -7 4 -11 -3 -11 -17 0 -17 -3 -20 -9 -9 -11
17 8 63 23 58 6 -2 10 -12 8 -22 -2 -10 1 -14 7 -10 19 11 12 30 -24 65 -19
19 -35 39 -35 44 0 6 6 3 14 -6 12 -16 15 -16 35 -1z m-732 -3 c-3 -3 -12 -4
-19 -1 -8 3 -5 6 6 6 11 1 17 -2 13 -5z m388 -34 c3 -5 -1 -10 -10 -10 -9 0
-13 5 -10 10 3 6 8 10 10 10 2 0 7 -4 10 -10z m618 -6 c4 -1 10 -3 15 -4 4 -1
12 -3 17 -4 21 -4 45 -19 45 -27 0 -17 -52 -4 -62 15 -9 17 -11 18 -20 3 -12
-22 -42 -23 -34 -1 3 9 6 20 6 25 0 6 6 7 13 2 6 -4 15 -8 20 -9z m-1237 -17
c2 -7 1 -23 -3 -34 -7 -19 -10 -20 -26 -8 -16 11 -16 16 -5 34 15 24 26 27 34
8z m644 -1 c0 -8 -7 -16 -15 -20 -13 -4 -14 -2 -5 14 13 23 20 26 20 6z m433
-30 c-4 -5 -12 -1 -19 9 -7 10 -11 22 -8 27 3 5 12 1 19 -9 7 -10 11 -22 8
-27z m347 14 c0 -5 -9 -19 -20 -30 -11 -11 -16 -20 -11 -20 6 0 13 5 17 12 5
7 10 4 15 -10 5 -13 14 -20 23 -16 18 7 27 -8 15 -26 -7 -12 -9 -11 -10 5 0
11 -3 14 -6 8 -2 -7 -9 -13 -14 -13 -6 0 -8 4 -4 9 3 5 0 13 -6 17 -8 4 -9 -3
-4 -27 l8 -34 -27 32 c-28 33 -32 53 -16 84 11 20 40 27 40 9z m-1224 -32 c4
-6 2 -14 -4 -16 -18 -6 -14 -20 5 -18 20 1 29 -31 15 -52 -6 -9 -15 -10 -33
-3 -13 5 -22 10 -19 11 3 1 13 3 23 5 25 5 27 8 17 25 -8 12 -10 11 -11 -5 l0
-20 -9 20 c-5 11 -9 15 -9 8 -1 -7 -10 -17 -21 -23 -16 -8 -20 -8 -20 4 0 8 9
18 21 21 16 5 19 12 15 31 -5 17 -2 24 8 24 8 0 18 -5 22 -12z m393 -11 c-3
-24 1 -37 12 -37 6 0 9 7 5 15 -3 8 -1 15 3 15 5 0 16 2 24 5 8 4 14 0 14 -9
0 -8 -6 -12 -14 -9 -7 3 -13 -1 -14 -8 0 -8 -3 -27 -5 -44 l-5 -30 26 30 c15
17 24 23 21 13 -3 -10 0 -17 6 -15 6 1 12 -3 14 -8 2 -6 -8 -12 -23 -13 -15
-1 -38 -9 -51 -18 -20 -13 -22 -18 -11 -25 11 -7 9 -9 -6 -9 -36 0 -65 12 -65
27 0 8 -4 12 -9 8 -6 -3 -8 -14 -6 -25 3 -13 0 -18 -7 -14 -7 5 -9 2 -6 -7 4
-10 -3 -14 -27 -14 -28 0 -32 3 -30 23 1 12 -2 22 -6 22 -5 0 -9 5 -9 11 0 5
6 7 13 3 13 -9 -11 26 -28 38 -6 5 -6 8 2 8 7 0 17 -8 23 -17 10 -15 11 -14 7
9 -3 23 -1 25 17 18 13 -4 21 -16 21 -30 1 -31 17 -35 40 -10 19 21 8 29 -13
8 -8 -8 -12 -9 -12 -1 0 6 6 14 13 16 7 3 5 6 -5 6 -10 1 -18 6 -18 11 0 15
23 7 45 -15 11 -11 28 -19 38 -17 9 2 17 -1 17 -7 0 -7 -12 -9 -31 -6 -26 5
-28 3 -17 -9 15 -16 48 -13 60 6 11 18 10 30 -2 23 -5 -3 -10 -1 -10 4 0 6 7
11 16 11 13 0 14 3 4 15 -9 11 -15 12 -25 2 -7 -7 -11 -15 -8 -19 2 -5 -1 -8
-7 -8 -13 0 -3 41 12 51 7 4 6 9 0 13 -6 4 -9 13 -6 21 7 17 25 10 23 -8z
m224 2 c7 0 2 -4 -10 -9 -16 -6 -23 -18 -23 -35 0 -15 4 -24 10 -20 5 3 8 -7
5 -23 -2 -16 1 -35 6 -43 7 -10 8 -5 5 16 -5 27 -4 28 9 12 7 -11 12 -24 11
-30 -2 -7 -1 -9 1 -4 3 4 11 7 19 7 8 0 11 6 7 18 -5 13 -3 14 7 5 18 -17 -15
-115 -38 -112 -29 2 -35 -1 -24 -13 10 -13 12 -19 12 -38 0 -5 7 -10 15 -10 8
0 15 -7 15 -15 0 -13 -3 -13 -19 2 -24 24 -41 57 -41 83 0 17 3 19 18 11 13
-7 22 -7 30 1 12 12 5 38 -10 38 -5 0 -7 -4 -3 -9 9 -15 -16 -24 -28 -11 -9
10 -9 11 3 5 12 -7 13 -6 4 6 -5 8 -12 32 -13 54 -2 22 -7 45 -12 51 -5 6 -6
14 -2 17 3 4 0 7 -7 7 -9 0 -8 5 5 13 11 9 15 19 10 27 -6 10 -4 12 9 7 10 -4
23 -7 29 -8z m-131 -18 c-10 -6 -8 -13 7 -32 11 -13 20 -19 21 -12 0 6 -5 15
-10 18 -13 8 -3 25 13 25 7 0 6 -4 -3 -10 -11 -7 -12 -10 -2 -10 8 0 16 9 19
20 6 21 28 27 38 10 3 -5 -1 -10 -9 -10 -9 0 -16 -5 -16 -12 0 -6 -10 -22 -22
-35 -21 -23 -21 -23 -1 -23 16 0 20 -5 16 -19 -4 -14 -14 -18 -49 -18 -44 0
-58 10 -29 20 8 4 17 2 20 -3 13 -21 27 -9 21 18 -9 36 -35 56 -53 41 -7 -6
-13 -8 -13 -5 0 11 53 57 59 51 3 -4 0 -10 -7 -14z m-682 -6 c0 -9 -6 -12 -15
-9 -8 4 -15 10 -15 15 0 5 7 9 15 9 8 0 15 -7 15 -15z m1055 5 c3 -5 -1 -10
-9 -10 -9 0 -16 5 -16 10 0 6 4 10 9 10 6 0 13 -4 16 -10z m-29 -27 c-8 -8
-36 5 -36 17 0 7 6 7 21 0 11 -7 18 -14 15 -17z m346 10 c23 -27 33 -47 20
-39 -7 4 -12 2 -12 -4 0 -6 -5 -8 -10 -5 -6 4 -8 11 -5 16 4 5 1 10 -4 10 -6
1 -15 2 -20 3 -5 0 -13 5 -18 10 -4 5 5 6 22 3 l30 -6 -30 14 c-25 12 -26 14
-9 15 11 0 28 -8 36 -17z m-1516 -9 c-3 -9 -6 -17 -6 -20 0 -2 -7 -1 -15 2
-12 5 -13 10 -4 20 16 19 33 18 25 -2z m104 -25 c0 -4 -9 -6 -20 -4 -12 2 -28
1 -37 -2 -14 -6 -14 -7 3 -14 16 -6 16 -8 2 -8 -20 -1 -32 15 -25 33 5 14 77
10 77 -5z m897 -1 c2 -17 0 -19 -7 -8 -5 8 -6 18 -4 22 8 12 10 10 11 -14z
m763 10 c0 -14 -15 -16 -27 -3 -10 11 -9 13 7 12 11 -1 20 -5 20 -9z m-1750
-23 c0 -22 -3 -24 -19 -15 -13 6 -21 6 -23 0 -2 -6 -8 -2 -15 9 -13 20 -2 24
23 8 7 -4 14 0 18 8 8 23 16 18 16 -10z m893 11 c4 -9 0 -13 -11 -12 -9 2 -18
8 -20 14 -5 17 25 15 31 -2z m572 8 c13 -5 14 -8 3 -15 -19 -12 -25 -11 -25 6
0 17 0 17 22 9z m118 -20 c-3 -8 -2 -14 3 -13 20 3 28 -2 15 -10 -10 -7 -19
-4 -28 7 -17 23 -16 43 1 36 8 -3 12 -12 9 -20z m-1313 6 c12 -8 13 -11 1 -19
-7 -5 -22 -6 -32 -4 -15 4 -17 8 -8 19 14 16 19 17 39 4z m2326 -12 c1 -9 -4
-19 -10 -21 -7 -3 -13 1 -13 9 0 8 5 14 11 14 6 0 4 5 -4 11 -12 8 -12 10 -1
7 8 -2 15 -11 17 -20z m-2671 1 c11 -17 -1 -21 -15 -4 -8 9 -8 15 -2 15 6 0
14 -5 17 -11z m1350 -10 c-4 -5 1 -9 10 -9 19 0 16 -51 -4 -58 -10 -3 -10 0
-2 16 8 15 7 23 -4 32 -17 14 -21 45 -5 35 6 -4 8 -11 5 -16z m1254 -5 c-8
-10 -8 -14 0 -14 6 0 11 -9 11 -21 0 -11 -5 -17 -10 -14 -6 4 -8 11 -4 16 3 6
-3 13 -15 16 -19 5 -31 25 -13 22 20 -3 32 2 26 13 -4 7 -3 8 5 4 9 -6 9 -11
0 -22z m-2446 3 c3 -8 -1 -14 -9 -14 -8 0 -14 6 -14 14 0 7 4 13 9 13 5 0 11
-6 14 -13z m1391 1 c-5 -9 -2 -9 9 1 15 12 17 11 17 -3 0 -9 -8 -16 -19 -16
-21 0 -34 13 -24 24 11 11 24 6 17 -6z m69 -8 c-3 -11 -12 -20 -19 -20 -8 0
-14 9 -14 20 0 13 7 20 19 20 14 0 18 -5 14 -20z m192 3 c-1 -10 1 -22 5 -28
12 -16 8 -45 -6 -45 -8 0 -11 9 -9 21 2 12 0 30 -5 39 -7 13 -6 20 3 23 6 3
13 6 14 6 1 1 0 -7 -2 -16z m-1296 -15 c0 -13 -3 -17 -6 -10 -2 6 -9 10 -14 6
-5 -3 -14 -2 -20 2 -8 4 -7 9 2 15 24 15 39 10 38 -13z m461 6 c0 -17 -22 -14
-28 4 -2 7 3 12 12 12 9 0 16 -7 16 -16z m140 7 c0 -12 -20 -25 -27 -18 -7 7
6 27 18 27 5 0 9 -4 9 -9z m400 5 c0 -2 -7 -6 -15 -10 -8 -3 -15 -1 -15 4 0 6
7 10 15 10 8 0 15 -2 15 -4z m1182 -31 c-2 -14 -9 -25 -14 -25 -6 0 -8 7 -5
15 5 11 -1 13 -26 10 -29 -5 -28 -4 6 7 23 8 35 17 30 22 -4 5 -3 6 3 3 6 -4
9 -18 6 -32z m-1038 -16 c12 -10 18 -21 13 -25 -4 -4 -12 -3 -18 3 -15 15 -39
5 -38 -16 0 -10 2 -11 6 -3 8 20 19 13 19 -13 0 -29 -4 -30 -29 -10 -13 9 -17
20 -12 34 5 15 2 21 -9 21 -9 0 -16 5 -16 10 0 12 2 12 34 0 25 -9 26 -8 21
18 -3 15 -2 20 1 12 4 -8 17 -22 28 -31z m191 31 c-3 -4 9 -10 25 -13 23 -5
28 -10 23 -23 -6 -16 -7 -16 -13 1 -6 18 -7 18 -14 -1 -7 -18 -8 -17 -26 6
-24 30 -24 37 -5 37 8 0 12 -4 10 -7z m-1015 -10 c0 -5 -5 -10 -11 -10 -5 0
-7 5 -4 10 3 6 8 10 11 10 2 0 4 -4 4 -10z m388 -9 c3 -8 0 -11 -6 -7 -7 4
-21 2 -32 -4 -16 -8 -20 -8 -20 4 0 27 49 33 58 7z m113 -4 c-1 -4 -1 -11 -1
-17 0 -5 -4 -10 -10 -10 -5 0 -7 8 -3 18 5 14 3 13 -10 -3 -16 -20 -16 -19
-17 7 0 24 3 26 21 20 11 -5 20 -11 20 -15z m723 11 c-5 -8 -2 -9 10 -5 10 4
15 3 11 -3 -10 -15 -35 -12 -35 5 0 8 5 15 11 15 5 0 7 -5 3 -12z m-1097 -10
c15 -20 10 -91 -6 -96 -9 -3 -11 0 -5 9 12 20 13 52 2 69 -6 11 -7 8 -2 -9 4
-17 3 -21 -6 -16 -9 5 -10 1 -6 -16 6 -21 5 -20 -9 4 -14 25 -19 27 -33 15 -9
-7 -21 -19 -25 -25 -10 -16 -37 -17 -37 -2 0 6 7 8 16 5 14 -5 15 -4 4 9 -9
11 -17 12 -31 4 -13 -6 -19 -6 -19 1 0 5 7 10 15 10 8 0 15 5 15 11 0 5 -5 7
-12 3 -6 -4 -8 -3 -5 3 4 6 15 13 26 16 15 4 18 0 16 -20 -1 -14 2 -22 9 -20
6 3 10 10 9 16 -2 6 5 11 15 12 15 0 14 2 -3 10 -19 9 -19 9 1 5 12 -2 28 0
35 5 19 12 25 11 36 -3z m611 -18 c8 -14 12 -40 10 -57 -2 -18 0 -33 4 -33 4
0 8 -4 8 -10 0 -5 -6 -10 -14 -10 -9 0 -13 11 -12 33 1 30 -1 33 -21 29 -15
-3 -23 1 -23 9 -1 9 -4 8 -11 -4 -8 -14 -14 -16 -25 -6 -10 8 -14 8 -14 0 0
-6 6 -11 13 -11 8 0 7 -3 -3 -9 -20 -13 -29 -5 -23 20 4 14 11 19 25 16 15 -4
17 -2 9 7 -11 13 -5 26 11 26 5 0 6 -6 2 -12 -5 -9 -2 -8 9 1 15 12 19 12 32
-5 13 -18 14 -18 8 4 -3 12 -12 22 -19 22 -8 0 -14 5 -14 10 0 20 35 5 48 -20z
m187 20 c-3 -5 -11 -10 -16 -10 -6 0 -7 5 -4 10 3 6 11 10 16 10 6 0 7 -4 4
-10z m255 -1 c0 -14 -29 -17 -46 -4 -16 12 -15 13 14 12 18 -1 32 -5 32 -8z
m437 -19 c0 -16 -4 -30 -9 -30 -5 0 -6 -4 -3 -10 3 -5 8 -20 10 -32 4 -22 4
-22 -10 -4 -8 11 -15 16 -15 10 0 -5 -7 0 -15 10 -14 19 -15 18 -24 -5 -10
-24 -10 -24 -8 4 1 27 29 39 40 17 3 -6 4 -5 3 2 -3 10 23 68 29 68 1 0 2 -13
2 -30z m273 18 c0 -9 4 -8 10 2 9 13 10 13 10 0 0 -10 3 -11 8 -4 10 16 33 -9
23 -25 -6 -9 -11 -8 -20 2 -6 8 -21 13 -31 10 -14 -4 -20 0 -20 11 0 9 5 16
10 16 6 0 10 -6 10 -12z m89 -4 c-9 -11 -7 -15 5 -20 22 -8 20 -34 -1 -34 -14
0 -15 2 -4 9 9 6 10 11 2 15 -6 4 -15 4 -21 1 -6 -4 -7 1 -3 10 3 10 0 21 -7
25 -7 5 -2 8 14 8 21 0 24 -3 15 -14z m-2189 -10 c0 -8 -4 -12 -10 -9 -5 3
-10 1 -10 -6 0 -7 -3 -10 -6 -6 -9 9 3 37 16 37 5 0 10 -7 10 -16z m130 -4 c0
-4 12 -6 26 -4 20 2 24 -1 20 -13 -4 -9 -2 -21 4 -28 8 -9 6 -14 -5 -19 -9 -3
-13 -2 -10 3 3 5 1 12 -5 16 -6 4 -8 10 -6 13 2 4 -6 12 -19 18 -19 9 -22 9
-18 -2 3 -8 8 -14 12 -14 4 0 8 -7 8 -15 0 -11 -3 -12 -14 -3 -11 9 -16 9 -23
-1 -4 -8 -12 -11 -18 -7 -6 3 -13 0 -15 -6 -3 -7 -6 -2 -6 11 -1 19 3 22 19
18 11 -3 23 -1 26 4 3 5 1 9 -5 9 -5 0 -9 8 -8 19 1 12 7 17 19 13 10 -2 18
-8 18 -12z m350 6 c0 -8 -6 -16 -12 -19 -9 -3 -6 -11 9 -26 19 -18 21 -25 12
-51 -12 -33 -24 -42 -14 -10 3 11 3 25 -2 32 -4 7 -8 16 -9 21 -1 4 -2 10 -3
14 0 4 -7 -2 -15 -12 -16 -23 -12 -37 9 -28 8 3 15 0 15 -7 0 -6 -4 -9 -8 -6
-10 6 -9 -30 1 -40 4 -4 13 -1 22 6 8 7 15 10 15 7 0 -3 3 -12 6 -21 4 -11 0
-16 -12 -16 -27 1 -67 37 -61 54 3 8 1 16 -5 18 -7 3 -8 10 -1 23 6 11 16 32
24 48 13 29 29 36 29 13z m293 -11 c-3 -8 -12 -15 -21 -15 -13 0 -13 -2 1 -18
10 -10 17 -27 16 -38 -1 -15 -2 -14 -8 5 -4 17 -15 25 -35 27 -15 2 -25 0 -22
-3 3 -3 1 -12 -5 -20 -13 -15 -53 -18 -44 -3 8 13 -7 13 -42 -2 -18 -8 -28
-18 -25 -27 4 -12 3 -12 -10 0 -8 7 -13 22 -10 33 3 11 7 15 10 8 2 -6 8 -12
13 -12 14 0 11 38 -3 43 -7 2 -5 3 5 2 9 -2 17 3 17 12 0 8 5 11 10 8 6 -3 10
-15 10 -26 0 -14 7 -19 25 -19 14 0 24 5 23 12 -2 7 8 14 22 16 36 4 70 23 63
35 -3 6 -1 7 5 3 6 -4 9 -13 5 -21z m52 16 c3 -5 1 -13 -5 -16 -8 -5 -7 -12 2
-23 11 -13 10 -15 -4 -9 -10 3 -18 2 -18 -4 0 -6 -5 -7 -12 -3 -7 4 -8 3 -4
-5 4 -6 12 -8 18 -5 6 4 9 1 6 -7 -3 -8 -1 -22 3 -31 6 -10 5 -19 -1 -23 -5
-3 -10 2 -11 12 0 10 -3 13 -6 6 -10 -26 -19 -11 -18 30 1 28 6 41 15 39 8 -2
11 5 8 23 -5 25 14 36 27 16z m322 -8 c-13 -16 -13 -20 -1 -31 8 -8 22 -11 31
-8 8 4 21 2 28 -4 7 -6 25 -9 40 -6 18 3 25 1 22 -7 -2 -7 -14 -11 -25 -9 -16
2 -20 -1 -16 -12 4 -11 11 -13 22 -6 32 18 67 50 56 50 -7 0 -15 8 -19 18 -5
14 -4 15 6 5 18 -18 29 -16 22 5 -5 15 -4 15 8 -1 10 -13 23 -17 42 -13 15 3
25 1 22 -4 -3 -5 -1 -11 5 -15 6 -4 8 -11 5 -16 -4 -5 -1 -9 4 -9 6 0 11 -7
11 -15 0 -8 5 -15 10 -15 6 0 10 -5 10 -11 0 -8 -4 -8 -14 0 -10 9 -15 8 -20
-4 -3 -8 -1 -15 5 -15 6 0 8 -4 4 -9 -3 -5 -1 -12 5 -16 13 -8 13 -25 0 -25
-5 0 -9 3 -9 8 3 20 -2 25 -12 12 -9 -12 -10 -10 -6 8 4 17 2 21 -6 14 -8 -7
-16 -5 -25 4 -13 14 -6 19 24 15 7 -1 14 8 17 19 3 11 1 20 -5 20 -6 0 -8 7
-4 15 4 10 -1 15 -14 15 -11 0 -20 -5 -20 -11 0 -5 6 -7 13 -3 6 4 9 4 5 -1
-4 -4 -3 -14 2 -20 8 -9 5 -14 -8 -17 -14 -4 -17 1 -17 29 1 18 -1 33 -5 33
-14 0 -39 -26 -42 -45 -2 -11 -10 -19 -16 -17 -11 2 -15 -13 -10 -35 0 -5 9
-7 19 -5 14 2 17 -1 13 -13 -4 -9 -13 -14 -20 -11 -7 3 -16 1 -19 -4 -4 -6 0
-10 7 -10 7 -1 -3 -10 -22 -21 -23 -13 -28 -19 -13 -16 22 5 37 -12 25 -29
-10 -14 -66 -18 -57 -5 3 6 10 9 15 6 5 -3 11 -1 14 4 6 10 -23 26 -39 22 -5
-2 -6 1 -2 6 5 4 12 8 15 8 27 2 50 18 45 31 -3 8 1 14 8 14 10 0 10 3 2 11
-6 6 -9 18 -6 26 3 7 2 13 -3 11 -12 -4 -56 27 -49 34 3 3 -3 11 -12 19 -16
12 -17 12 -6 -1 13 -17 9 -27 -19 -48 -14 -11 -16 -11 -11 7 3 12 9 18 14 15
5 -3 9 0 9 5 0 10 -14 15 -33 12 -5 -1 -6 3 -3 8 4 5 2 12 -4 16 -5 3 -10 1
-10 -4 0 -6 -4 -11 -10 -11 -5 0 -7 8 -3 18 7 18 33 52 41 52 3 0 -2 -8 -11
-17z m888 -15 c-4 -16 -2 -19 7 -10 18 18 77 15 85 -3 7 -19 -5 -34 -15 -19
-12 18 -45 26 -53 12 -7 -11 -13 -10 -30 0 -19 12 -21 12 -16 -3 4 -9 3 -14
-2 -11 -5 3 -12 -1 -15 -10 -5 -12 -1 -14 17 -10 l22 6 -23 -12 c-19 -9 -25
-8 -38 8 -8 10 -13 13 -9 7 4 -9 -2 -11 -25 -7 -17 4 -30 3 -29 -2 4 -22 -2
-34 -16 -34 -8 0 -15 -5 -15 -11 0 -5 6 -7 13 -3 9 6 9 4 0 -6 -11 -12 -16
-11 -29 6 -13 16 -15 16 -10 2 3 -12 0 -18 -9 -18 -16 0 -10 26 11 47 10 10
13 10 17 0 3 -6 6 -3 6 8 1 17 3 17 11 5 8 -13 10 -12 11 5 1 11 1 24 0 29 -1
5 5 4 13 -4 9 -7 16 -10 16 -6 0 13 4 22 18 35 11 12 16 11 30 -3 10 -10 12
-16 4 -16 -7 0 -12 6 -12 13 0 8 -3 8 -9 -2 -7 -10 -4 -19 7 -27 14 -10 19 -8
33 14 11 19 13 29 5 34 -6 5 -2 8 11 8 17 0 21 -5 18 -22z m-606 5 c-3 -20 2
-34 11 -28 6 3 10 -2 10 -12 0 -15 -4 -14 -24 7 -23 24 -25 40 -5 40 5 0 8 -3
8 -7z m61 -13 c0 -5 -4 -10 -9 -10 -6 0 -13 5 -16 10 -3 6 1 10 9 10 9 0 16
-4 16 -10z m-260 -10 c0 -5 -4 -10 -10 -10 -5 0 -10 5 -10 10 0 6 5 10 10 10
6 0 10 -4 10 -10z m-930 -35 c0 -5 -5 -3 -10 5 -5 8 -10 20 -10 25 0 6 5 3 10
-5 5 -8 10 -19 10 -25z m256 -7 c-5 -23 -1 -34 17 -48 12 -10 19 -22 14 -26
-13 -14 -49 36 -44 62 2 13 0 24 -4 24 -5 0 -9 7 -9 15 0 9 6 12 16 8 12 -4
14 -14 10 -35z m494 27 c6 -8 9 -19 5 -25 -4 -6 4 -10 19 -10 31 0 36 -29 6
-37 -11 -3 -20 -14 -20 -25 0 -10 -4 -16 -10 -13 -5 3 -18 1 -27 -4 -18 -10
-12 -13 22 -13 30 0 36 2 30 12 -3 6 -1 10 4 10 6 0 11 6 11 14 0 21 20 30 33
17 8 -8 6 -11 -7 -11 -9 0 -14 -4 -11 -10 3 -5 2 -10 -3 -10 -5 0 -9 -8 -9
-17 0 -14 3 -13 15 5 18 27 32 29 25 2 -3 -10 -8 -19 -12 -18 -12 2 -41 -14
-36 -21 2 -4 -9 -5 -26 -3 -24 4 -29 1 -29 -17 0 -12 -4 -19 -10 -16 -7 4 -7
12 0 25 6 11 6 21 1 25 -5 3 -11 -4 -13 -16 -2 -15 -12 -23 -27 -26 -14 -2
-27 -6 -30 -10 -3 -3 5 -3 18 0 16 4 21 3 14 -4 -6 -6 -20 -11 -32 -12 -11 -1
-21 -5 -21 -10 0 -5 6 -7 14 -4 14 6 32 -21 21 -31 -3 -3 -5 0 -5 6 0 6 -6 9
-14 6 -17 -7 -30 25 -16 41 8 9 8 15 0 20 -16 10 -29 -3 -23 -25 3 -11 1 -20
-4 -20 -18 0 -42 35 -40 57 1 21 2 21 19 6 11 -10 18 -12 18 -5 0 7 5 11 12
10 6 -2 18 10 26 25 12 24 16 26 30 15 15 -11 15 -11 4 3 -10 13 -10 19 3 29
11 9 12 17 4 32 -6 11 -8 22 -5 26 3 3 6 0 6 -6 0 -8 7 -9 25 -2 27 10 28 9
19 -14 -3 -8 -12 -12 -20 -9 -10 4 -12 0 -8 -11 3 -9 1 -16 -6 -16 -6 0 -10
-10 -8 -22 2 -16 -2 -23 -13 -22 -19 2 -43 -32 -29 -41 6 -3 10 -1 10 5 0 6 5
8 12 4 7 -4 8 -3 4 4 -4 7 -2 12 3 12 6 0 11 -4 11 -10 0 -5 5 -10 10 -10 6 0
9 3 8 8 -1 4 2 22 6 40 6 27 11 32 28 26 17 -5 18 -3 9 15 -8 15 -9 27 -1 40
12 24 13 34 1 27 -5 -3 -11 1 -15 9 -7 19 8 19 24 0z m451 -8 c-5 -5 -17 -5
-28 2 -16 9 -15 10 9 9 16 -2 24 -6 19 -11z m237 -14 c-3 -17 -38 -27 -38 -12
0 6 -4 8 -8 5 -4 -2 -14 -1 -21 3 -9 6 -7 10 8 14 12 3 21 2 21 -2 0 -4 6 -8
14 -8 8 0 12 6 8 15 -4 10 -1 13 7 8 7 -4 11 -15 9 -23z m362 17 c0 -5 -7 -10
-15 -10 -8 0 -15 5 -15 10 0 6 7 10 15 10 8 0 15 -4 15 -10z m-1181 -16 c7 5
11 -4 11 -23 0 -21 -5 -31 -15 -31 -10 0 -15 10 -15 27 0 19 -3 24 -11 16 -8
-8 -5 -23 10 -54 12 -24 19 -34 17 -23 -3 17 1 20 15 17 15 -4 16 -8 6 -24 -6
-10 -18 -21 -25 -24 -7 -2 -10 0 -7 5 3 6 1 10 -4 10 -6 0 -11 -6 -12 -12 0
-7 -5 -2 -10 11 -5 13 -7 26 -4 29 3 3 5 0 5 -6 0 -7 5 -12 11 -12 8 0 8 5 -1
15 -7 8 -16 12 -21 9 -5 -3 -9 0 -9 7 0 7 -7 4 -15 -7 -8 -10 -15 -14 -14 -9
1 6 0 12 -1 15 -10 26 -6 40 11 40 11 0 27 9 36 20 11 13 19 16 24 9 4 -7 12
-8 18 -5z m199 1 c3 -3 7 -12 8 -20 2 -10 -6 -8 -27 7 -16 12 -29 23 -29 24 0
5 42 -5 48 -11z m935 -2 c-4 -10 -15 -26 -26 -35 -22 -20 -31 -23 -22 -8 3 6
2 10 -4 10 -14 0 -41 -41 -41 -62 0 -10 -4 -18 -9 -18 -5 0 -8 11 -8 25 0 13
3 22 8 19 5 -3 9 -1 9 5 0 5 -9 9 -20 8 -15 -1 -18 -7 -16 -30 3 -21 0 -27
-11 -23 -8 3 -17 -3 -22 -16 -7 -19 -8 -19 -14 -4 -9 22 -1 36 20 36 9 0 13 3
10 7 -4 3 0 17 8 30 9 13 13 23 9 23 -4 0 -1 6 5 14 11 14 51 11 51 -3 0 -17
46 -3 55 17 12 26 27 30 18 5z m-1303 -3 c0 -5 -7 -10 -15 -10 -8 0 -15 -9
-15 -20 0 -13 -5 -18 -15 -14 -8 4 -15 10 -15 16 0 5 5 6 12 2 7 -5 9 -2 5 8
-3 9 -3 19 0 22 10 10 43 7 43 -4z m-85 -24 c8 4 15 1 15 -6 0 -6 -4 -9 -8 -6
-4 2 -14 1 -22 -5 -11 -6 -12 -9 -2 -9 9 0 11 -7 7 -20 -7 -21 1 -25 24 -11 7
5 10 14 7 20 -10 15 17 14 32 -1 7 -7 12 -23 12 -36 0 -13 4 -20 10 -17 6 3
10 -1 10 -9 0 -21 -9 -20 -28 4 -21 26 -97 36 -106 15 -9 -23 -35 -19 -29 5 3
10 8 19 12 18 3 -1 17 4 31 10 14 6 20 11 14 11 -6 1 -11 15 -11 32 0 22 3 26
9 15 5 -8 15 -13 23 -10z m805 14 c0 -5 -4 -10 -10 -10 -5 0 -10 5 -10 10 0 6
5 10 10 10 6 0 10 -4 10 -10z m113 1 c5 -1 5 -6 1 -12 -4 -8 -9 -7 -15 2 -7
11 -9 11 -9 1 0 -9 -8 -10 -27 -6 -15 4 -33 7 -40 7 -7 0 -10 3 -8 6 3 5 56 6
98 2z m45 -11 c3 -7 0 -10 -7 -6 -16 10 -14 -3 4 -20 17 -18 20 -34 5 -34 -6
0 -6 -9 0 -25 7 -18 6 -24 -3 -22 -7 1 -11 -4 -9 -11 1 -8 -7 -7 -25 5 -15 10
-29 17 -32 15 -3 -2 -7 2 -9 8 -3 9 1 9 17 0 29 -15 52 2 44 33 -15 62 -15 79
-2 75 7 -2 15 -10 17 -18z m-1008 -18 c-6 -2 -8 -8 -5 -12 3 -5 1 -11 -5 -15
-6 -3 -10 4 -10 18 0 29 11 42 21 25 5 -7 4 -15 -1 -16z m1052 11 c13 -12 18
-13 18 -3 0 7 2 11 5 8 3 -3 3 -13 -1 -22 -6 -15 -7 -15 -21 1 -14 17 -14 17
-9 -2 6 -20 6 -20 -9 -1 -27 36 -16 49 17 19z m-899 -19 c21 -28 18 -38 -7
-28 -14 5 -15 9 -4 16 9 7 7 8 -9 5 -18 -4 -23 -1 -23 14 0 27 22 23 43 -7z
m969 15 c2 -2 1 -3 -1 -1 -3 1 -13 -10 -23 -25 l-18 -28 4 25 c3 14 5 28 5 32
1 7 29 5 33 -3z m46 -7 c6 -18 -15 -14 -22 4 -4 10 -1 14 6 12 6 -2 14 -10 16
-16z m31 -13 c-11 -21 -6 -23 45 -20 25 1 27 -1 16 -14 -9 -11 -16 -12 -25 -5
-10 8 -16 7 -21 -2 -12 -19 -13 -37 -3 -44 15 -9 10 -24 -7 -24 -13 0 -15 -7
-10 -30 3 -19 2 -29 -4 -25 -6 3 -10 2 -10 -4 0 -20 19 -21 29 -2 8 14 8 21
-2 25 -6 3 -1 3 13 0 l25 -5 -25 15 c-35 21 -8 20 29 -1 31 -18 40 -33 21 -33
-5 0 -10 5 -10 10 0 7 -7 7 -21 0 -11 -7 -18 -14 -15 -18 4 -3 -7 -11 -24 -18
-22 -10 -30 -20 -30 -39 l0 -26 -22 21 c-19 17 -24 18 -26 6 -2 -8 -10 -12
-18 -9 -7 3 -11 10 -7 16 4 7 -2 8 -18 3 -45 -13 -54 -13 -67 3 -11 15 -12 15
-7 0 4 -10 -6 -25 -29 -42 -41 -32 -65 -35 -63 -8 1 12 7 17 19 13 10 -2 15
-9 11 -15 -4 -6 -1 -7 7 -2 10 6 9 11 -6 22 -16 12 -15 13 14 7 28 -6 32 -4
32 14 0 29 18 37 38 18 12 -10 22 -12 32 -6 15 9 13 11 -12 14 -6 0 -13 7 -16
14 -3 11 0 12 17 3 11 -7 21 -8 21 -4 0 4 4 2 9 -6 5 -7 20 -13 35 -13 14 0
26 -4 26 -9 0 -5 5 -9 10 -9 6 0 10 7 10 15 0 9 -10 15 -26 15 -17 0 -24 4
-21 13 3 7 -2 22 -10 32 -15 19 -15 19 -11 -7 3 -15 1 -25 -3 -22 -5 3 -9 11
-9 19 0 8 -5 17 -12 21 -8 5 -9 2 -5 -9 3 -9 2 -19 -3 -22 -6 -4 -10 -1 -10 5
0 6 -4 8 -10 5 -5 -3 -10 0 -10 7 0 10 -2 10 -8 1 -5 -8 -13 -9 -22 -3 -12 8
-11 10 5 11 11 1 26 1 32 0 19 -3 4 27 -15 32 -13 4 -11 5 4 6 12 0 27 8 34
16 7 9 15 13 18 10 3 -3 12 1 20 8 13 10 14 9 7 -3 -14 -22 -17 -52 -5 -45 13
8 42 -14 34 -26 -3 -5 6 -8 20 -7 27 2 37 18 12 18 -8 0 -18 5 -22 12 -5 8 -2
9 11 5 14 -6 16 -3 12 12 -3 15 0 17 16 13 15 -4 18 -2 11 9 -16 26 -15 49 4
50 12 0 11 3 -7 10 -19 7 -21 12 -11 24 6 8 9 19 5 24 -3 7 0 8 9 5 12 -5 13
-11 5 -25z m-623 6 c-3 -8 0 -14 6 -12 6 1 12 -3 15 -9 2 -6 -6 -10 -19 -9
-13 1 -21 6 -19 11 2 5 6 15 8 22 3 6 7 12 10 12 3 0 3 -7 -1 -15z m134 5 c0
-5 -2 -10 -4 -10 -3 0 -8 5 -11 10 -3 6 -1 10 4 10 6 0 11 -4 11 -10z m228
-10 c3 -7 8 -7 18 1 8 6 14 10 15 8 10 -48 9 -57 -10 -52 -11 3 -19 10 -18 17
1 7 -11 10 -33 8 -26 -2 -31 0 -20 7 10 7 11 11 3 11 -7 0 -13 5 -13 10 0 13
54 4 58 -10z m-1022 -5 c9 -8 11 -15 6 -15 -5 0 -15 7 -22 15 -7 8 -9 15 -6
15 4 0 14 -7 22 -15z m624 -5 c0 -5 -4 -10 -10 -10 -5 0 -10 5 -10 10 0 6 5
10 10 10 6 0 10 -4 10 -10z m-699 -39 c12 -7 18 -8 14 -2 -4 7 3 11 17 10 13
0 18 -3 11 -5 -7 -3 -10 -11 -7 -17 3 -8 -7 -12 -25 -12 -21 0 -27 3 -20 11 6
8 4 14 -6 18 -8 3 -14 13 -14 23 1 14 2 14 5 3 3 -9 14 -21 25 -29z m362 17
c4 -12 1 -29 -6 -37 -10 -12 -9 -12 10 -1 12 8 21 16 21 19 0 4 0 13 1 21 1
12 4 11 12 -3 8 -14 6 -22 -12 -38 -12 -10 -17 -19 -11 -19 7 0 12 -8 12 -19
0 -18 47 -58 63 -53 4 1 7 -2 7 -8 0 -5 6 -10 13 -10 7 0 13 -15 14 -36 2 -35
1 -35 -18 -18 -12 11 -17 24 -13 36 4 14 1 16 -12 11 -12 -4 -15 -3 -10 5 4 7
2 12 -3 12 -6 0 -11 -4 -11 -10 0 -5 -7 -7 -16 -3 -10 3 -14 13 -10 25 4 16 1
19 -15 15 -10 -3 -17 -1 -13 4 3 5 -8 9 -25 9 -37 0 -48 15 -22 29 15 9 21 8
24 -4 3 -11 4 -10 3 2 -1 11 -8 17 -20 15 -15 -3 -16 0 -5 20 7 13 12 25 12
28 -1 11 10 30 17 30 4 0 10 -10 13 -22z m414 0 c-3 -8 -6 -5 -6 6 -1 11 2 17
5 13 3 -3 4 -12 1 -19z m-54 -17 c3 -11 -1 -25 -9 -32 -10 -8 -14 -8 -14 0 0
6 6 11 13 11 6 1 2 9 -11 19 -15 13 -18 21 -10 24 18 6 25 1 31 -22z m277 25
c0 -11 -19 -15 -25 -6 -3 5 1 10 9 10 9 0 16 -2 16 -4z m335 -6 c3 -6 -5 -10
-19 -10 -14 0 -28 -5 -32 -12 -5 -8 -2 -9 11 -5 17 7 17 6 0 -19 l-17 -27 25
19 c14 11 22 23 19 28 -3 5 0 6 7 2 9 -6 8 -13 -5 -27 -9 -10 -13 -19 -8 -19
5 0 2 -4 -6 -10 -20 -12 -44 8 -30 25 7 8 7 15 1 19 -5 3 -7 14 -4 24 5 19 48
28 58 12z m-1240 -22 c-6 -23 -6 -23 10 -3 16 19 16 19 11 -8 -4 -24 -2 -27
15 -22 31 10 58 -3 52 -25 -3 -11 -10 -20 -15 -20 -5 0 -6 10 -3 23 4 15 4 18
-3 8 -5 -7 -15 -10 -21 -7 -17 11 -9 -17 9 -31 8 -6 17 -10 20 -8 3 2 7 -5 7
-16 1 -11 -1 -17 -5 -15 -4 2 -18 -2 -32 -10 -14 -7 -19 -13 -11 -14 8 0 12
-2 9 -5 -3 -3 -12 -3 -21 1 -12 4 -14 11 -8 22 10 20 3 45 -10 36 -5 -3 -9 4
-9 15 0 12 -4 21 -10 21 -5 0 -14 10 -21 21 -9 18 -8 24 5 31 9 5 14 13 11 19
-4 5 1 9 10 9 12 0 15 -6 10 -22z m218 7 c4 -8 2 -17 -3 -20 -6 -4 -10 -4 -10
-1 0 2 -3 11 -6 20 -3 9 -2 16 4 16 5 0 12 -7 15 -15z m591 -16 c-4 -6 -12 -5
-22 3 -12 10 -14 10 -8 1 5 -9 0 -13 -13 -13 -20 0 -20 1 -3 18 12 14 22 16
35 10 10 -5 15 -13 11 -19z m621 21 c3 -5 1 -10 -4 -10 -6 0 -11 5 -11 10 0 6
2 10 4 10 3 0 8 -4 11 -10z m-275 -10 c0 -5 -7 -7 -15 -4 -10 4 -15 0 -15 -14
0 -11 -7 -23 -16 -26 -24 -9 -28 -7 -14 9 7 8 9 15 5 15 -4 0 -2 7 5 15 14 17
50 20 50 5z m-1065 -10 c3 -5 1 -10 -4 -10 -6 0 -11 5 -11 10 0 6 2 10 4 10 3
0 8 -4 11 -10z m757 -24 c-3 -5 2 -7 11 -3 21 8 21 3 1 -18 -26 -26 -4 -39 42
-26 51 14 54 14 54 -4 0 -8 5 -14 12 -12 6 1 14 -6 16 -15 2 -12 -3 -18 -13
-18 -11 0 -15 -5 -11 -16 4 -10 2 -13 -6 -8 -8 5 -9 0 -5 -15 4 -16 1 -21 -11
-19 -14 2 -17 -5 -17 -40 0 -34 -3 -42 -19 -42 -16 0 -17 2 -5 17 12 15 12 16
-1 8 -10 -6 -9 -2 3 12 15 17 15 21 4 26 -8 3 -25 -4 -37 -15 -26 -25 -34 -19
-21 16 12 29 -2 36 -18 9 -9 -16 -10 -16 -11 5 0 12 -6 22 -12 22 -9 0 -8 4 2
10 13 9 13 11 1 19 -10 7 -19 4 -29 -7 -7 -9 -11 -11 -7 -4 4 7 -1 12 -12 12
-15 1 -14 3 5 13 12 7 20 16 16 20 -3 3 5 9 19 13 30 7 42 34 33 70 -6 22 -5
24 8 12 7 -7 11 -17 8 -22z m81 27 c-7 -2 -19 -2 -25 0 -7 3 -2 5 12 5 14 0
19 -2 13 -5z m-769 -28 c20 -30 20 -39 1 -31 -9 3 -15 -1 -15 -11 0 -13 -2
-14 -17 -2 -9 8 -14 9 -11 4 4 -6 -1 -16 -11 -22 -14 -9 -18 -8 -18 3 0 8 4
14 9 14 5 0 7 4 4 9 -3 5 5 12 19 15 27 7 34 26 9 26 -9 0 -12 -5 -8 -12 4 -7
3 -8 -4 -4 -19 11 -14 36 7 36 10 0 26 -11 35 -25z m811 15 c-8 13 -7 13 8 1
9 -7 17 -18 17 -24 0 -6 -3 -7 -7 -4 -3 4 -12 2 -19 -4 -9 -8 -15 -5 -23 9
-13 24 -3 36 17 19 13 -10 14 -9 7 3z m431 -11 c6 -10 -2 -11 -33 -3 -13 4
-23 10 -23 14 0 10 49 0 56 -11z m-808 -23 c10 14 34 12 39 -3 6 -18 -25 -27
-42 -13 -8 7 -15 9 -15 4 0 -4 -6 1 -14 12 -11 14 -11 21 -3 26 7 4 15 -2 20
-15 5 -12 11 -17 15 -11z m185 8 c-3 -9 0 -20 8 -25 11 -7 9 -8 -6 -6 -11 1
-25 6 -32 10 -6 4 -14 1 -16 -5 -3 -8 -6 -5 -6 6 -1 12 4 16 14 13 8 -4 17 -2
20 3 3 4 -1 11 -7 13 -7 3 -3 6 9 6 17 1 21 -3 16 -15z m42 7 c3 -5 2 -12 -3
-15 -5 -3 -9 1 -9 9 0 17 3 19 12 6z m98 -11 c-3 -12 -8 -19 -11 -16 -5 6 5
36 12 36 2 0 2 -9 -1 -20z m111 -5 c-4 -8 -11 -15 -16 -15 -6 0 -5 6 2 15 7 8
14 15 16 15 2 0 1 -7 -2 -15z m-474 -16 c0 -16 -4 -20 -17 -15 -15 5 -14 3 2
-10 13 -11 14 -15 4 -11 -8 3 -26 -3 -38 -13 -21 -15 -22 -19 -8 -31 13 -12
13 -15 -7 -26 -21 -11 -21 -11 7 -18 15 -4 27 -11 27 -16 0 -5 5 -9 11 -9 5 0
7 5 3 12 -4 6 -3 8 4 4 17 -10 24 11 8 27 -9 9 -11 19 -5 28 7 11 9 11 9 -3 0
-10 4 -18 8 -18 15 0 10 -34 -10 -62 -21 -30 -12 -42 27 -32 14 3 25 2 25 -3
0 -5 -9 -9 -21 -10 -11 -1 -36 -14 -55 -28 -20 -15 -42 -24 -50 -21 -24 9 -11
31 22 34 16 2 34 8 39 14 7 6 3 9 -11 6 -11 -1 -29 4 -39 12 -15 12 -17 12
-10 1 6 -11 3 -13 -18 -7 -20 4 -29 1 -40 -15 l-15 -20 -21 22 c-11 12 -24 19
-28 16 -3 -4 -1 -7 5 -7 7 0 12 -4 12 -10 0 -5 -7 -10 -16 -10 -11 0 -15 6
-11 20 3 11 1 23 -4 26 -5 3 -9 0 -9 -6 0 -7 -7 -9 -17 -6 -14 6 -13 2 4 -16
12 -13 21 -27 21 -33 -1 -5 7 -11 18 -12 18 -3 18 -2 -1 6 -17 8 -16 10 12 10
17 1 35 -3 38 -9 3 -5 0 -10 -7 -10 -7 0 -5 -5 6 -12 14 -8 24 -8 38 1 14 9
18 8 18 -4 0 -9 -12 -20 -26 -25 -25 -10 -54 -33 -54 -44 0 -2 9 -4 19 -3 11
0 19 4 19 7 -1 17 3 30 10 30 5 0 7 -13 4 -30 -4 -25 -8 -29 -27 -24 -30 7
-42 -22 -15 -38 11 -7 20 -16 20 -21 0 -4 -4 -5 -10 -2 -5 3 -10 2 -10 -3 0
-15 37 -21 49 -9 8 8 11 8 11 -1 0 -7 -5 -12 -11 -12 -8 0 -7 -6 2 -17 10 -11
10 -14 2 -9 -7 4 -13 3 -13 -3 0 -5 6 -12 13 -14 7 -3 5 -6 -5 -6 -21 -1 -23
-12 -6 -29 10 -10 10 -15 -2 -23 -13 -9 -12 -10 2 -5 10 3 20 1 23 -4 4 -6 -3
-10 -15 -10 -13 0 -19 -4 -14 -12 5 -7 3 -8 -5 -3 -7 4 -10 16 -7 28 3 11 0
29 -6 40 -7 14 -7 22 2 27 7 4 9 13 5 20 -6 9 -4 11 6 5 8 -5 10 -4 6 0 -4 5
-14 10 -23 11 -13 2 -13 0 -2 -13 11 -14 11 -15 -2 -11 -8 3 -14 13 -14 22 1
9 -5 16 -13 16 -8 0 -11 -5 -7 -12 4 -7 3 -8 -4 -4 -14 9 -15 5 -3 -27 6 -14
6 -29 0 -38 -7 -11 -9 -10 -10 6 -1 13 -4 10 -8 -10 -10 -41 -3 -55 26 -55 13
0 22 4 18 10 -3 5 -12 7 -20 3 -8 -3 -15 0 -15 7 0 6 5 8 10 5 6 -3 10 -1 10
5 0 6 4 9 9 6 5 -4 11 0 14 6 3 7 5 -2 4 -19 0 -20 -5 -33 -13 -33 -7 0 -15
-3 -18 -8 -2 -4 11 -7 29 -6 31 2 33 0 22 -17 -13 -21 -23 -24 -32 -9 -4 6
-11 8 -16 5 -5 -4 -13 5 -18 19 -8 19 -15 23 -32 19 -15 -4 -20 -3 -15 5 4 7
5 12 2 12 -2 0 -12 3 -22 7 -13 5 -15 3 -9 -8 7 -12 6 -12 -6 0 -12 11 -12 14
0 18 10 4 10 7 1 13 -6 4 -13 19 -14 33 -2 15 0 25 3 23 3 -2 11 2 18 9 10 11
10 15 0 18 -8 4 -7 6 3 6 8 0 23 -6 33 -13 16 -12 16 -14 2 -20 -11 -4 -14 -2
-9 6 4 7 3 8 -4 4 -16 -10 -11 -51 9 -77 l16 -22 -1 24 c-1 13 -5 29 -9 36 -5
7 1 17 14 24 l22 11 -20 17 c-14 10 -20 25 -18 41 1 14 3 31 4 38 2 17 18 15
25 -4 4 -9 0 -27 -8 -39 -14 -21 -14 -23 2 -21 13 2 17 13 17 41 0 22 5 40 13
43 6 2 9 8 6 13 -3 6 0 16 6 24 7 8 10 15 6 15 -3 0 -9 0 -13 0 -4 0 -8 -7 -9
-16 -3 -20 -14 -32 -14 -15 0 7 -7 19 -16 28 -10 10 -14 29 -12 52 3 33 0 37
-29 46 -18 5 -33 13 -33 19 0 5 -7 17 -16 27 -15 17 -14 18 16 17 25 -1 31 -5
27 -19 -4 -15 -2 -17 13 -9 9 5 20 6 24 3 3 -3 6 -1 6 6 0 7 -6 11 -14 8 -8
-3 -17 1 -20 10 -5 11 -2 13 11 8 10 -4 23 -8 29 -8 6 0 11 -7 10 -16 -1 -11
8 -16 29 -16 17 0 33 -4 36 -9 12 -15 27 3 22 27 -4 18 -3 19 6 7 7 -9 11 -10
11 -3 0 6 -5 15 -12 19 -7 5 -4 10 11 16 19 7 21 11 11 23 -7 8 -18 15 -24 14
-7 0 -6 -2 2 -6 17 -7 15 -23 -3 -23 -8 0 -15 4 -15 10 0 5 -8 7 -17 4 -10 -3
-5 2 11 11 16 10 24 20 19 24 -5 3 -13 15 -16 26 -7 19 -6 19 7 2 12 -15 15
-15 26 -2 9 10 9 15 1 15 -6 0 -11 5 -11 10 0 7 6 7 20 0 15 -8 20 -8 20 2 1
7 7 2 14 -11 8 -14 16 -19 20 -13 3 6 2 13 -4 17 -16 10 -1 25 17 18 11 -4 14
-3 9 5 -4 7 -2 12 3 12 6 0 11 -9 11 -21z m-365 1 c-3 -5 -1 -10 4 -10 6 0 11
-4 11 -10 0 -5 -9 -10 -19 -10 -22 0 -36 -26 -18 -33 9 -3 9 -8 0 -18 -9 -9
-10 -16 -2 -26 8 -9 8 -13 0 -13 -6 0 -11 -5 -11 -11 0 -5 5 -7 10 -4 6 3 10
2 10 -4 0 -5 -9 -9 -20 -8 -23 1 -23 2 -10 28 7 13 7 19 0 19 -5 0 -10 5 -10
11 0 5 4 8 9 5 5 -3 9 4 8 17 -1 32 6 50 23 64 18 15 23 16 15 3z m872 -7 c0
-7 -5 -12 -11 -10 -15 5 -18 24 -3 24 8 0 14 -6 14 -14z m-1116 -13 c5 0 9 -6
9 -14 0 -8 -8 -13 -17 -11 -10 2 -21 4 -24 4 -3 1 -6 8 -6 16 0 10 6 14 14 10
8 -3 19 -5 24 -5z m1077 -37 c-11 -14 -28 -8 -28 8 0 6 5 7 12 3 7 -5 9 -2 5
8 -3 9 -3 19 1 23 11 11 20 -29 10 -42z m-775 30 c-7 -2 -9 -11 -6 -19 3 -8
-1 -14 -11 -14 -26 0 -20 36 7 37 12 0 17 -1 10 -4z m361 -8 c3 -9 0 -15 -9
-15 -8 0 -15 7 -15 15 0 8 4 15 9 15 5 0 11 -7 15 -15z m40 6 c3 -5 15 -7 26
-4 12 3 20 0 20 -7 0 -7 -7 -10 -15 -6 -8 3 -14 0 -12 -7 1 -7 9 -15 16 -18
11 -4 9 -7 -7 -11 -12 -3 -21 -3 -20 1 3 24 -4 41 -17 41 -8 0 -15 5 -15 10 0
12 17 13 24 1z m81 0 l-20 -8 20 -5 c18 -5 18 -6 -2 -7 -14 -1 -23 5 -23 14 0
9 9 15 23 14 21 0 21 -1 2 -8z m-590 -9 c-6 -4 -10 -14 -10 -22 0 -8 -7 -15
-15 -15 -8 0 -18 -4 -22 -10 -4 -5 -10 -6 -13 -3 -11 11 27 54 49 56 12 0 16
-2 11 -6z m69 -17 c3 -9 0 -15 -9 -15 -8 0 -15 7 -15 15 0 8 4 15 9 15 5 0 11
-7 15 -15z m86 -51 c0 -2 -9 -4 -20 -4 -11 0 -20 7 -20 15 0 8 5 15 11 15 5 0
7 5 3 11 -4 8 -9 7 -15 -2 -15 -23 -10 -39 14 -49 20 -9 19 -9 -8 -7 -37 3
-74 -29 -55 -46 10 -9 11 -9 6 0 -4 7 1 11 13 10 11 -1 17 -6 14 -14 -3 -8
-15 -13 -26 -11 -14 2 -23 -3 -25 -16 -3 -13 0 -16 10 -10 7 5 19 9 27 11 8 1
18 8 23 15 8 10 9 10 5 -2 -2 -8 2 -20 9 -27 15 -15 28 -17 19 -3 -3 6 1 10 9
10 20 0 21 -19 1 -26 -8 -4 -12 -10 -9 -15 3 -5 0 -9 -6 -9 -6 0 -9 -4 -5 -9
3 -5 0 -13 -6 -17 -7 -4 -9 -3 -5 4 3 6 2 13 -4 17 -6 4 -7 11 -4 17 5 7 2 8
-5 4 -8 -5 -11 -2 -9 9 2 11 -4 19 -14 20 -19 3 -24 -10 -8 -20 6 -4 8 -11 4
-16 -3 -5 -10 -6 -16 -3 -7 4 -8 2 -4 -4 4 -6 13 -9 20 -6 8 3 16 2 19 -3 3
-4 -8 -9 -23 -10 -25 -2 -28 1 -24 23 3 18 1 23 -7 18 -7 -4 -9 -3 -5 4 3 6 2
13 -3 17 -6 3 -7 13 -4 22 5 13 2 15 -14 11 -11 -3 -27 -1 -36 4 -13 7 -16 3
-14 -19 1 -16 9 -33 17 -40 8 -7 10 -13 5 -13 -6 0 -16 5 -23 12 -9 9 -12 8
-14 -8 -3 -46 -1 -59 9 -57 6 1 17 -4 23 -12 7 -8 20 -15 29 -15 14 0 14 2 1
11 -13 8 -13 9 2 7 9 -2 16 2 15 7 -1 6 -6 9 -10 7 -5 -1 -6 2 -3 7 4 5 2 12
-4 16 -5 3 -10 1 -10 -5 0 -6 -4 -8 -10 -5 -16 10 -12 25 6 25 10 0 14 5 10
16 -3 9 -2 12 5 9 6 -4 8 -13 5 -20 -3 -8 9 -20 27 -29 18 -8 27 -16 20 -16
-14 0 -6 -30 11 -43 7 -5 5 -12 -6 -21 -10 -7 -14 -16 -10 -20 4 -5 0 -7 -8
-6 -8 1 -22 2 -30 1 -13 -1 -13 -3 0 -11 9 -6 23 -3 41 7 23 14 30 14 44 3 14
-12 13 -14 -6 -28 -17 -12 -26 -13 -40 -3 -16 9 -19 8 -20 -6 -1 -10 -1 -21 0
-25 0 -4 -10 -3 -23 2 -13 5 -27 6 -32 2 -4 -4 -4 -2 0 5 4 7 13 10 20 7 22
-9 25 22 4 35 -18 11 -20 11 -15 -4 6 -13 3 -15 -13 -10 -18 6 -20 3 -16 -19
4 -25 4 -25 -20 -10 -22 15 -24 15 -18 0 4 -11 1 -16 -10 -16 -18 0 -20 8 -7
29 5 8 16 11 25 8 9 -4 16 -2 16 3 0 5 -8 11 -17 14 -15 4 -15 5 2 4 46 -1 49
1 29 23 -17 20 -18 22 -2 32 14 10 13 13 -9 30 -20 16 -27 17 -36 7 -8 -9 -8
-11 -1 -7 7 4 17 1 23 -7 16 -19 -9 -28 -27 -9 -16 15 -9 43 10 43 9 0 9 3 -2
10 -13 9 -13 12 3 24 10 8 14 17 9 20 -5 3 -8 19 -7 36 1 16 -2 30 -6 30 -4 0
-6 9 -4 20 2 11 0 20 -4 20 -11 0 -22 -43 -13 -50 12 -8 12 -80 0 -80 -5 0 -8
7 -4 15 3 8 1 15 -4 15 -6 0 -10 -4 -10 -9 0 -5 -12 -8 -27 -8 -16 0 -22 2
-16 4 8 3 11 14 7 29 -7 26 -5 27 20 18 9 -3 13 -11 9 -18 -4 -6 0 -5 9 2 15
12 15 15 0 32 -11 14 -19 16 -28 9 -7 -6 -21 -9 -31 -6 -14 4 -14 5 4 6 12 0
25 6 28 11 4 7 -2 9 -19 4 -17 -4 -26 -2 -26 6 0 7 7 10 16 6 9 -4 14 -1 12 6
-2 6 -12 12 -21 14 -9 1 -15 -2 -12 -6 3 -5 -1 -15 -9 -22 -11 -11 -10 -15 7
-30 11 -10 15 -18 9 -18 -7 0 -15 0 -19 0 -5 0 -8 3 -8 8 0 4 -4 13 -9 21 -5
8 -4 16 4 21 7 4 9 13 6 19 -4 6 -4 11 1 12 4 0 18 2 31 5 12 2 22 0 22 -5 0
-5 12 -16 26 -26 25 -16 25 -16 15 3 -9 16 -7 19 6 18 12 -1 19 9 23 29 l7 30
10 -35 c7 -24 6 -37 -1 -42 -6 -4 -9 -8 -6 -8 3 -1 21 -3 40 -5 19 -3 46 -7
59 -9 23 -5 23 -4 18 39 -7 49 3 57 35 28 18 -16 18 -16 12 0 -4 11 2 24 17
36 l24 19 12 -30 c7 -17 13 -32 13 -34z m242 49 c-6 -2 -10 -9 -6 -14 3 -5 0
-9 -5 -9 -12 0 -14 13 -4 23 3 4 11 7 17 6 6 0 5 -3 -2 -6z m48 -14 c0 -5 -4
-9 -8 -9 -5 0 -9 7 -9 15 0 8 4 12 9 9 4 -3 8 -9 8 -15z m60 5 c0 -7 -4 -16
-10 -19 -5 -3 -10 -1 -10 5 0 6 -4 8 -10 5 -14 -9 -12 -48 3 -65 10 -12 9 -12
-4 -2 -9 6 -18 10 -21 7 -8 -8 4 60 13 71 12 15 39 13 39 -2z m-324 -21 c13
-17 14 -17 7 1 -4 13 -3 17 5 12 7 -4 12 -14 12 -22 0 -8 5 -14 11 -14 5 0 7
-4 4 -10 -3 -5 -11 -10 -16 -10 -6 0 -7 5 -4 10 4 7 -2 9 -17 5 -20 -5 -23 -2
-23 20 0 30 3 31 21 8z m-198 -35 c1 -25 -2 -27 -19 -18 -28 16 -25 47 5 47 8
0 13 -12 14 -29z m912 17 c7 -9 8 -15 2 -15 -5 0 -12 7 -16 15 -3 8 -4 15 -2
15 2 0 9 -7 16 -15z m-260 -6 c0 8 2 12 5 9 8 -7 -5 -38 -16 -38 -5 0 -9 10
-9 23 0 18 2 19 10 7 8 -12 10 -12 10 -1z m230 7 c0 -2 -7 -7 -16 -10 -8 -3
-12 -2 -9 4 6 10 25 14 25 6z m-580 -30 c0 -23 -32 -42 -52 -30 -18 11 -6 26
17 22 21 -5 25 -2 20 13 -4 11 -2 19 4 19 6 0 11 -11 11 -24z m240 15 c0 -5
-7 -12 -16 -15 -14 -5 -15 -4 -4 9 14 17 20 19 20 6z m24 -36 c-9 -14 -12 -29
-8 -37 16 -25 12 -35 -11 -30 -22 4 -22 4 -5 40 10 20 16 40 13 44 -2 5 3 8
12 8 14 0 14 -2 -1 -25z m56 4 c0 -5 -7 -9 -15 -9 -9 0 -12 6 -9 15 6 15 24
11 24 -6z m525 11 c-3 -5 -11 -10 -16 -10 -6 0 -7 5 -4 10 3 6 11 10 16 10 6
0 7 -4 4 -10z m-617 -35 c1 -14 -3 -25 -9 -25 -6 0 -9 7 -5 15 3 8 1 15 -5 15
-6 0 -7 5 -4 10 11 17 21 11 23 -15z m57 4 c-3 -5 0 -6 8 -3 8 3 17 1 20 -3 3
-5 -7 -10 -23 -11 -24 -2 -27 1 -23 18 3 11 9 17 14 14 5 -3 7 -10 4 -15z m78
5 c-2 -7 -11 -10 -19 -7 -17 6 -11 20 10 20 8 0 12 -6 9 -13z m-163 -27 c0 -4
-6 -2 -14 5 -8 7 -12 17 -9 22 5 8 23 -12 23 -27z m241 -10 c-13 -13 -26 -3
-16 12 3 6 11 8 17 5 6 -4 6 -10 -1 -17z m-704 -2 c0 -8 -4 -15 -9 -15 -4 0
-8 7 -8 15 0 8 4 15 8 15 5 0 9 -7 9 -15z m666 -2 c-4 -11 -3 -14 5 -9 7 4 12
2 12 -3 0 -6 -6 -11 -12 -11 -10 0 -10 -2 0 -9 10 -6 4 -12 -20 -24 -30 -14
-34 -14 -42 0 -5 9 -4 18 2 22 17 10 -3 35 -22 28 -9 -4 -16 -2 -16 3 0 6 17
10 38 10 27 0 33 -3 22 -10 -13 -8 -13 -10 1 -10 9 0 19 7 23 15 3 8 8 15 10
15 3 0 2 -7 -1 -17z m-369 -26 c-7 -19 -20 -22 -29 -7 -9 15 16 43 27 32 5 -5
6 -16 2 -25z m170 9 c-4 -10 2 -12 23 -10 27 4 27 4 6 -7 -12 -6 -25 -25 -28
-40 -4 -16 -12 -29 -18 -30 -7 0 -3 -5 8 -10 19 -9 18 -9 -2 -5 -13 2 -23 -1
-23 -7 0 -6 -3 -8 -6 -4 -3 3 1 16 10 29 25 35 19 44 -8 13 -18 -21 -22 -33
-16 -46 8 -14 6 -16 -12 -11 -13 3 -17 7 -11 9 7 3 9 11 6 19 -3 8 -1 14 5 14
5 0 15 14 22 31 8 19 18 28 27 25 8 -3 11 -1 8 4 -3 6 -13 10 -21 10 -23 0
-16 18 9 23 12 2 23 5 24 6 1 0 0 -5 -3 -13z m-58 -5 c-4 -5 0 -12 6 -15 10
-3 9 -8 -3 -18 -9 -7 -14 -19 -11 -27 4 -12 3 -12 -11 0 -12 11 -13 17 -2 29
7 8 10 21 8 28 -3 6 0 12 7 12 6 0 9 -4 6 -9z m187 -8 c-3 -10 -11 -24 -16
-31 -7 -9 -5 -11 9 -7 16 5 15 4 -2 -7 -12 -7 -19 -18 -17 -23 2 -6 -6 -11
-16 -11 -15 0 -17 3 -9 13 7 9 7 13 0 13 -6 0 -9 7 -6 15 4 9 0 15 -10 15 -19
0 -21 -11 -5 -27 8 -8 8 -13 -1 -18 -7 -4 -14 1 -17 14 -3 12 -10 21 -16 21
-6 0 7 9 28 20 22 11 45 18 52 16 7 -3 15 -1 18 4 10 16 15 11 8 -7z m-221
-12 c-8 -4 -14 -12 -14 -17 0 -5 -3 -14 -5 -21 -3 -6 0 -20 7 -30 10 -15 10
-14 5 10 -4 19 -2 26 5 22 15 -9 12 -45 -5 -51 -11 -5 -12 -11 -4 -26 6 -10 9
-24 6 -31 -2 -6 -11 4 -20 23 -12 24 -14 36 -6 41 8 5 8 12 0 25 -10 18 -10
18 -11 -1 -1 -24 -27 -61 -37 -52 -12 12 -14 47 -2 47 5 0 8 4 5 8 -3 5 7 15
22 23 15 8 31 20 35 26 4 7 13 13 20 13 8 0 8 -3 -1 -9z m-497 -21 c9 -14 -4
-50 -18 -50 -16 0 -39 38 -32 50 8 13 42 13 50 0z m75 0 c0 -5 -4 -10 -10 -10
-5 0 -10 5 -10 10 0 6 5 10 10 10 6 0 10 -4 10 -10z m210 -32 c0 -4 -5 -8 -11
-8 -5 0 -8 4 -4 9 3 5 1 12 -5 16 -5 3 -10 -1 -10 -9 0 -9 -4 -16 -10 -16 -13
0 -13 6 1 32 11 21 12 21 25 3 8 -10 14 -22 14 -27z m339 -17 c-3 -29 1 -41
12 -41 5 0 8 4 5 9 -3 4 6 6 19 3 30 -5 25 -15 -15 -32 -16 -7 -27 -16 -24
-21 11 -19 -26 -8 -39 12 -14 20 -16 20 -25 2 -6 -10 -14 -15 -18 -11 -12 12
18 40 37 35 17 -5 44 15 35 24 -3 3 -7 17 -10 33 -4 23 -3 26 10 15 8 -7 14
-19 13 -28z m-415 23 c12 -5 13 -11 6 -25 -6 -10 -9 -23 -8 -30 2 -6 -2 -13
-7 -15 -6 -3 -11 13 -11 36 -1 22 0 40 2 40 1 0 9 -3 18 -6z m-214 -44 c0 -5
-2 -10 -4 -10 -3 0 -8 5 -11 10 -3 6 -1 10 4 10 6 0 11 -4 11 -10z m277 4 l30
-6 -23 -26 c-14 -14 -27 -22 -31 -19 -3 4 -1 7 5 7 7 0 12 9 12 21 0 19 -1 19
-16 5 -26 -26 -37 -17 -25 22 1 4 16 2 48 -4z m-223 -41 c3 -7 1 -13 -5 -13
-5 0 -12 7 -15 15 -4 8 -10 12 -15 9 -5 -3 -7 -10 -3 -15 3 -5 2 -9 -3 -8 -19
3 -27 -2 -15 -9 9 -6 10 -15 3 -33 -10 -24 -10 -24 -10 -1 -1 12 -6 22 -13 22
-6 0 -3 9 7 20 10 11 15 20 10 20 -4 0 -2 7 5 15 9 11 16 12 31 2 10 -6 21
-17 23 -24z m543 31 c-3 -3 -12 -4 -19 -1 -8 3 -5 6 6 6 11 1 17 -2 13 -5z
m-115 -89 c-3 -5 4 -1 15 10 11 11 18 26 15 33 -2 6 1 12 7 12 14 0 14 -11 -3
-50 l-13 -33 -22 22 c-11 11 -21 24 -22 29 0 4 -2 21 -4 37 -3 28 -2 27 15
-10 9 -22 15 -44 12 -50z m-102 60 c0 -8 -2 -15 -4 -15 -2 0 -6 7 -10 15 -3 8
-1 15 4 15 6 0 10 -7 10 -15z m147 9 c-3 -3 -12 -4 -19 -1 -8 3 -5 6 6 6 11 1
17 -2 13 -5z m-107 -9 c0 -2 -6 -8 -13 -14 -10 -8 -14 -7 -14 2 0 8 6 14 14
14 7 0 13 -1 13 -2z m179 -39 c10 -12 8 -17 -8 -26 -12 -6 -21 -9 -22 -8 -8
33 -7 48 5 48 7 0 19 -6 25 -14z m-52 -18 c-3 -8 -6 -5 -6 6 -1 11 2 17 5 13
3 -3 4 -12 1 -19z m-570 -10 c-3 -8 -6 -5 -6 6 -1 11 2 17 5 13 3 -3 4 -12 1
-19z m556 -23 c-5 -13 -23 -22 -23 -11 0 15 14 35 21 31 4 -3 6 -12 2 -20z
m-55 9 c25 -7 30 -24 7 -24 -8 0 -15 4 -15 9 0 5 -9 7 -20 4 -11 -3 -20 0 -20
6 0 12 14 14 48 5z m-5 -42 c-13 -2 -20 -8 -17 -16 3 -8 -3 -16 -12 -20 -25
-10 -27 -2 -4 27 14 18 26 24 38 19 14 -6 14 -7 -5 -10z m-53 -12 c0 -5 -2
-10 -4 -10 -3 0 -8 5 -11 10 -3 6 -1 10 4 10 6 0 11 -4 11 -10z m-46 -141 c-9
-15 -34 -10 -28 5 3 8 12 12 20 9 8 -3 11 -9 8 -14z"/>
<path d="M1357 2264 c-13 -18 -14 -22 -3 -18 8 3 17 13 20 21 10 25 3 23 -17
-3z"/>
<path d="M1317 2225 c3 -8 9 -12 14 -9 12 7 11 11 -5 17 -10 4 -13 1 -9 -8z"/>
<path d="M1717 2189 c7 -7 15 -10 18 -7 3 3 -2 9 -12 12 -14 6 -15 5 -6 -5z"/>
<path d="M1594 2105 c-12 -8 -25 -11 -29 -7 -4 4 -2 -4 5 -18 8 -14 13 -26 12
-27 -8 -12 1 -11 13 1 9 8 23 12 31 9 14 -5 15 -3 3 18 -7 13 -12 27 -11 32 3
10 -1 9 -24 -8z m21 -15 c3 -6 -1 -13 -10 -16 -19 -8 -30 0 -20 15 8 14 22 14
30 1z"/>
<path d="M2155 2151 c-7 -12 24 -31 53 -31 4 0 0 -5 -8 -10 -12 -8 -10 -9 7
-7 33 5 41 17 15 24 -12 3 -20 9 -17 13 3 5 1 11 -5 15 -5 3 -10 1 -10 -4 0
-6 -7 -11 -16 -11 -8 0 -12 5 -9 10 3 6 4 10 1 10 -3 0 -7 -4 -11 -9z"/>
<path d="M2205 1961 c-3 -5 -1 -12 5 -16 5 -3 10 1 10 9 0 18 -6 21 -15 7z"/>
<path d="M2233 1883 c-7 -2 -13 -9 -13 -15 0 -7 5 -6 14 1 10 8 16 9 21 1 3
-5 11 -10 17 -10 7 0 6 6 -2 15 -13 16 -17 17 -37 8z"/>
<path d="M2156 1665 c-6 -17 5 -26 21 -17 8 5 7 11 -2 19 -10 10 -14 9 -19 -2z"/>
<path d="M2350 1636 c0 -9 5 -16 10 -16 6 0 10 4 10 9 0 6 -4 13 -10 16 -5 3
-10 -1 -10 -9z"/>
<path d="M2345 1601 c-11 -5 -26 -6 -32 -4 -7 3 -13 -1 -13 -8 0 -7 3 -9 7 -6
3 4 12 2 20 -4 10 -9 13 -8 13 1 0 8 3 11 6 8 3 -4 0 -16 -6 -29 -11 -19 -10
-21 5 -16 9 4 23 7 31 7 19 0 18 26 -2 34 -8 3 -12 10 -9 16 7 11 7 11 -20 1z"/>
<path d="M1266 1965 c-9 -26 -7 -32 5 -12 6 10 9 21 6 23 -2 3 -7 -2 -11 -11z"/>
<path d="M2443 1805 c2 -15 -3 -19 -20 -17 -20 3 -21 1 -10 -23 12 -25 12 -25
29 -5 10 12 19 16 23 10 9 -15 25 -2 18 16 -3 8 -8 12 -11 10 -3 -3 -11 2 -18
12 -12 16 -12 16 -11 -3z"/>
<path d="M1118 1803 c7 -3 16 -2 19 1 4 3 -2 6 -13 5 -11 0 -14 -3 -6 -6z"/>
<path d="M2058 1708 c5 -5 16 -8 23 -6 8 3 3 7 -10 11 -17 4 -21 3 -13 -5z"/>
<path d="M936 1823 c-6 -14 -5 -15 5 -6 7 7 10 15 7 18 -3 3 -9 -2 -12 -12z"/>
<path d="M949 1803 c-13 -16 -12 -17 4 -4 9 7 17 15 17 17 0 8 -8 3 -21 -13z"/>
<path d="M1610 1709 c0 -5 5 -7 10 -4 6 3 10 8 10 11 0 2 -4 4 -10 4 -5 0 -10
-5 -10 -11z"/>
<path d="M1062 1651 c11 -17 13 -18 23 -4 10 14 12 12 10 -8 -1 -20 -6 -23
-28 -21 -19 2 -27 -1 -27 -12 0 -9 5 -16 11 -16 5 0 7 5 4 10 -3 6 1 10 10 10
9 0 14 -4 10 -9 -3 -5 -1 -12 4 -15 5 -3 12 4 15 17 l7 22 9 -22 c5 -13 14
-23 20 -23 5 0 10 -7 10 -16 0 -10 -7 -14 -21 -12 -15 2 -23 -3 -25 -14 -1
-10 2 -18 8 -18 6 0 4 -7 -3 -17 -13 -15 -12 -15 8 -2 20 12 24 11 37 -6 14
-18 15 -18 16 -3 0 13 7 17 22 14 23 -3 50 29 40 48 -3 5 -8 1 -12 -9 -9 -25
-38 -27 -51 -3 -8 14 -7 24 3 36 9 11 10 14 1 8 -7 -4 -13 -2 -13 3 0 6 -8 11
-17 11 -15 0 -16 2 -3 10 14 9 7 15 -14 11 -5 -1 -6 5 -3 12 7 19 -12 37 -40
37 -20 0 -22 -2 -11 -19z m92 -126 c7 -19 -5 -19 -30 0 -19 14 -19 14 2 15 12
0 24 -7 28 -15z"/>
<path d="M1105 1570 c3 -5 11 -10 16 -10 6 0 7 5 4 10 -3 6 -11 10 -16 10 -6
0 -7 -4 -4 -10z"/>
<path d="M1235 1560 c-3 -5 -1 -10 4 -10 6 0 11 5 11 10 0 6 -2 10 -4 10 -3 0
-8 -4 -11 -10z"/>
<path d="M1300 1551 c0 -5 5 -13 10 -16 6 -3 10 -2 10 4 0 5 -4 13 -10 16 -5
3 -10 2 -10 -4z"/>
<path d="M1237 1524 c4 -12 3 -15 -5 -10 -7 4 -12 1 -13 -6 -1 -7 -2 -28 -4
-45 -1 -18 1 -30 6 -27 5 3 13 -5 18 -18 8 -18 10 -19 10 -5 1 13 7 17 24 15
12 -2 25 -7 29 -13 4 -5 10 -6 14 -2 10 10 -28 48 -52 51 -29 4 -31 44 -2 55
13 6 18 10 11 10 -6 1 -19 4 -27 7 -12 5 -15 2 -9 -12z m13 -75 c0 -6 -4 -7
-10 -4 -5 3 -10 11 -10 16 0 6 5 7 10 4 6 -3 10 -11 10 -16z"/>
<path d="M1281 1507 c-13 -20 -6 -32 24 -37 6 -1 16 -7 24 -13 11 -10 13 -9 9
3 -2 8 -12 15 -21 15 -26 0 -33 16 -14 30 14 10 15 14 4 18 -7 3 -19 -4 -26
-16z"/>
<path d="M1124 1476 c2 -14 -1 -26 -6 -26 -5 0 -6 -4 -3 -10 10 -17 32 -11 38
9 3 12 -3 27 -13 36 -17 16 -18 15 -16 -9z"/>
<path d="M886 1434 c-11 -8 -15 -14 -9 -14 6 0 10 -12 8 -27 -2 -25 -2 -26 11
-9 7 11 11 22 9 27 -3 4 1 9 7 12 9 3 10 8 3 15 -7 7 -16 6 -29 -4z"/>
<path d="M1190 1411 c0 -5 5 -13 10 -16 6 -3 10 -2 10 4 0 5 -4 13 -10 16 -5
3 -10 2 -10 -4z"/>
<path d="M1131 1316 c-9 -11 -8 -15 5 -20 12 -5 15 -2 10 11 -6 17 -5 17 8 0
12 -16 14 -16 20 -2 3 9 2 13 -4 10 -6 -3 -10 -1 -10 4 0 15 -15 14 -29 -3z"/>
<path d="M1905 1700 c-4 -6 -11 -7 -17 -4 -6 4 -3 -5 8 -19 21 -29 34 -34 34
-13 0 8 3 21 6 30 7 18 -21 23 -31 6z"/>
<path d="M2212 1562 c-11 -11 -24 -17 -28 -14 -3 4 -4 0 -2 -8 3 -8 11 -14 18
-12 7 2 10 -3 7 -12 -6 -15 19 -30 34 -20 6 3 17 0 26 -8 12 -9 15 -10 9 0 -4
7 -1 15 8 18 9 3 16 15 16 26 0 10 -5 16 -10 13 -6 -4 -7 -12 -3 -18 4 -7 0
-7 -10 1 -9 8 -21 11 -26 8 -5 -4 -13 -1 -17 5 -4 8 -3 9 4 5 7 -4 12 -2 12 4
0 6 4 8 10 5 6 -4 7 1 3 11 -5 13 -8 14 -11 5 -3 -10 -6 -11 -12 -1 -6 9 -13
7 -28 -8z"/>
<path d="M2511 1571 c-8 -5 -9 -11 -3 -15 5 -3 15 1 22 9 14 16 3 20 -19 6z"/>
<path d="M2087 1564 c-3 -3 -3 -13 0 -21 5 -12 7 -12 14 -1 15 23 4 40 -14 22z"/>
<path d="M2395 1500 c3 -5 8 -10 11 -10 2 0 4 5 4 10 0 6 -5 10 -11 10 -5 0
-7 -4 -4 -10z"/>
<path d="M2505 1493 c1 -10 -2 -24 -8 -30 -6 -9 -6 -13 2 -13 6 0 11 5 11 10
0 6 9 10 21 10 11 0 17 5 14 10 -4 6 -11 8 -16 5 -5 -3 -6 1 -3 9 4 10 1 16
-9 16 -9 0 -14 -7 -12 -17z"/>
<path d="M2317 1360 c-3 -11 -1 -20 4 -20 5 0 9 2 9 4 0 2 3 11 6 20 3 9 2 16
-4 16 -5 0 -12 -9 -15 -20z"/>
<path d="M900 1539 c0 -5 10 -9 22 -9 12 0 18 3 14 7 -10 11 -36 12 -36 2z"/>
<path d="M1154 1712 c4 -7 2 -20 -3 -31 -9 -16 -8 -18 7 -14 21 5 23 44 2 51
-7 3 -10 0 -6 -6z"/>
<path d="M2546 1637 c3 -8 11 -14 19 -14 20 0 19 4 -5 17 -15 8 -18 8 -14 -3z"/>
<path d="M1576 1665 c-9 -26 -7 -32 5 -12 6 10 9 21 6 23 -2 3 -7 -2 -11 -11z"/>
<path d="M1837 1571 c-3 -14 0 -19 14 -18 14 1 16 4 6 17 -6 8 -12 16 -13 18
-1 1 -4 -6 -7 -17z"/>
<path d="M1741 1531 c-8 -5 -9 -11 -3 -15 5 -3 12 1 16 9 6 17 6 18 -13 6z"/>
<path d="M1243 1320 c1 -14 -2 -30 -6 -36 -4 -7 2 -10 18 -6 39 7 44 24 8 21
-5 0 -11 10 -15 23 -7 23 -7 22 -5 -2z"/>
<path d="M1500 1270 c0 -5 5 -10 10 -10 6 0 10 5 10 10 0 6 -4 10 -10 10 -5 0
-10 -4 -10 -10z"/>
<path d="M2255 1170 c3 -5 11 -10 16 -10 6 0 7 5 4 10 -3 6 -11 10 -16 10 -6
0 -7 -4 -4 -10z"/>
<path d="M2046 1161 c-4 -5 3 -7 14 -4 23 6 26 13 6 13 -8 0 -17 -4 -20 -9z"/>
<path d="M3158 1163 c6 -2 18 -2 25 0 6 3 1 5 -13 5 -14 0 -19 -2 -12 -5z"/>
<path d="M2893 1043 c-19 -7 -16 -29 5 -30 11 -1 18 5 18 18 0 20 -2 21 -23
12z"/>
<path d="M2936 1005 c4 -8 10 -12 15 -9 11 6 2 24 -11 24 -5 0 -7 -7 -4 -15z"/>
<path d="M2981 977 c-9 -12 -8 -16 5 -21 22 -8 28 -1 17 19 -8 14 -11 14 -22
2z"/>
<path d="M2070 990 c0 -5 5 -10 10 -10 6 0 10 5 10 10 0 6 -4 10 -10 10 -5 0
-10 -4 -10 -10z"/>
<path d="M1736 1082 c-3 -3 4 -14 17 -26 12 -12 30 -37 39 -56 12 -26 17 -30
18 -15 0 17 2 18 11 5 9 -13 10 -13 6 0 -2 8 -9 14 -15 13 -6 -2 -14 6 -17 18
-8 23 -51 69 -59 61z"/>
<path d="M2615 970 c-4 -7 -3 -16 3 -22 14 -14 57 -6 57 12 0 18 -50 26 -60
10z"/>
<path d="M2230 990 c-12 -7 -12 -12 0 -34 7 -14 18 -26 23 -26 5 0 2 11 -7 25
-10 15 -12 24 -5 23 6 -2 14 3 16 10 5 14 -6 15 -27 2z"/>
<path d="M2226 878 c-10 -37 -7 -39 21 -21 18 12 28 14 30 6 3 -7 11 -9 19 -6
12 4 9 10 -13 24 -37 25 -49 24 -57 -3z"/>
<path d="M2160 829 c0 -5 5 -7 10 -4 6 3 10 8 10 11 0 2 -4 4 -10 4 -5 0 -10
-5 -10 -11z"/>
<path d="M2105 761 c-2 -5 6 -7 18 -7 12 1 28 -2 35 -7 12 -10 30 -2 20 8 -9
10 -68 14 -73 6z"/>
<path d="M2136 625 c-3 -8 -1 -15 4 -15 13 0 22 18 11 24 -5 3 -11 -1 -15 -9z"/>
<path d="M2035 530 c-3 -5 1 -10 10 -10 9 0 13 5 10 10 -3 6 -8 10 -10 10 -2
0 -7 -4 -10 -10z"/>
<path d="M1965 900 c3 -5 8 -10 11 -10 2 0 4 5 4 10 0 6 -5 10 -11 10 -5 0 -7
-4 -4 -10z"/>
<path d="M1848 835 c-2 -19 -1 -35 3 -35 4 0 9 16 11 35 2 19 1 35 -3 35 -4 0
-9 -16 -11 -35z"/>
<path d="M1947 713 c-4 -3 -7 -15 -7 -25 0 -10 -4 -18 -10 -18 -5 0 -10 5 -10
10 0 6 -5 10 -11 10 -6 0 -9 -7 -5 -15 3 -9 0 -15 -10 -15 -8 0 -12 -5 -9 -10
4 -7 11 -8 18 -1 7 5 14 9 17 9 14 -2 50 15 50 23 0 6 -5 7 -11 3 -8 -4 -9 0
-4 15 6 21 4 26 -8 14z"/>
<path d="M1976 621 c-4 -5 3 -7 14 -4 23 6 26 13 6 13 -8 0 -17 -4 -20 -9z"/>
<path d="M2560 780 c-9 -6 -10 -10 -3 -10 6 0 15 5 18 10 8 12 4 12 -15 0z"/>
<path d="M2200 799 c0 -5 5 -7 10 -4 6 3 10 8 10 11 0 2 -4 4 -10 4 -5 0 -10
-5 -10 -11z"/>
<path d="M2235 723 c-10 -24 -14 -43 -9 -43 7 0 25 52 21 57 -3 2 -8 -4 -12
-14z"/>
<path d="M1655 2000 c-10 -11 -15 -20 -10 -20 4 0 2 -7 -5 -15 -10 -12 -10
-19 -2 -27 9 -9 12 -9 12 1 0 7 9 24 20 38 33 42 20 62 -15 23z"/>
<path d="M1780 1962 c0 -4 4 -12 9 -17 6 -6 0 -21 -17 -40 -15 -17 -24 -26
-20 -19 10 14 0 24 -16 18 -8 -3 -11 -15 -8 -29 3 -20 8 -23 22 -15 13 7 20 6
24 -3 3 -6 3 -1 -1 13 -5 23 -5 24 12 10 15 -12 17 -12 10 -1 -6 11 -4 13 8 8
10 -4 17 -2 17 5 0 7 7 5 18 -4 12 -11 24 -13 40 -7 12 4 22 11 22 13 0 3 -11
1 -24 -4 -19 -7 -26 -5 -30 7 -9 23 10 41 27 24 10 -10 9 -11 -5 -6 -10 4 -18
3 -18 -3 0 -6 10 -9 23 -6 65 14 76 13 74 -7 -1 -10 -6 -19 -12 -19 -5 0 -3
-4 5 -9 19 -13 34 -3 20 14 -8 9 -6 14 5 19 9 3 13 2 10 -4 -3 -5 3 -8 13 -7
13 1 18 7 14 19 -3 13 -9 15 -20 9 -9 -5 -25 -3 -41 5 -16 8 -29 10 -35 4 -5
-5 -16 -5 -28 1 -10 5 -26 9 -36 7 -12 -2 -16 3 -14 17 2 17 1 18 -8 5 -9 -11
-13 -12 -17 -2 -5 13 -23 17 -23 4z m41 -45 c-1 -4 -3 -6 -4 -4 -2 1 -11 -4
-20 -12 -20 -16 -23 -6 -4 14 12 14 29 16 28 2z"/>
<path d="M1901 1961 c-8 -5 -21 -7 -30 -4 -10 4 -9 0 4 -10 11 -8 20 -15 20
-14 1 1 7 10 14 20 15 19 13 21 -8 8z"/>
<path d="M2070 1960 c-8 -5 -11 -12 -7 -16 4 -4 13 -2 19 4 15 15 7 24 -12 12z"/>
<path d="M1596 1861 c-18 -20 -10 -36 10 -20 8 6 11 16 7 23 -4 6 0 6 9 -2 13
-10 17 -10 21 1 7 20 -29 18 -47 -2z"/>
<path d="M1750 1840 c0 -5 8 -11 18 -13 16 -4 16 -5 0 -6 -10 0 -18 -6 -18
-12 0 -5 -4 -7 -10 -4 -5 3 -10 1 -10 -5 0 -6 13 -8 33 -5 28 4 30 4 15 -9
-10 -7 -18 -18 -18 -24 0 -16 41 -5 59 15 15 16 15 16 -1 4 -16 -12 -18 -11
-20 5 0 11 0 28 0 39 2 15 -5 20 -23 21 -14 1 -25 -2 -25 -6z"/>
<path d="M1803 1753 c-20 -8 -15 -23 7 -23 11 0 20 7 20 15 0 15 -6 17 -27 8z"/>
<path d="M2610 1403 c0 -4 5 -15 10 -23 8 -13 10 -13 10 2 0 9 -4 20 -10 23
-5 3 -10 3 -10 -2z"/>
<path d="M3060 900 c0 -6 4 -9 9 -5 5 3 12 1 16 -5 3 -5 2 -10 -4 -10 -6 0 -8
-7 -5 -15 5 -11 2 -13 -12 -8 -12 4 -15 3 -10 -5 4 -7 2 -12 -3 -12 -6 0 -11
5 -11 11 0 5 -5 7 -10 4 -18 -11 2 -27 26 -21 14 4 24 2 24 -4 0 -5 4 -10 9
-10 6 0 9 19 8 42 -2 32 -6 44 -19 46 -10 2 -18 -2 -18 -8z"/>
</g>
</svg>
